<?xml version="1.0" standalone="yes"?>
<!-- SVG graphic -->
<svg xmlns='http://www.w3.org/2000/svg' xmlns:xlink='http://www.w3.org/1999/xlink'
 version="1.1">
<rect x="0" y="-1.52588e-05" width="6" height="200" stroke="black" stroke-width="1" fill="blue" tooltip="enable"><title>(0,170)</title></rect><rect x="6" y="65.8824" width="6" height="134.118" stroke="black" stroke-width="1" fill="blue" tooltip="enable"><title>(0.0250018,114)</title></rect><rect x="12" y="101.176" width="6" height="98.8235" stroke="black" stroke-width="1" fill="blue" tooltip="enable"><title>(0.0500036,84)</title></rect><rect x="18" y="92.9412" width="6" height="107.059" stroke="black" stroke-width="1" fill="blue" tooltip="enable"><title>(0.0750054,91)</title></rect><rect x="24" y="132.941" width="6" height="67.0588" stroke="black" stroke-width="1" fill="blue" tooltip="enable"><title>(0.100007,57)</title></rect><rect x="30" y="135.294" width="6" height="64.7059" stroke="black" stroke-width="1" fill="blue" tooltip="enable"><title>(0.125009,55)</title></rect><rect x="36" y="130.588" width="6" height="69.4118" stroke="black" stroke-width="1" fill="blue" tooltip="enable"><title>(0.150011,59)</title></rect><rect x="42" y="140" width="6" height="60" stroke="black" stroke-width="1" fill="blue" tooltip="enable"><title>(0.175013,51)</title></rect><rect x="48" y="148.235" width="6" height="51.7647" stroke="black" stroke-width="1" fill="blue" tooltip="enable"><title>(0.200014,44)</title></rect><rect x="54" y="149.412" width="6" height="50.5882" stroke="black" stroke-width="1" fill="blue" tooltip="enable"><title>(0.225016,43)</title></rect><rect x="60" y="148.235" width="6" height="51.7647" stroke="black" stroke-width="1" fill="blue" tooltip="enable"><title>(0.250018,44)</title></rect><rect x="66" y="138.824" width="6" height="61.1765" stroke="black" stroke-width="1" fill="blue" tooltip="enable"><title>(0.27502,52)</title></rect><rect x="72" y="152.941" width="6" height="47.0588" stroke="black" stroke-width="1" fill="blue" tooltip="enable"><title>(0.300022,40)</title></rect><rect x="78" y="151.765" width="6" height="48.2353" stroke="black" stroke-width="1" fill="blue" tooltip="enable"><title>(0.325023,41)</title></rect><rect x="84" y="161.176" width="6" height="38.8235" stroke="black" stroke-width="1" fill="blue" tooltip="enable"><title>(0.350025,33)</title></rect><rect x="90" y="151.765" width="6" height="48.2353" stroke="black" stroke-width="1" fill="blue" tooltip="enable"><title>(0.375027,41)</title></rect><rect x="96" y="176.471" width="6" height="23.5294" stroke="black" stroke-width="1" fill="blue" tooltip="enable"><title>(0.400029,20)</title></rect><rect x="102" y="174.118" width="6" height="25.8824" stroke="black" stroke-width="1" fill="blue" tooltip="enable"><title>(0.425031,22)</title></rect><rect x="108" y="155.294" width="6" height="44.7059" stroke="black" stroke-width="1" fill="blue" tooltip="enable"><title>(0.450032,38)</title></rect><rect x="114" y="150.588" width="6" height="49.4118" stroke="black" stroke-width="1" fill="blue" tooltip="enable"><title>(0.475034,42)</title></rect><rect x="120" y="172.941" width="6" height="27.0588" stroke="black" stroke-width="1" fill="blue" tooltip="enable"><title>(0.500036,23)</title></rect><rect x="126" y="176.471" width="6" height="23.5294" stroke="black" stroke-width="1" fill="blue" tooltip="enable"><title>(0.525038,20)</title></rect><rect x="132" y="169.412" width="6" height="30.5882" stroke="black" stroke-width="1" fill="blue" tooltip="enable"><title>(0.55004,26)</title></rect><rect x="138" y="181.176" width="6" height="18.8235" stroke="black" stroke-width="1" fill="blue" tooltip="enable"><title>(0.575041,16)</title></rect><rect x="144" y="180" width="6" height="20" stroke="black" stroke-width="1" fill="blue" tooltip="enable"><title>(0.600043,17)</title></rect><rect x="150" y="174.118" width="6" height="25.8824" stroke="black" stroke-width="1" fill="blue" tooltip="enable"><title>(0.625045,22)</title></rect><rect x="156" y="172.941" width="6" height="27.0588" stroke="black" stroke-width="1" fill="blue" tooltip="enable"><title>(0.650047,23)</title></rect><rect x="162" y="182.353" width="6" height="17.6471" stroke="black" stroke-width="1" fill="blue" tooltip="enable"><title>(0.675049,15)</title></rect><rect x="168" y="190.588" width="6" height="9.41177" stroke="black" stroke-width="1" fill="blue" tooltip="enable"><title>(0.70005,8)</title></rect><rect x="174" y="187.059" width="6" height="12.9412" stroke="black" stroke-width="1" fill="blue" tooltip="enable"><title>(0.725052,11)</title></rect><rect x="180" y="184.706" width="6" height="15.2941" stroke="black" stroke-width="1" fill="blue" tooltip="enable"><title>(0.750054,13)</title></rect><rect x="186" y="191.765" width="6" height="8.23529" stroke="black" stroke-width="1" fill="blue" tooltip="enable"><title>(0.775056,7)</title></rect><rect x="192" y="192.941" width="6" height="7.05882" stroke="black" stroke-width="1" fill="blue" tooltip="enable"><title>(0.800058,6)</title></rect><rect x="198" y="185.882" width="6" height="14.1176" stroke="black" stroke-width="1" fill="blue" tooltip="enable"><title>(0.825059,12)</title></rect><rect x="204" y="195.294" width="6" height="4.70588" stroke="black" stroke-width="1" fill="blue" tooltip="enable"><title>(0.850061,4)</title></rect><rect x="210" y="184.706" width="6" height="15.2941" stroke="black" stroke-width="1" fill="blue" tooltip="enable"><title>(0.875063,13)</title></rect><rect x="216" y="191.765" width="6" height="8.23529" stroke="black" stroke-width="1" fill="blue" tooltip="enable"><title>(0.900065,7)</title></rect><rect x="222" y="188.235" width="6" height="11.7647" stroke="black" stroke-width="1" fill="blue" tooltip="enable"><title>(0.925067,10)</title></rect><rect x="228" y="197.647" width="6" height="2.35294" stroke="black" stroke-width="1" fill="blue" tooltip="enable"><title>(0.950068,2)</title></rect><rect x="234" y="190.588" width="6" height="9.41177" stroke="black" stroke-width="1" fill="blue" tooltip="enable"><title>(0.97507,8)</title></rect><rect x="240" y="195.294" width="6" height="4.70588" stroke="black" stroke-width="1" fill="blue" tooltip="enable"><title>(1.00007,4)</title></rect><rect x="246" y="198.824" width="6" height="1.17647" stroke="black" stroke-width="1" fill="blue" tooltip="enable"><title>(1.02507,1)</title></rect><rect x="252" y="198.824" width="6" height="1.17647" stroke="black" stroke-width="1" fill="blue" tooltip="enable"><title>(1.05008,1)</title></rect><rect x="258" y="200" width="6" height="0" stroke="black" stroke-width="1" fill="blue" tooltip="enable"><title>(1.07508,0)</title></rect><rect x="264" y="198.824" width="6" height="1.17647" stroke="black" stroke-width="1" fill="blue" tooltip="enable"><title>(1.10008,1)</title></rect><rect x="270" y="196.471" width="6" height="3.52941" stroke="black" stroke-width="1" fill="blue" tooltip="enable"><title>(1.12508,3)</title></rect><rect x="276" y="198.824" width="6" height="1.17647" stroke="black" stroke-width="1" fill="blue" tooltip="enable"><title>(1.15008,1)</title></rect><rect x="282" y="198.824" width="6" height="1.17647" stroke="black" stroke-width="1" fill="blue" tooltip="enable"><title>(1.17508,1)</title></rect><rect x="288" y="198.824" width="6" height="1.17647" stroke="black" stroke-width="1" fill="blue" tooltip="enable"><title>(1.20009,1)</title></rect><rect x="294" y="198.824" width="6" height="1.17647" stroke="black" stroke-width="1" fill="blue" tooltip="enable"><title>(1.22509,1)</title></rect><rect x="300" y="197.647" width="6" height="2.35294" stroke="black" stroke-width="1" fill="blue" tooltip="enable"><title>(1.25009,2)</title></rect><rect x="306" y="197.647" width="6" height="2.35294" stroke="black" stroke-width="1" fill="blue" tooltip="enable"><title>(1.27509,2)</title></rect><rect x="312" y="198.824" width="6" height="1.17647" stroke="black" stroke-width="1" fill="blue" tooltip="enable"><title>(1.30009,1)</title></rect><rect x="318" y="198.824" width="6" height="1.17647" stroke="black" stroke-width="1" fill="blue" tooltip="enable"><title>(1.3251,1)</title></rect><rect x="324" y="200" width="6" height="0" stroke="black" stroke-width="1" fill="blue" tooltip="enable"><title>(1.3501,0)</title></rect><rect x="330" y="197.647" width="6" height="2.35294" stroke="black" stroke-width="1" fill="blue" tooltip="enable"><title>(1.3751,2)</title></rect><rect x="336" y="197.647" width="6" height="2.35294" stroke="black" stroke-width="1" fill="blue" tooltip="enable"><title>(1.4001,2)</title></rect><rect x="342" y="200" width="6" height="0" stroke="black" stroke-width="1" fill="blue" tooltip="enable"><title>(1.4251,0)</title></rect><rect x="348" y="198.824" width="6" height="1.17647" stroke="black" stroke-width="1" fill="blue" tooltip="enable"><title>(1.4501,1)</title></rect><rect x="354" y="198.824" width="6" height="1.17647" stroke="black" stroke-width="1" fill="blue" tooltip="enable"><title>(1.47511,1)</title></rect><rect x="360" y="197.647" width="6" height="2.35294" stroke="black" stroke-width="1" fill="blue" tooltip="enable"><title>(1.50011,2)</title></rect><rect x="366" y="200" width="6" height="0" stroke="black" stroke-width="1" fill="blue" tooltip="enable"><title>(1.52511,0)</title></rect><rect x="372" y="200" width="6" height="0" stroke="black" stroke-width="1" fill="blue" tooltip="enable"><title>(1.55011,0)</title></rect><rect x="378" y="197.647" width="6" height="2.35294" stroke="black" stroke-width="1" fill="blue" tooltip="enable"><title>(1.57511,2)</title></rect><rect x="384" y="200" width="6" height="0" stroke="black" stroke-width="1" fill="blue" tooltip="enable"><title>(1.60012,0)</title></rect><rect x="390" y="197.647" width="6" height="2.35294" stroke="black" stroke-width="1" fill="blue" tooltip="enable"><title>(1.62512,2)</title></rect><rect x="396" y="200" width="6" height="0" stroke="black" stroke-width="1" fill="blue" tooltip="enable"><title>(1.65012,0)</title></rect><rect x="402" y="200" width="6" height="0" stroke="black" stroke-width="1" fill="blue" tooltip="enable"><title>(1.67512,0)</title></rect><rect x="408" y="200" width="6" height="0" stroke="black" stroke-width="1" fill="blue" tooltip="enable"><title>(1.70012,0)</title></rect><rect x="414" y="197.647" width="6" height="2.35294" stroke="black" stroke-width="1" fill="blue" tooltip="enable"><title>(1.72512,2)</title></rect><rect x="420" y="198.824" width="6" height="1.17647" stroke="black" stroke-width="1" fill="blue" tooltip="enable"><title>(1.75013,1)</title></rect><rect x="426" y="200" width="6" height="0" stroke="black" stroke-width="1" fill="blue" tooltip="enable"><title>(1.77513,0)</title></rect><rect x="432" y="200" width="6" height="0" stroke="black" stroke-width="1" fill="blue" tooltip="enable"><title>(1.80013,0)</title></rect><rect x="438" y="198.824" width="6" height="1.17647" stroke="black" stroke-width="1" fill="blue" tooltip="enable"><title>(1.82513,1)</title></rect><rect x="444" y="200" width="6" height="0" stroke="black" stroke-width="1" fill="blue" tooltip="enable"><title>(1.85013,0)</title></rect><rect x="450" y="198.824" width="6" height="1.17647" stroke="black" stroke-width="1" fill="blue" tooltip="enable"><title>(1.87513,1)</title></rect><rect x="456" y="198.824" width="6" height="1.17647" stroke="black" stroke-width="1" fill="blue" tooltip="enable"><title>(1.90014,1)</title></rect><rect x="462" y="200" width="6" height="0" stroke="black" stroke-width="1" fill="blue" tooltip="enable"><title>(1.92514,0)</title></rect><rect x="468" y="200" width="6" height="0" stroke="black" stroke-width="1" fill="blue" tooltip="enable"><title>(1.95014,0)</title></rect><rect x="474" y="200" width="6" height="0" stroke="black" stroke-width="1" fill="blue" tooltip="enable"><title>(1.97514,0)</title></rect><rect x="480" y="197.647" width="6" height="2.35294" stroke="black" stroke-width="1" fill="blue" tooltip="enable"><title>(2.00014,2)</title></rect><rect x="486" y="197.647" width="6" height="2.35294" stroke="black" stroke-width="1" fill="blue" tooltip="enable"><title>(2.02515,2)</title></rect><rect x="492" y="200" width="6" height="0" stroke="black" stroke-width="1" fill="blue" tooltip="enable"><title>(2.05015,0)</title></rect><rect x="498" y="198.824" width="6" height="1.17647" stroke="black" stroke-width="1" fill="blue" tooltip="enable"><title>(2.07515,1)</title></rect><rect x="504" y="200" width="6" height="0" stroke="black" stroke-width="1" fill="blue" tooltip="enable"><title>(2.10015,0)</title></rect><rect x="510" y="200" width="6" height="0" stroke="black" stroke-width="1" fill="blue" tooltip="enable"><title>(2.12515,0)</title></rect><rect x="516" y="200" width="6" height="0" stroke="black" stroke-width="1" fill="blue" tooltip="enable"><title>(2.15015,0)</title></rect><rect x="522" y="198.824" width="6" height="1.17647" stroke="black" stroke-width="1" fill="blue" tooltip="enable"><title>(2.17516,1)</title></rect><rect x="528" y="200" width="6" height="0" stroke="black" stroke-width="1" fill="blue" tooltip="enable"><title>(2.20016,0)</title></rect><rect x="534" y="200" width="6" height="0" stroke="black" stroke-width="1" fill="blue" tooltip="enable"><title>(2.22516,0)</title></rect><rect x="540" y="200" width="6" height="0" stroke="black" stroke-width="1" fill="blue" tooltip="enable"><title>(2.25016,0)</title></rect><rect x="546" y="200" width="6" height="0" stroke="black" stroke-width="1" fill="blue" tooltip="enable"><title>(2.27516,0)</title></rect><rect x="552" y="200" width="6" height="0" stroke="black" stroke-width="1" fill="blue" tooltip="enable"><title>(2.30017,0)</title></rect><rect x="558" y="200" width="6" height="0" stroke="black" stroke-width="1" fill="blue" tooltip="enable"><title>(2.32517,0)</title></rect><rect x="564" y="200" width="6" height="0" stroke="black" stroke-width="1" fill="blue" tooltip="enable"><title>(2.35017,0)</title></rect><rect x="570" y="200" width="6" height="0" stroke="black" stroke-width="1" fill="blue" tooltip="enable"><title>(2.37517,0)</title></rect><rect x="576" y="198.824" width="6" height="1.17647" stroke="black" stroke-width="1" fill="blue" tooltip="enable"><title>(2.40017,1)</title></rect><rect x="582" y="200" width="6" height="0" stroke="black" stroke-width="1" fill="blue" tooltip="enable"><title>(2.42517,0)</title></rect><rect x="588" y="200" width="6" height="0" stroke="black" stroke-width="1" fill="blue" tooltip="enable"><title>(2.45018,0)</title></rect><rect x="594" y="198.824" width="6" height="1.17647" stroke="black" stroke-width="1" fill="blue" tooltip="enable"><title>(2.47518,1)</title></rect><text x="30" y="240" font-size="20" fill="black">0</text>
<text x="600" y="240" font-size="20" fill="black">2.50018</text>
<polyline points="0,220,600,220" stroke="black" stroke-width="1" fill="none"/>
<text x="720" y="20" font-size="20" fill="black">170</text>
<text x="720" y="200" font-size="20" fill="black">0</text>
<polyline points="660,0,660,200" stroke="black" stroke-width="1" fill="none"/>
</svg>