<?xml version="1.0" standalone="yes"?>
<!-- SVG graphic -->
<svg xmlns='http://www.w3.org/2000/svg' xmlns:xlink='http://www.w3.org/1999/xlink'
 version="1.1">
<rect x="0" y="0" width="6" height="200" stroke="black" stroke-width="1" fill="blue" tooltip="enable"><title>(0,38)</title></rect><rect x="6" y="94.7368" width="6" height="105.263" stroke="black" stroke-width="1" fill="blue" tooltip="enable"><title>(0.0370656,20)</title></rect><rect x="12" y="89.4737" width="6" height="110.526" stroke="black" stroke-width="1" fill="blue" tooltip="enable"><title>(0.0741313,21)</title></rect><rect x="18" y="52.6316" width="6" height="147.368" stroke="black" stroke-width="1" fill="blue" tooltip="enable"><title>(0.111197,28)</title></rect><rect x="24" y="126.316" width="6" height="73.6842" stroke="black" stroke-width="1" fill="blue" tooltip="enable"><title>(0.148263,14)</title></rect><rect x="30" y="126.316" width="6" height="73.6842" stroke="black" stroke-width="1" fill="blue" tooltip="enable"><title>(0.185328,14)</title></rect><rect x="36" y="147.368" width="6" height="52.6316" stroke="black" stroke-width="1" fill="blue" tooltip="enable"><title>(0.222394,10)</title></rect><rect x="42" y="142.105" width="6" height="57.8947" stroke="black" stroke-width="1" fill="blue" tooltip="enable"><title>(0.259459,11)</title></rect><rect x="48" y="163.158" width="6" height="36.8421" stroke="black" stroke-width="1" fill="blue" tooltip="enable"><title>(0.296525,7)</title></rect><rect x="54" y="142.105" width="6" height="57.8947" stroke="black" stroke-width="1" fill="blue" tooltip="enable"><title>(0.333591,11)</title></rect><rect x="60" y="157.895" width="6" height="42.1053" stroke="black" stroke-width="1" fill="blue" tooltip="enable"><title>(0.370656,8)</title></rect><rect x="66" y="184.211" width="6" height="15.7895" stroke="black" stroke-width="1" fill="blue" tooltip="enable"><title>(0.407722,3)</title></rect><rect x="72" y="152.632" width="6" height="47.3684" stroke="black" stroke-width="1" fill="blue" tooltip="enable"><title>(0.444788,9)</title></rect><rect x="78" y="168.421" width="6" height="31.5789" stroke="black" stroke-width="1" fill="blue" tooltip="enable"><title>(0.481853,6)</title></rect><rect x="84" y="157.895" width="6" height="42.1053" stroke="black" stroke-width="1" fill="blue" tooltip="enable"><title>(0.518919,8)</title></rect><rect x="90" y="152.632" width="6" height="47.3684" stroke="black" stroke-width="1" fill="blue" tooltip="enable"><title>(0.555985,9)</title></rect><rect x="96" y="157.895" width="6" height="42.1053" stroke="black" stroke-width="1" fill="blue" tooltip="enable"><title>(0.59305,8)</title></rect><rect x="102" y="152.632" width="6" height="47.3684" stroke="black" stroke-width="1" fill="blue" tooltip="enable"><title>(0.630116,9)</title></rect><rect x="108" y="173.684" width="6" height="26.3158" stroke="black" stroke-width="1" fill="blue" tooltip="enable"><title>(0.667181,5)</title></rect><rect x="114" y="168.421" width="6" height="31.5789" stroke="black" stroke-width="1" fill="blue" tooltip="enable"><title>(0.704247,6)</title></rect><rect x="120" y="173.684" width="6" height="26.3158" stroke="black" stroke-width="1" fill="blue" tooltip="enable"><title>(0.741313,5)</title></rect><rect x="126" y="184.211" width="6" height="15.7895" stroke="black" stroke-width="1" fill="blue" tooltip="enable"><title>(0.778378,3)</title></rect><rect x="132" y="157.895" width="6" height="42.1053" stroke="black" stroke-width="1" fill="blue" tooltip="enable"><title>(0.815444,8)</title></rect><rect x="138" y="173.684" width="6" height="26.3158" stroke="black" stroke-width="1" fill="blue" tooltip="enable"><title>(0.85251,5)</title></rect><rect x="144" y="157.895" width="6" height="42.1053" stroke="black" stroke-width="1" fill="blue" tooltip="enable"><title>(0.889575,8)</title></rect><rect x="150" y="168.421" width="6" height="31.5789" stroke="black" stroke-width="1" fill="blue" tooltip="enable"><title>(0.926641,6)</title></rect><rect x="156" y="194.737" width="6" height="5.26316" stroke="black" stroke-width="1" fill="blue" tooltip="enable"><title>(0.963706,1)</title></rect><rect x="162" y="184.211" width="6" height="15.7895" stroke="black" stroke-width="1" fill="blue" tooltip="enable"><title>(1.00077,3)</title></rect><rect x="168" y="168.421" width="6" height="31.5789" stroke="black" stroke-width="1" fill="blue" tooltip="enable"><title>(1.03784,6)</title></rect><rect x="174" y="189.474" width="6" height="10.5263" stroke="black" stroke-width="1" fill="blue" tooltip="enable"><title>(1.0749,2)</title></rect><rect x="180" y="168.421" width="6" height="31.5789" stroke="black" stroke-width="1" fill="blue" tooltip="enable"><title>(1.11197,6)</title></rect><rect x="186" y="168.421" width="6" height="31.5789" stroke="black" stroke-width="1" fill="blue" tooltip="enable"><title>(1.14903,6)</title></rect><rect x="192" y="178.947" width="6" height="21.0526" stroke="black" stroke-width="1" fill="blue" tooltip="enable"><title>(1.1861,4)</title></rect><rect x="198" y="178.947" width="6" height="21.0526" stroke="black" stroke-width="1" fill="blue" tooltip="enable"><title>(1.22317,4)</title></rect><rect x="204" y="168.421" width="6" height="31.5789" stroke="black" stroke-width="1" fill="blue" tooltip="enable"><title>(1.26023,6)</title></rect><rect x="210" y="189.474" width="6" height="10.5263" stroke="black" stroke-width="1" fill="blue" tooltip="enable"><title>(1.2973,2)</title></rect><rect x="216" y="178.947" width="6" height="21.0526" stroke="black" stroke-width="1" fill="blue" tooltip="enable"><title>(1.33436,4)</title></rect><rect x="222" y="189.474" width="6" height="10.5263" stroke="black" stroke-width="1" fill="blue" tooltip="enable"><title>(1.37143,2)</title></rect><rect x="228" y="178.947" width="6" height="21.0526" stroke="black" stroke-width="1" fill="blue" tooltip="enable"><title>(1.40849,4)</title></rect><rect x="234" y="189.474" width="6" height="10.5263" stroke="black" stroke-width="1" fill="blue" tooltip="enable"><title>(1.44556,2)</title></rect><rect x="240" y="189.474" width="6" height="10.5263" stroke="black" stroke-width="1" fill="blue" tooltip="enable"><title>(1.48263,2)</title></rect><rect x="246" y="173.684" width="6" height="26.3158" stroke="black" stroke-width="1" fill="blue" tooltip="enable"><title>(1.51969,5)</title></rect><rect x="252" y="173.684" width="6" height="26.3158" stroke="black" stroke-width="1" fill="blue" tooltip="enable"><title>(1.55676,5)</title></rect><rect x="258" y="194.737" width="6" height="5.26316" stroke="black" stroke-width="1" fill="blue" tooltip="enable"><title>(1.59382,1)</title></rect><rect x="264" y="189.474" width="6" height="10.5263" stroke="black" stroke-width="1" fill="blue" tooltip="enable"><title>(1.63089,2)</title></rect><rect x="270" y="200" width="6" height="0" stroke="black" stroke-width="1" fill="blue" tooltip="enable"><title>(1.66795,0)</title></rect><rect x="276" y="184.211" width="6" height="15.7895" stroke="black" stroke-width="1" fill="blue" tooltip="enable"><title>(1.70502,3)</title></rect><rect x="282" y="200" width="6" height="0" stroke="black" stroke-width="1" fill="blue" tooltip="enable"><title>(1.74208,0)</title></rect><rect x="288" y="184.211" width="6" height="15.7895" stroke="black" stroke-width="1" fill="blue" tooltip="enable"><title>(1.77915,3)</title></rect><rect x="294" y="200" width="6" height="0" stroke="black" stroke-width="1" fill="blue" tooltip="enable"><title>(1.81622,0)</title></rect><rect x="300" y="184.211" width="6" height="15.7895" stroke="black" stroke-width="1" fill="blue" tooltip="enable"><title>(1.85328,3)</title></rect><rect x="306" y="200" width="6" height="0" stroke="black" stroke-width="1" fill="blue" tooltip="enable"><title>(1.89035,0)</title></rect><rect x="312" y="194.737" width="6" height="5.26316" stroke="black" stroke-width="1" fill="blue" tooltip="enable"><title>(1.92741,1)</title></rect><rect x="318" y="200" width="6" height="0" stroke="black" stroke-width="1" fill="blue" tooltip="enable"><title>(1.96448,0)</title></rect><rect x="324" y="200" width="6" height="0" stroke="black" stroke-width="1" fill="blue" tooltip="enable"><title>(2.00154,0)</title></rect><rect x="330" y="194.737" width="6" height="5.26316" stroke="black" stroke-width="1" fill="blue" tooltip="enable"><title>(2.03861,1)</title></rect><rect x="336" y="200" width="6" height="0" stroke="black" stroke-width="1" fill="blue" tooltip="enable"><title>(2.07568,0)</title></rect><rect x="342" y="194.737" width="6" height="5.26316" stroke="black" stroke-width="1" fill="blue" tooltip="enable"><title>(2.11274,1)</title></rect><rect x="348" y="194.737" width="6" height="5.26316" stroke="black" stroke-width="1" fill="blue" tooltip="enable"><title>(2.14981,1)</title></rect><rect x="354" y="200" width="6" height="0" stroke="black" stroke-width="1" fill="blue" tooltip="enable"><title>(2.18687,0)</title></rect><rect x="360" y="200" width="6" height="0" stroke="black" stroke-width="1" fill="blue" tooltip="enable"><title>(2.22394,0)</title></rect><rect x="366" y="200" width="6" height="0" stroke="black" stroke-width="1" fill="blue" tooltip="enable"><title>(2.261,0)</title></rect><rect x="372" y="189.474" width="6" height="10.5263" stroke="black" stroke-width="1" fill="blue" tooltip="enable"><title>(2.29807,2)</title></rect><rect x="378" y="194.737" width="6" height="5.26316" stroke="black" stroke-width="1" fill="blue" tooltip="enable"><title>(2.33513,1)</title></rect><rect x="384" y="194.737" width="6" height="5.26316" stroke="black" stroke-width="1" fill="blue" tooltip="enable"><title>(2.3722,1)</title></rect><rect x="390" y="200" width="6" height="0" stroke="black" stroke-width="1" fill="blue" tooltip="enable"><title>(2.40927,0)</title></rect><rect x="396" y="194.737" width="6" height="5.26316" stroke="black" stroke-width="1" fill="blue" tooltip="enable"><title>(2.44633,1)</title></rect><rect x="402" y="200" width="6" height="0" stroke="black" stroke-width="1" fill="blue" tooltip="enable"><title>(2.4834,0)</title></rect><rect x="408" y="194.737" width="6" height="5.26316" stroke="black" stroke-width="1" fill="blue" tooltip="enable"><title>(2.52046,1)</title></rect><rect x="414" y="200" width="6" height="0" stroke="black" stroke-width="1" fill="blue" tooltip="enable"><title>(2.55753,0)</title></rect><rect x="420" y="194.737" width="6" height="5.26316" stroke="black" stroke-width="1" fill="blue" tooltip="enable"><title>(2.59459,1)</title></rect><rect x="426" y="194.737" width="6" height="5.26316" stroke="black" stroke-width="1" fill="blue" tooltip="enable"><title>(2.63166,1)</title></rect><rect x="432" y="200" width="6" height="0" stroke="black" stroke-width="1" fill="blue" tooltip="enable"><title>(2.66873,0)</title></rect><rect x="438" y="200" width="6" height="0" stroke="black" stroke-width="1" fill="blue" tooltip="enable"><title>(2.70579,0)</title></rect><rect x="444" y="200" width="6" height="0" stroke="black" stroke-width="1" fill="blue" tooltip="enable"><title>(2.74286,0)</title></rect><rect x="450" y="200" width="6" height="0" stroke="black" stroke-width="1" fill="blue" tooltip="enable"><title>(2.77992,0)</title></rect><rect x="456" y="200" width="6" height="0" stroke="black" stroke-width="1" fill="blue" tooltip="enable"><title>(2.81699,0)</title></rect><rect x="462" y="200" width="6" height="0" stroke="black" stroke-width="1" fill="blue" tooltip="enable"><title>(2.85405,0)</title></rect><rect x="468" y="194.737" width="6" height="5.26316" stroke="black" stroke-width="1" fill="blue" tooltip="enable"><title>(2.89112,1)</title></rect><rect x="474" y="200" width="6" height="0" stroke="black" stroke-width="1" fill="blue" tooltip="enable"><title>(2.92819,0)</title></rect><rect x="480" y="200" width="6" height="0" stroke="black" stroke-width="1" fill="blue" tooltip="enable"><title>(2.96525,0)</title></rect><rect x="486" y="194.737" width="6" height="5.26316" stroke="black" stroke-width="1" fill="blue" tooltip="enable"><title>(3.00232,1)</title></rect><rect x="492" y="200" width="6" height="0" stroke="black" stroke-width="1" fill="blue" tooltip="enable"><title>(3.03938,0)</title></rect><rect x="498" y="200" width="6" height="0" stroke="black" stroke-width="1" fill="blue" tooltip="enable"><title>(3.07645,0)</title></rect><rect x="504" y="200" width="6" height="0" stroke="black" stroke-width="1" fill="blue" tooltip="enable"><title>(3.11351,0)</title></rect><rect x="510" y="200" width="6" height="0" stroke="black" stroke-width="1" fill="blue" tooltip="enable"><title>(3.15058,0)</title></rect><rect x="516" y="200" width="6" height="0" stroke="black" stroke-width="1" fill="blue" tooltip="enable"><title>(3.18764,0)</title></rect><rect x="522" y="194.737" width="6" height="5.26316" stroke="black" stroke-width="1" fill="blue" tooltip="enable"><title>(3.22471,1)</title></rect><rect x="528" y="200" width="6" height="0" stroke="black" stroke-width="1" fill="blue" tooltip="enable"><title>(3.26178,0)</title></rect><rect x="534" y="200" width="6" height="0" stroke="black" stroke-width="1" fill="blue" tooltip="enable"><title>(3.29884,0)</title></rect><rect x="540" y="200" width="6" height="0" stroke="black" stroke-width="1" fill="blue" tooltip="enable"><title>(3.33591,0)</title></rect><rect x="546" y="200" width="6" height="0" stroke="black" stroke-width="1" fill="blue" tooltip="enable"><title>(3.37297,0)</title></rect><rect x="552" y="200" width="6" height="0" stroke="black" stroke-width="1" fill="blue" tooltip="enable"><title>(3.41004,0)</title></rect><rect x="558" y="200" width="6" height="0" stroke="black" stroke-width="1" fill="blue" tooltip="enable"><title>(3.4471,0)</title></rect><rect x="564" y="200" width="6" height="0" stroke="black" stroke-width="1" fill="blue" tooltip="enable"><title>(3.48417,0)</title></rect><rect x="570" y="200" width="6" height="0" stroke="black" stroke-width="1" fill="blue" tooltip="enable"><title>(3.52124,0)</title></rect><rect x="576" y="200" width="6" height="0" stroke="black" stroke-width="1" fill="blue" tooltip="enable"><title>(3.5583,0)</title></rect><rect x="582" y="200" width="6" height="0" stroke="black" stroke-width="1" fill="blue" tooltip="enable"><title>(3.59537,0)</title></rect><rect x="588" y="200" width="6" height="0" stroke="black" stroke-width="1" fill="blue" tooltip="enable"><title>(3.63243,0)</title></rect><rect x="594" y="194.737" width="6" height="5.26316" stroke="black" stroke-width="1" fill="blue" tooltip="enable"><title>(3.6695,1)</title></rect><text x="30" y="240" font-size="20" fill="black">0</text>
<text x="600" y="240" font-size="20" fill="black">3.70656</text>
<polyline points="0,220,600,220" stroke="black" stroke-width="1" fill="none"/>
<text x="720" y="20" font-size="20" fill="black">38</text>
<text x="720" y="200" font-size="20" fill="black">0</text>
<polyline points="660,0,660,200" stroke="black" stroke-width="1" fill="none"/>
</svg>