mtllib texturedMesh.mtl
v 2.388202 3.980190 15.803722
v 2.389540 3.981022 15.802131
v 2.338341 3.981940 15.802287
v 2.336068 3.983000 15.800481
v 2.393618 3.974008 15.818447
v 2.339491 3.975960 15.816831
vt 0.020629 0.951893
vt 0.040648 0.985173
vt 0.014021 0.955871
vt 0.090289 0.987402
vt 0.073242 0.953983
vt 0.084475 0.959071
vn 0.077298 -0.908812 -0.409983
vn 0.077298 -0.908812 -0.409983
vn -0.137023 -0.919908 -0.367414
vn -0.137023 -0.919908 -0.367414
vn 0.077298 -0.908812 -0.409983
vn -0.137023 -0.919908 -0.367414
usemtl material0000
f 2/1/2 5/2/5 1/3/1
f 6/4/6 4/5/4 3/6/3
