# 
# Wavefront OBJ file
# Created with AliceVision
# 
g Mesh
v -0.216045 -0.841806 3.033519
v -0.196465 -0.926925 3.125438
v 0.086800 -0.850643 3.036161
v -0.159665 1.022946 4.545029
v -0.237270 -0.919625 3.123032
v -0.120620 -0.902985 3.097914
v -0.270177 0.828839 4.476968
v 0.064980 -0.892864 3.085896
v -0.085271 1.080957 4.573079
v -0.126170 -0.993150 3.196537
v -0.083758 -1.131374 3.356913
v -0.104961 0.916321 4.465930
v 0.325968 1.021813 4.697448
v -0.136733 1.005130 4.513298
v 0.107892 -0.688258 3.078455
v -0.319265 0.917965 4.613840
v 0.071130 -0.699043 3.056701
v 0.135496 -0.901285 3.091258
v -0.252664 1.059585 4.683424
v 0.233652 0.994247 4.542779
v -0.250370 -0.935649 3.120469
v -0.221224 0.954714 4.534057
v 0.141415 -0.794279 3.069230
v 0.158479 0.824167 4.426456
v -0.486836 0.621968 4.611935
v 0.092339 0.878870 4.425862
v -0.237948 0.989060 4.590789
v -0.015200 1.088237 4.560333
v 0.045659 -1.114992 3.336307
v -0.309393 0.946521 4.634968
v -0.471406 0.819799 4.745253
v 0.110729 0.953198 4.451057
v -0.115832 1.062207 4.559614
v -0.073055 -0.877925 3.068016
v -0.127634 1.018544 4.514784
v 0.068583 -1.003985 3.206484
v 0.054836 1.040642 4.510052
v 0.273428 0.985512 4.581121
v -0.183023 1.024543 4.568864
v 0.029902 -0.960795 3.157601
v -0.159965 -0.981300 3.185924
v 0.095302 -0.764856 3.041875
v 0.083905 -1.011411 3.216920
v -0.251069 1.015162 4.630402
v 0.020462 1.101234 4.587043
v -0.189616 1.048969 4.600597
v 0.066008 -0.961498 3.159623
v -0.520014 0.687368 4.677932
v -0.376472 0.959654 4.743914
v 0.078624 -0.903509 3.098027
v -0.281447 -1.001136 3.193316
v -0.242930 -0.924752 3.105749
v -0.115738 1.034112 4.523197
v 0.128643 1.112794 4.628780
v 0.259257 -0.914667 3.241569
v -0.368850 1.040780 4.759913
v 0.055185 -0.944690 3.142089
v 0.256584 0.979273 4.553709
v 0.227622 -0.908944 3.107120
v 0.333720 0.983373 4.667026
v -0.305322 0.959574 4.644952
v 0.055041 -0.679912 3.074938
v -0.232392 -0.886197 3.078498
v -0.211894 -0.897934 3.094472
v -0.206168 -0.927342 3.128892
v 0.162691 1.014390 4.506226
v 0.071098 -1.033068 3.240891
v 0.101383 -0.930988 3.127495
v -0.288643 -0.828519 3.143152
v 0.215321 0.893585 4.435421
v -0.046800 1.044889 4.504868
v 0.254213 -0.897656 3.227309
v 0.163980 -0.975618 3.174329
v -0.444998 0.990375 4.746681
v -0.296018 -1.023529 3.224691
v -0.273265 -1.004334 3.217193
v 0.170105 0.995441 4.489756
v 0.002210 -0.900839 3.093063
v 0.218074 0.863173 4.430173
v -0.085885 -0.902706 3.096832
v -0.009475 1.163117 4.655346
v -0.134833 -0.702023 3.065285
v -0.027494 -1.056083 3.267464
v 0.231907 0.880378 4.445016
v 0.063390 -1.001407 3.203213
v -0.092524 1.017107 4.502837
v 0.090980 0.947580 4.448486
v -0.176469 -0.795035 3.027846
v -0.073520 -0.686482 3.060466
v -0.224528 -0.913491 3.112329
v 0.163918 -1.000599 3.202426
v -0.141867 -0.964584 3.165247
v -0.307994 0.865492 4.547415
v -0.232261 -0.874320 3.059221
v -0.244432 -1.124231 3.348626
v -0.209846 1.056686 4.629642
v 0.274153 1.066813 4.677463
v 0.120945 0.961559 4.459621
v 0.099482 -0.907087 3.101856
v 0.252115 0.691427 4.436557
v -0.294191 -1.053875 3.271651
v 0.034905 -1.115877 3.338487
v -0.154368 1.080710 4.610866
v 0.025233 1.027466 4.506648
v 0.081381 1.088109 4.576013
v 0.283635 1.024999 4.631599
v 0.234456 1.025211 4.579200
v 0.241728 -0.860924 3.167447
v -0.040301 0.624677 4.439619
v 0.197778 -0.685430 3.189554
v 0.135965 1.073748 4.577554
v 0.236815 -0.912624 3.155316
v 0.126532 -0.889050 3.074966
v -0.145506 1.060646 4.576308
v -0.259873 -0.911823 3.076959
v 0.250642 0.874397 4.459677
v -0.067222 -0.747717 3.024367
v -0.990386 1.266925 4.154513
v -0.173702 -1.025944 3.238410
v 0.102343 -0.868645 3.058448
v -0.228648 -0.940374 3.132740
v -0.135984 1.102159 4.629979
v 0.177150 0.935289 4.431774
v -0.131966 -0.985187 3.187721
v -0.175435 -0.849395 3.030299
v 0.209052 1.008483 4.534844
v 0.070127 -1.047829 3.257436
v -1.026716 1.644810 4.275863
v -0.497101 0.818122 4.715766
v -0.203146 -0.898356 3.093778
v -0.298156 0.824815 4.478521
v -0.231562 -0.988019 3.191286
v -0.165699 -0.933833 3.132128
v 0.261854 0.933498 4.522741
v 0.258613 -0.886910 3.227713
v -0.317466 0.889649 4.585842
v -0.005749 -0.867975 3.053196
v -0.118830 -1.082570 3.303191
v 0.096886 1.045653 4.507688
v 0.238397 1.054000 4.617829
v 0.029084 -0.816251 2.995251
v -0.325953 0.840179 4.564841
v -0.073241 1.043048 4.511224
v 0.387006 -0.381757 3.744719
v -0.302419 0.834718 4.512571
v -0.232192 0.903055 4.492969
v -0.033339 -0.755434 3.017827
v -0.029455 -1.117544 3.341317
v -0.043572 1.086876 4.564580
v -0.241181 1.088350 4.697659
v -0.265167 -0.870178 3.073539
v -0.210104 1.015811 4.587208
v -0.219480 -0.848734 3.035124
v -0.474249 0.695132 4.670054
v -0.273871 0.873602 4.507574
v -0.108274 -1.131977 3.357665
v -0.288755 -1.020568 3.235470
v -0.173428 -0.822065 3.011126
v 0.249537 1.008509 4.577010
v -0.314926 0.978319 4.702021
v -0.040800 -0.732137 3.028242
v -0.026130 -0.637508 3.098830
v -0.036636 -0.804458 2.995003
v 0.249185 -0.850231 3.186707
v 0.128396 0.936707 4.428025
v -1.121368 1.695424 4.201379
v -0.304059 0.849681 4.529916
v 0.147072 1.005150 4.487588
v -0.282237 1.033786 4.687293
v 0.153702 -1.051623 3.262209
v 0.094772 1.133326 4.631742
v -0.132518 1.028624 4.528028
v -0.125242 1.061711 4.563375
v 0.136604 -1.006980 3.211373
v 0.032714 1.017034 4.507999
v 0.181336 0.909695 4.412387
v 0.055398 0.995744 4.497747
v -0.271629 1.039645 4.679470
v 0.050408 1.132337 4.628074
v 0.236095 -0.802829 3.158161
v -0.191503 -0.838084 3.020049
v -0.311977 1.005323 4.707630
v 0.010137 -0.750350 3.033856
v -0.036753 -0.905297 3.100200
v -0.205096 -1.045010 3.263193
v -0.040993 -1.152381 3.380566
v -0.053150 -0.751115 3.021917
v -0.510559 0.569088 4.584124
v 0.193699 1.034473 4.555910
v -0.531023 1.333012 4.550660
v -0.138326 -0.936913 3.135370
v -0.318238 0.964576 4.688013
v 0.390604 0.914237 4.672259
v 0.062100 -0.917135 3.113884
v -0.060639 1.022143 4.496810
v -0.144219 -0.988793 3.193505
v 0.003662 1.162333 4.647935
v -0.299888 -0.822419 3.155277
v -0.017967 0.920555 4.456374
v -0.087524 -0.983678 3.183772
v -0.234167 0.892812 4.480270
v -0.237450 -0.905821 3.109451
v 0.053054 1.086629 4.567240
v -0.312682 0.798005 4.507048
v -0.032086 1.015537 4.503071
v -0.249137 1.010453 4.622913
v -0.242324 -0.917209 3.116742
v 0.106683 -1.146037 3.367250
v -0.179272 1.129207 4.674472
v 0.121517 1.026041 4.496292
v -0.300342 0.892851 4.564369
v -0.177898 -1.002630 3.210279
v 0.288341 0.973956 4.594169
v -0.169025 1.065970 4.603333
v 0.017737 1.068434 4.526784
v 0.261904 0.882036 4.480643
v -0.070004 1.065834 4.540925
v 0.230594 -0.844900 3.143925
v -0.223028 -0.846735 3.033877
v -0.165573 1.161618 4.689835
v 0.007821 -1.094770 3.313736
v -0.253611 0.973052 4.591361
v -0.184800 -0.981711 3.185135
v -0.416429 0.717906 4.631590
v -0.034752 1.001779 4.503641
v -0.009899 1.054021 4.506634
v 0.258675 -0.927479 3.238796
v -0.215393 1.068102 4.651466
v -0.210166 -0.942007 3.145310
v -0.028872 -0.901187 3.096745
v -0.122700 -0.976851 3.177897
v -0.070206 -0.900828 3.094111
v 0.274523 1.030398 4.626397
v -0.069406 1.084618 4.570771
v -0.185011 1.039563 4.586190
v 0.030462 -1.014306 3.216187
v 0.121050 -0.883885 3.070586
v 0.171870 0.967584 4.463107
v -0.374984 0.944656 4.742958
v -0.215347 1.118508 4.697243
v -0.002281 0.940398 4.459390
v -0.236586 -0.851533 3.036983
v -0.175957 1.067919 4.610806
v -0.064669 -0.929662 3.125277
v 0.221800 -0.917647 3.106231
v -0.153169 -0.755682 3.035872
v -0.172687 1.076362 4.619176
v 0.108657 0.941968 4.436960
v 0.037984 -0.907455 3.101416
v -0.082430 1.103476 4.598774
v -0.026803 -0.883715 3.073704
v -0.487455 0.546393 4.558469
v 0.077100 -1.020772 3.226622
v -0.172189 1.068819 4.608355
v -0.231809 0.968506 4.562906
v -0.301663 -0.888836 3.108413
v 0.227937 -0.829683 3.142476
v 0.095551 -0.730151 3.046284
v 0.019484 -0.700071 3.054605
v 0.077870 1.076658 4.554769
v -0.173766 -0.959296 3.161520
v -0.535435 0.619949 4.625103
v -0.137717 1.022839 4.526903
v -0.371390 0.543357 4.531210
v 0.147972 0.979467 4.469731
v -0.245583 0.963797 4.574129
v -0.098948 -1.101793 3.324293
v -0.485862 0.947870 4.742857
v -0.034950 -0.951800 3.147553
v -0.214243 -0.901840 3.098989
v 0.247385 -0.822576 3.171616
v 0.324416 0.981815 4.648315
v -0.091799 -0.950961 3.148963
v -0.021866 0.991847 4.498195
v -0.014010 -0.731016 3.033792
v 0.085261 -1.007119 3.211601
v -0.196690 -0.920786 3.118279
v 0.288773 0.950996 4.579279
v -0.316508 0.913005 4.604144
v -0.224623 1.093034 4.690885
v -0.313428 0.953250 4.659960
v 0.036760 -1.147089 3.372219
v 0.199198 -0.821397 3.114334
v 0.125530 1.060437 4.547596
v -0.136131 1.063229 4.573207
v -0.294947 0.474218 4.450097
v 0.031164 -0.854639 3.036403
v -0.174637 -0.992175 3.198524
v -0.034164 1.074119 4.537701
v 0.167589 -1.090358 3.304034
v 0.051174 1.017111 4.506401
v -0.232571 1.058352 4.659344
v -0.060804 -0.893779 3.086153
v -0.003876 -0.988880 3.187366
v 0.041182 -1.128127 3.351113
v 0.281863 0.979032 4.586591
v 0.137247 1.033429 4.512607
v 0.095304 0.937644 4.434239
v -0.510266 0.732336 4.702719
v 0.372241 0.967621 4.691931
v 0.076141 1.005536 4.498935
v -0.218166 -0.882761 3.074936
v 0.202881 0.994632 4.514009
v 0.043251 0.969666 4.476320
v 0.302740 0.786927 4.467918
v -0.172817 0.923005 4.477250
v 0.077584 1.052293 4.516038
v -0.428511 -0.533983 3.307971
v -0.208973 0.794249 4.487317
v -0.367538 0.919145 4.715775
v 0.353331 0.933571 4.649728
v -0.127455 1.025583 4.521250
v -0.024642 -0.902452 3.097289
v 0.046297 -0.925124 3.121525
v 0.114506 -0.894687 3.085258
v -0.042081 -1.160037 3.389630
v -0.200476 -0.867297 3.054604
v -0.245875 -0.862774 3.046627
v 0.045855 -0.996391 3.197009
v 0.102645 1.061704 4.538280
v -0.145610 -0.947295 3.146954
v 0.258536 0.910792 4.499255
v 0.223077 1.085420 4.656396
v -0.031852 -0.786856 2.994815
v 0.194757 0.924137 4.437741
v -0.134257 1.017783 4.518783
v 0.314635 1.009817 4.650682
v -0.210193 -0.902938 3.098605
v 0.123834 -1.029683 3.237072
v 0.256372 -0.925084 3.240669
v -0.122138 1.119290 4.640585
v 0.218152 0.913662 4.455779
v 0.071299 -0.784758 3.023623
v -0.144805 -0.983353 3.187025
v -0.374829 0.842526 4.649204
v -0.027549 1.071151 4.530728
v 0.299083 0.928624 4.572178
v -0.428692 0.926002 4.746828
v -0.175085 1.162070 4.665539
v -0.288957 0.829123 4.482313
v -0.259850 0.860459 4.481251
v 0.126068 -0.836120 3.057167
v 0.179515 0.977809 4.477469
v 0.223931 1.038205 4.586900
v -0.308386 0.933557 4.615702
v -0.557344 0.615853 4.613619
v -0.304595 0.870370 4.547406
v 0.050067 1.073871 4.542107
v -0.095325 -0.924431 3.120894
v 0.008937 0.953648 4.468013
v 0.030980 1.001203 4.499147
v 0.098301 1.015664 4.488495
v 0.188203 -0.934021 3.122539
v -0.479823 0.507187 4.337557
v -0.301135 -0.884078 3.112030
v -0.122838 -0.745795 3.033262
v -0.034662 -1.157867 3.386019
v -0.100670 1.069156 4.562729
v 0.068225 1.126559 4.624118
v -0.273267 -0.984292 3.180643
v 0.124226 -0.881920 3.069407
v 0.101391 0.951344 4.451421
v -0.106633 -0.881095 3.072126
v 0.145917 -0.864189 3.068173
v -0.247341 1.056397 4.672056
v -0.205569 1.093510 4.663657
v -0.317616 0.926697 4.618323
v -0.285581 1.043752 4.704116
v 0.205379 0.887337 4.422851
v -0.239933 -0.906810 3.090742
v 0.056561 -1.128087 3.350238
v 0.113784 0.921052 4.416790
v -0.000191 1.140081 4.629815
v -0.351574 0.922125 4.717910
v 0.247996 -0.885414 3.207199
v 0.095947 -0.896488 3.090004
v -0.223219 -0.896228 3.095033
v 0.242226 -0.901620 3.189749
v 0.202943 1.020126 4.543829
v -0.059101 -0.842174 3.022691
v -0.062589 1.034745 4.496952
v -0.475980 0.630381 4.622899
v 0.141022 -0.715550 3.080604
v -0.210681 -0.892146 3.088189
v -0.218485 -0.873013 3.060048
v 0.255339 0.870044 4.455337
v 0.080963 -0.998280 3.201792
v -0.345626 -0.834466 3.177097
v 0.350195 0.847780 4.572023
v 0.266618 0.955142 4.547857
v 0.113661 -0.886277 3.077042
v -0.377128 0.936178 4.739331
v 0.135784 1.061285 4.555394
v -0.110118 1.140533 4.645342
v 0.123220 -0.902265 3.093294
v 0.010235 -1.111270 3.333430
v 0.002282 -0.747378 3.032726
v 0.007818 1.046568 4.506346
v -0.138123 1.133074 4.661677
v -0.430524 0.878792 4.715568
v -0.112060 1.051045 4.541394
v -0.019079 -1.013637 3.217002
v 0.114338 -0.670587 3.091481
v 0.142235 -0.884587 3.069898
v -0.011426 -0.942957 3.138030
v 0.111390 -0.917850 3.112708
v 0.276841 -0.088005 3.908518
v -0.067152 1.074848 4.554421
v -0.234543 -0.837672 3.040945
v 0.252707 0.856563 4.441622
v -0.403027 0.801636 4.651858
v -0.097894 1.038259 4.516633
v -0.016757 -1.147774 3.374862
v 0.171537 0.919109 4.414775
v -0.165553 1.133811 4.676541
v 0.009890 -0.795141 2.995641
v -0.105175 -0.973593 3.173621
v -0.105365 1.061385 4.552175
v 0.215450 -0.750164 3.147575
v 0.167206 -0.826980 3.076870
v 0.122200 1.048974 4.527000
v -0.199971 -0.901369 3.094839
v -0.233057 0.939859 4.533399
v -0.243981 0.975902 4.583422
v 0.100784 -1.013903 3.220585
v -0.312836 -0.702592 3.257371
v -0.032954 -0.668090 3.081474
v -0.314132 0.867911 4.561809
v 0.281326 1.060138 4.662416
v -0.219178 -0.837383 3.032526
v 0.272712 0.931426 4.540410
v -0.228221 1.042053 4.633934
v -0.332172 0.804246 4.534813
v -0.219663 -1.044329 3.263141
v -0.254722 0.887704 4.498197
v -0.282483 1.004163 4.656841
v 0.387105 -0.383200 3.744738
v -0.242658 -0.918369 3.100085
v -0.267869 -0.900366 3.096165
v -0.066872 -0.771019 3.005138
v -0.313302 1.010650 4.724122
v -0.063863 -1.078782 3.296146
v 0.028786 -0.718466 3.035415
v -0.263435 1.097181 4.714763
v -0.037742 -0.897791 3.092135
v -0.282490 0.951096 4.602693
v -0.050486 -0.780520 2.998288
v -0.329703 0.995875 4.735718
v -0.195579 -0.941587 3.140447
v -0.138974 -0.813726 3.006251
v -0.300115 0.978149 4.656341
v -0.360116 1.085475 4.745912
v -0.299247 1.017077 4.694117
v 0.073132 0.939272 4.443553
v 0.086596 0.960170 4.463947
v 0.190308 1.016786 4.528485
v -0.472110 0.658966 4.642018
v -0.039056 1.077598 4.547009
v -0.181044 0.883636 4.470770
v -0.124552 1.098712 4.616291
v -0.045146 1.026892 4.499715
v 0.261907 -0.898220 3.235617
v -0.308507 0.781001 4.498212
v -0.012430 1.077252 4.536198
v -0.103591 -0.623452 3.145156
v -0.270591 -0.919197 3.072916
v -0.254247 -1.014311 3.228620
v 0.105323 -0.894663 3.086533
v 0.165794 0.936553 4.428050
v 0.083449 -0.840430 3.025278
v -0.137431 -0.916157 3.112944
v -0.528422 1.073469 4.661584
v -0.527972 0.541311 4.516329
v -0.106359 -0.839360 3.019319
v -0.134857 -1.138323 3.366073
v -0.242902 0.908812 4.506424
v 0.103954 0.956693 4.458907
v -0.219017 0.993956 4.574170
v 0.240708 0.936554 4.497227
v 0.111026 1.046214 4.515779
v -0.186486 -0.885963 3.075414
v -0.175684 -1.060765 3.279569
v -0.224688 0.855380 4.469807
v -0.139114 -1.124188 3.351199
v 0.262394 -0.887840 3.235549
v -0.101727 -0.967817 3.167639
v -0.137232 1.053280 4.560155
v -0.144882 -1.084073 3.305477
v 0.245174 -0.805831 3.170053
v 0.060230 1.068723 4.535172
v -0.217293 -0.893278 3.091383
v -0.349200 0.956710 4.725586
v -0.385644 0.988943 4.740829
v -0.205975 -0.896003 3.093603
v 0.078295 -0.915874 3.112239
v -0.160219 1.063494 4.592039
v -0.227571 -0.848967 3.035803
v 0.241696 0.814078 4.441182
v -0.554551 0.703235 4.572719
v 0.093441 0.929402 4.426455
v -0.023096 1.060090 4.513922
v 0.242939 -0.843288 3.169426
v -0.223817 -1.061544 3.281263
v -0.162272 1.113500 4.657375
v -0.147057 1.131675 4.675266
v -0.001734 -0.660501 3.086464
v 0.179726 -1.013730 3.217725
v -0.149259 1.098403 4.633791
v 0.122649 -0.874762 3.063608
v -1.141858 1.690591 4.218411
v -0.329026 0.908689 4.629744
v -0.265887 1.013285 4.645413
v 0.003109 1.005658 4.499025
v -0.188429 0.938045 4.487977
v 0.168367 -0.900950 3.091754
v -0.059960 0.200883 4.159272
v -0.302566 1.026836 4.715369
v -0.126214 -0.955526 3.156310
v -0.162564 -0.879059 3.068882
v 0.173456 1.064912 4.586202
v -0.079364 -1.016984 3.221711
v -0.205532 -0.901550 3.096845
v -0.349190 0.884877 4.650026
v -0.332035 0.974042 4.725782
v -0.443757 0.953590 4.752075
v -0.111517 -0.987489 3.189124
v 0.085941 1.025098 4.493920
v 0.243306 -0.873971 3.180581
v 0.232684 -0.888587 3.139855
v -0.324283 0.926220 4.643082
v 0.109172 1.014857 4.487583
v 0.419912 0.891858 4.682206
v -0.022930 -0.907294 3.101964
v 0.135243 -0.895765 3.083621
v 0.106957 1.085306 4.580932
v -0.247824 -0.771531 3.094367
v -0.130379 -0.979685 3.181944
v 0.132820 -0.881994 3.068253
v -0.238959 1.013178 4.615305
v -0.109646 1.103642 4.611118
v 0.243415 -0.892091 3.202850
v 0.086917 1.031213 4.494409
v 0.006813 -0.742190 3.040666
v 0.260646 -0.895370 3.237033
v -0.296624 0.821225 4.480768
v 0.055203 1.111100 4.602650
v 0.074268 1.149811 4.676753
v 0.285111 0.985649 4.595958
v -0.065607 1.060075 4.528705
v -0.145413 -0.938004 3.138213
v -0.402003 0.943878 4.751290
v -0.291147 0.843733 4.493076
v -0.302903 0.922721 4.597311
v -0.201131 0.971847 4.529302
v -1.155118 1.693216 4.223403
v -0.043301 1.006438 4.500299
v -0.324408 0.891262 4.598019
v -0.478902 0.668729 4.669834
v -0.241428 -0.861636 3.037595
v 0.200672 -0.851704 3.103050
v -0.309230 0.809619 4.495445
v 0.327031 0.931398 4.614601
v 0.198372 0.946058 4.462127
v -0.131561 1.030958 4.530420
v 0.070095 -0.876327 3.062870
v -0.332521 0.905872 4.646235
v 0.131795 -0.924240 3.117344
v -0.158592 1.047636 4.571455
v -0.231916 -1.029698 3.246828
v 0.257726 -0.917701 3.226494
v -0.213137 -1.129945 3.354812
v 0.244488 -0.889464 3.207813
v 0.202437 -0.907071 3.099254
v -0.419806 0.962014 4.746906
v -0.300438 0.861300 4.532681
v -0.078242 -0.721008 3.035746
v -0.153857 -1.108016 3.334034
v -0.165676 1.073248 4.609379
v 0.182773 0.887828 4.418552
v 0.281776 0.908236 4.530919
v 0.132744 1.119827 4.654124
v -0.047650 -1.089034 3.308662
v 0.057878 -0.712320 3.054327
v -0.187137 -0.833957 3.013374
v 0.138189 1.040932 4.524824
v 0.096973 0.999750 4.488530
v 0.137616 -0.776649 3.063605
v -0.314621 1.015254 4.723469
v -0.317264 0.931243 4.625829
v 0.251611 -0.919019 3.223511
v -0.201236 -0.888921 3.081085
v -0.047718 1.058206 4.518668
v -0.169095 -0.986707 3.193132
v 0.128992 -0.992831 3.195386
v -0.275725 -1.025509 3.241182
v -0.268846 -0.627164 3.252302
v -0.253218 1.079894 4.704344
v -0.258296 1.055169 4.683573
v -0.025458 1.139067 4.627739
v 0.106270 1.106745 4.614371
v -0.693303 0.559501 4.056590
v -0.054764 0.857972 4.454933
v -0.257353 -0.929756 3.124606
v -0.363385 -0.817450 3.186752
v -0.067726 -1.104452 3.326458
v 0.186369 -0.999126 3.200001
v 0.151963 -1.067468 3.280970
v -0.461519 1.044306 4.761973
v -0.165030 -0.835613 3.011257
v -0.070268 1.158874 4.649535
v 0.179338 0.949169 4.448897
v 0.052219 -0.706542 3.049906
v -0.298606 0.828613 4.494179
v 0.093563 0.942336 4.440405
v 0.245759 0.904962 4.474759
v 0.380844 0.871980 4.648204
v 0.146493 0.949800 4.440398
v -0.481995 0.674956 4.661595
v -0.457175 0.686784 4.666273
v 0.103439 1.026765 4.489118
v 0.194736 -0.999435 3.199534
v 0.030215 1.141303 4.633498
v -0.017698 1.006961 4.501307
v 0.132581 -0.685321 3.081698
v -0.429857 0.998253 4.744979
v 0.105121 0.963369 4.466792
v -0.177707 -1.131561 3.358007
v -0.289305 0.880599 4.538709
v 0.130306 1.065708 4.559199
v 0.127552 -0.962261 3.159896
v -0.224839 0.065092 3.982658
v 0.012775 -0.893646 3.085077
v 0.087965 1.015007 4.494577
v -0.049901 -1.111812 3.334628
v -0.148690 -0.991625 3.196703
v -0.136049 -0.971580 3.172973
v -0.055775 1.077802 4.553816
v 0.141401 -1.019578 3.225321
v -0.274561 -0.780210 3.128613
v -0.214615 1.054859 4.633553
v -0.109102 -0.852645 3.037125
v -0.364685 0.673965 4.578557
v -0.313050 0.986500 4.707698
v -0.276986 0.886856 4.531260
v -0.140408 -1.025044 3.234232
v -0.099680 -0.998887 3.201780
v -0.272721 -0.971401 3.165551
v -0.238296 0.976744 4.578753
v 0.071685 -1.009721 3.214020
v 0.085482 -0.869237 3.057007
v -0.030026 1.053496 4.509978
v -0.302677 0.967385 4.649489
v -1.061143 1.517233 4.217535
v -0.270599 -0.905743 3.067134
v -0.205683 1.070264 4.643015
v 0.144035 -0.744801 3.078099
v 0.090649 -1.037541 3.247165
v 0.308829 1.027827 4.663231
v -0.084932 1.085979 4.579709
v -0.040336 -1.077059 3.294260
v 0.165419 0.960237 4.452950
v -0.125290 -0.985919 3.188405
v 0.015840 -1.127940 3.352131
v -0.274890 -1.049443 3.266814
v -0.111635 0.983517 4.492335
v 0.146679 -0.900845 3.088047
v -0.313751 0.922195 4.609115
v -0.087432 0.953249 4.478214
v 0.061282 -0.745410 3.040373
v -0.006073 -1.126591 3.352203
v -0.244656 -0.856718 3.038579
v 0.218483 -0.938583 3.125601
v -0.236999 -1.115347 3.338965
v -0.289695 -0.893669 3.080311
v 0.089105 -1.026450 3.234185
v -0.116100 1.007718 4.502126
v 0.076276 1.025694 4.501393
v 0.257209 -0.889402 3.221745
v 0.320578 0.963046 4.632113
v -0.279461 0.933459 4.581272
v -0.015462 0.942692 4.464371
v 0.041928 -0.714446 3.045334
v -0.142695 1.070835 4.588824
v 0.098171 -1.086121 3.301852
v 0.294107 0.989923 4.612995
v -0.111560 -0.933875 3.132104
v -0.259225 1.064261 4.693341
v -0.096558 1.085150 4.582677
v 0.011488 1.127930 4.621189
v 0.069258 0.888552 4.428869
v 0.210894 -0.956775 3.146350
v 0.098896 0.973765 4.476926
v -0.179917 -0.728526 3.065443
v 0.209063 -0.865702 3.110490
v -0.146853 -0.903589 3.097936
v 0.296434 1.045069 4.674715
v -0.380479 0.422752 4.397717
v -0.005995 -0.549295 3.251870
v 0.000228 -0.734526 3.031824
v -0.310527 -0.853880 3.169624
v -0.108124 -1.046815 3.259683
v -0.402609 0.970451 4.750803
v 0.187860 -0.754562 3.121227
v 0.157795 1.035226 4.529959
v -0.026877 -1.086728 3.305345
v -0.023383 1.076779 4.539502
v -0.156995 -1.042216 3.256568
v -0.048013 -0.887415 3.079791
v -0.258454 0.901707 4.523910
v -0.160817 -1.128500 3.355379
v 0.100998 0.946124 4.443707
v 0.126237 -1.115500 3.333243
v 0.020558 -0.737707 3.033972
v -0.034940 -1.105711 3.327935
v 0.151367 0.890976 4.414201
v 0.201401 -0.885469 3.094794
v -0.180253 -0.757293 3.050827
v 0.224452 -0.804025 3.142465
v 0.108218 0.947641 4.445100
v -0.366554 0.284064 4.054929
v 0.079003 0.983045 4.486676
v 0.214996 0.959801 4.489952
v -0.143087 1.112148 4.649632
v -0.484081 0.557967 4.562966
v -0.229955 -0.860775 3.043035
v 0.191078 0.984013 4.492042
v -0.366951 0.753921 4.578156
v -0.294125 0.936168 4.601130
v -0.208104 -0.840150 3.030790
v -0.290747 1.016744 4.679484
v -0.043821 1.072667 4.538945
v 0.166528 -0.741154 3.097956
v -0.216594 0.908725 4.482511
v -0.253244 0.833135 4.470560
v 0.138016 -0.890046 3.074851
v -0.283805 0.909976 4.563528
v 0.239466 1.033026 4.594741
v -0.061608 -1.000147 3.201448
v -0.151665 0.974374 4.498505
v -0.215487 -0.913086 3.110882
v 0.079899 -0.935073 3.132786
v -0.016402 -0.746947 3.023506
v -0.154552 -0.811246 3.009383
v 0.104800 -1.048373 3.259892
v -0.237262 -0.645953 3.196080
v -0.326040 0.898474 4.611476
v -0.128405 -1.103720 3.328689
v -0.171573 -0.907974 3.103464
v -0.244313 -0.828537 3.055239
v -0.470680 -0.435862 3.386749
v -0.194775 0.999906 4.554540
v -0.255321 1.046134 4.668057
v 0.044318 -1.102252 3.321400
v -0.130382 1.024321 4.522765
v 0.191331 0.768362 4.455428
v 0.247217 0.975091 4.535718
v -0.229435 0.981706 4.573347
v -0.206218 -0.906196 3.101668
v 0.070455 -1.026374 3.233089
v -0.115488 -0.981911 3.183094
v 0.126024 -1.063939 3.276618
v -0.246221 -0.928022 3.119225
v 0.170744 0.903397 4.407583
v -0.441239 1.049739 4.761642
v -0.056294 -0.730250 3.031684
v 0.008202 -0.765878 3.021096
v -0.229633 -0.918939 3.118279
v -0.186521 -1.038296 3.254199
v 0.253303 0.949125 4.519933
v 0.092279 -0.988842 3.189586
v -0.237403 1.074772 4.685589
v 0.148353 1.097982 4.618954
v 0.026021 1.053138 4.513469
v -0.477115 0.545290 4.581688
v 0.147673 -0.892346 3.078841
v 0.074464 1.065342 4.533524
v -0.157302 -0.987023 3.191524
v -1.086878 1.441596 4.201127
v -0.239525 -1.097462 3.320283
v 0.046643 -0.875661 3.062094
v 0.132970 0.925305 4.415859
v -0.118958 -0.972028 3.172829
v 0.280353 1.002280 4.605568
v -0.014669 1.079743 4.543118
v -0.021473 0.980611 4.490848
v -0.195060 -0.829159 3.020663
v -0.059127 0.984646 4.488477
v -0.054016 -0.876917 3.065542
v -0.215836 -0.786293 3.065727
v -0.170580 1.034960 4.567658
v -0.209532 -0.933793 3.135501
v -0.146294 -0.857642 3.041812
v -0.008199 1.078588 4.541429
v 0.058590 -0.796043 3.012951
v 0.093073 -0.885621 3.075255
v 0.097718 -0.636574 3.144695
v 0.186379 0.963884 4.468348
v -0.222322 -0.909136 3.108172
v -0.254062 1.003635 4.621880
v -0.211439 1.059967 4.635347
v -0.140580 -0.959662 3.160240
v 0.138617 0.912295 4.409757
v 0.107803 1.094095 4.595070
v -0.104834 -0.814297 3.000842
v -0.144266 1.164337 4.683469
v 0.033926 -0.666408 3.075524
v 0.257461 0.940138 4.520836
v -0.067635 -0.960868 3.158372
v -0.007285 -0.746833 3.027899
v 0.286056 0.889519 4.508450
v 0.124112 1.000758 4.483902
v 0.108771 0.968348 4.470301
v -0.031119 -0.896161 3.090411
v 0.072898 0.846739 4.444259
v -0.137641 0.948257 4.482954
v 0.140127 -1.079656 3.295392
v -0.188063 1.080640 4.633676
v -0.383141 1.017623 4.754844
v -0.093000 -0.972666 3.172096
v -0.295530 0.970661 4.639993
v -0.498879 0.545378 4.529401
v 0.138781 -1.083007 3.296579
v -0.193648 -1.100715 3.324623
v 0.054927 -0.727638 3.044076
v -0.196192 -0.735933 3.076208
v -0.035061 1.038034 4.504605
v -0.266746 1.031155 4.664154
v -0.292752 -0.902186 3.138984
v -0.029167 -0.920117 3.114794
v -0.296186 0.916296 4.583157
v 0.068800 -0.863796 3.046535
v -0.211118 1.101927 4.684828
v 0.327632 1.013528 4.673209
v 0.247061 -0.896987 3.213324
v -0.280397 1.025914 4.675258
v -0.234523 0.952438 4.550032
v -0.284046 -0.661002 3.233952
v 0.231093 0.970743 4.515469
v 0.238002 0.888802 4.453868
v 0.233178 -0.921852 3.107355
v 0.267192 0.869718 4.467466
v 0.220168 -0.895965 3.104798
v -0.434594 1.007430 4.750989
v 0.026854 -1.067252 3.280551
v -0.270281 0.902068 4.539455
v 0.157777 1.069804 4.584364
v -0.226451 0.926803 4.507984
v 0.015891 -0.934146 3.129473
v -1.100102 1.686852 4.214245
v -0.202427 0.948353 4.507431
v 0.166426 1.054307 4.566207
v -0.122205 -1.123645 3.349778
v 0.154628 -0.777905 3.073946
v -0.201207 0.926868 4.488601
v 0.194580 0.967739 4.478695
v -0.216432 1.060600 4.642482
v -0.150222 -0.974344 3.175887
v -0.300614 0.993726 4.675137
v 0.021218 1.133216 4.622401
v -0.188608 -0.932762 3.133452
v -0.051737 1.073857 4.544181
v 0.232718 -0.909023 3.124255
v 0.037133 -0.696825 3.051321
v -0.266675 -1.019447 3.234490
v -0.051946 -0.908336 3.102580
v 0.208698 -0.994171 3.192148
v -0.295522 0.853914 4.518277
v 0.093506 1.054965 4.521159
v -0.017966 1.070509 4.527641
v -0.215229 0.981203 4.557561
v 0.001845 -0.792782 2.995264
v -0.196423 -1.076627 3.297882
v 0.173889 1.095250 4.622793
v -0.360089 0.903167 4.688693
v 0.133910 -0.885435 3.070625
v 0.364814 0.990897 4.700291
v -0.124774 -0.982177 3.183772
v 0.123463 -1.126444 3.343364
v -0.037673 -1.083288 3.301379
v -0.321514 0.874959 4.591310
v 0.046395 -0.918787 3.115047
v -0.004296 1.049299 4.504810
v -0.153984 1.143436 4.678920
v -0.012798 0.959665 4.475079
v -0.285265 -0.848297 3.122534
v -0.001677 1.029732 4.502707
v -0.267199 -0.736586 3.139822
v 0.049354 -1.023429 3.228839
v -0.158584 -1.019293 3.228604
v -0.152681 -1.012282 3.220239
v -0.169744 0.990757 4.523652
v -0.313382 0.996370 4.711299
v -0.122167 -1.011985 3.218088
v -0.164277 -1.016153 3.225703
v 0.348143 1.007155 4.692377
v 0.176902 -0.868114 3.084407
v 0.051410 -0.970237 3.168163
v -0.035194 -0.982433 3.180986
v -0.924415 1.414954 4.316784
v 0.104646 -0.967647 3.166753
v -0.065449 -0.787019 3.000530
v 0.066069 -0.929798 3.127165
v 0.188949 0.896566 4.412582
v -0.145282 -1.029035 3.239377
v 0.044990 -0.722136 3.049925
v 0.035502 1.073983 4.539787
v -0.208151 1.081065 4.660528
v 0.254730 0.936446 4.513106
v 0.002626 1.059089 4.512144
v -0.392311 -0.744670 3.237896
v 0.050509 1.062465 4.525436
v 0.141791 -0.906600 3.096530
v 0.004876 -0.753124 3.031572
v -0.220884 -0.843270 3.032694
v 0.274239 0.969320 4.569114
v -0.010485 -0.714857 3.030151
v -0.323246 0.923045 4.626261
v -0.050290 1.167202 4.654867
v 0.039523 -0.708585 3.051012
v 0.217882 -0.832733 3.129351
v 0.113920 1.072613 4.561697
v -0.314663 0.991405 4.703762
v -0.120024 -0.962521 3.162622
v -0.012443 -0.891445 3.083974
v -0.255571 -0.886999 3.073672
v -0.556693 0.897643 4.752130
v 0.072980 -0.970067 3.169374
v 0.373989 0.910094 4.654828
v 0.148210 1.079411 4.594014
v -0.239727 0.955992 4.559561
v 0.104565 -0.954935 3.153956
v -0.204930 -0.895009 3.090673
v 0.247550 -0.664546 3.287903
v 0.263323 -0.912852 3.247187
v 0.120958 0.930256 4.420916
v -1.104149 1.664276 4.244705
v 0.306923 1.046534 4.695088
v 0.093756 -0.949709 3.146881
v 0.118656 -1.076974 3.293149
v 0.217076 0.882695 4.432449
v -0.248621 1.036711 4.650174
v -0.278183 -0.806848 3.115722
v -0.255758 0.934046 4.554949
v 0.083346 0.920455 4.426576
v -0.055244 -1.155905 3.382449
v -0.230234 -0.962642 3.152463
v 0.141851 1.047311 4.537201
v -0.204141 1.046946 4.614218
v 0.028743 0.913079 4.441823
v -0.106544 -0.977883 3.178595
v -0.279990 -0.901106 3.109063
v 0.038403 -0.708612 3.037553
v 0.199050 -0.997963 3.197632
v -0.135181 1.042571 4.545620
v 0.013329 -0.906011 3.099392
v 0.280524 0.943042 4.561999
v -0.303086 -0.964652 3.176107
v -0.256973 -0.921030 3.111746
v 0.196778 -0.869067 3.092757
v -0.139053 1.087069 4.610088
v -0.216369 1.098953 4.685556
v 0.156537 -0.709236 3.104143
v 0.013586 1.082157 4.550574
v 0.216441 -0.783201 3.137562
v 0.108513 -0.438543 3.443233
v 0.110919 0.933436 4.426371
v -0.260605 -1.096775 3.317016
v -0.177735 1.057466 4.600206
v -0.454190 0.592083 4.590059
v -0.223072 -0.840028 3.033997
v 0.220415 1.019311 4.558987
v -0.309797 0.906892 4.589402
v 0.349791 1.010777 4.712691
v -0.288375 -0.856424 3.142047
v -0.039120 1.068428 4.530145
v -0.265916 0.985737 4.618129
v -0.399881 0.937028 4.757444
v -0.126193 -0.836235 3.017261
v -0.241244 0.919708 4.523164
v -0.448356 0.563129 4.566730
v -0.058049 1.036792 4.498109
v 0.024152 -0.983436 3.181853
v -0.221521 -1.011810 3.222799
v -0.308202 0.857841 4.542204
v 0.258464 -0.926635 3.245513
v 0.260209 -0.926219 3.243594
v 0.082455 -0.921583 3.118676
v 0.063823 1.073001 4.543943
v 0.085859 1.039750 4.501517
v 0.251347 1.062656 4.639439
v -0.253364 -0.866176 3.045311
v 0.109719 1.039458 4.502339
v 0.094546 1.033272 4.491790
v 0.193760 -0.848802 3.098052
v -0.304656 0.842845 4.523740
v -0.264958 -0.918800 3.119912
v -0.144181 -1.002930 3.209345
v -0.054023 -0.744050 3.022735
v 0.118636 -0.706858 3.065531
v 0.177353 1.075158 4.607920
v -0.234285 -0.312679 3.504523
v 0.072494 1.104732 4.596851
v 0.204262 0.901548 4.431137
v 0.253416 -0.885957 3.220876
v 0.061944 -0.907815 3.102807
v -0.247492 -0.925250 3.124433
v -0.249090 -0.875091 3.058875
v 0.267309 0.896500 4.502850
v 0.086654 -0.715306 3.047450
v -0.077644 -0.755575 3.013625
v -0.186553 -0.626159 3.178036
v 0.133494 -0.950651 3.146242
v -0.330667 0.590337 4.556281
v 0.395934 0.937118 4.691320
v 0.088978 -0.814819 3.030133
v 0.235761 -0.862906 3.155872
v -0.007803 -0.912790 3.107009
v -0.087147 1.076433 4.567290
v -0.217257 1.085503 4.675743
v -0.393664 0.972861 4.745957
v -0.062491 1.071734 4.546316
v -0.176523 0.961275 4.502269
v 0.247734 -0.888727 3.213854
v -0.124821 -0.964722 3.165884
v 0.098534 1.079231 4.566302
v -0.255084 -0.836009 3.062627
v 0.211938 -0.980233 3.174807
v 0.092275 1.026202 4.490287
v -0.114086 -0.958726 3.158672
v -0.292493 0.952604 4.616640
v 0.152626 0.927139 4.418914
v 0.166425 0.946657 4.438547
v -0.307688 0.996104 4.692295
v -0.286486 -0.857797 3.112836
v 0.102388 1.036977 4.497518
v 0.089461 1.005027 4.497197
v 0.184621 0.997792 4.499538
v 0.248470 0.961090 4.523371
v -0.002074 -0.960720 3.157169
v -0.294713 0.927181 4.592687
v -0.128560 -0.873965 3.063939
v -0.263577 0.956280 4.586087
v 0.049061 -0.917918 3.114425
v -0.047443 -0.868291 3.056712
v -0.109953 -0.972992 3.173569
v -0.093257 -0.705739 3.051238
v 0.095687 -0.923744 3.120516
v -0.058154 -0.700827 3.043871
v -0.027257 1.064246 4.520064
v -0.120832 1.078854 4.586148
v -0.017391 1.039663 4.505578
v 0.108535 -0.897958 3.090964
v 0.084030 -1.121754 3.340268
v 0.152880 1.113859 4.651751
v 0.120660 0.949229 4.443711
v -0.031730 0.995613 4.501076
v -0.308942 -0.893142 3.124510
v -0.123885 -0.788827 3.007456
v 0.293196 1.048157 4.661287
v -0.222924 -0.907398 3.103907
v -0.041762 1.112562 4.601100
v -0.458910 0.616726 4.613468
v -1.108305 1.691532 4.214104
v 0.158619 -0.885600 3.073662
v -0.037761 -0.771728 3.007015
v -0.040608 0.950805 4.474296
v 0.362049 0.947146 4.674049
v 0.305279 0.559295 4.409427
v -0.171162 -0.711508 3.073242
v 0.120081 -0.787289 3.045688
v 0.115191 0.884511 4.426107
v -0.002974 1.071866 4.528311
v -0.053689 1.067507 4.535069
v 0.073471 -0.721358 3.052556
v -0.535957 0.661924 4.651432
v -0.331313 0.934727 4.693429
v -0.077955 1.071640 4.554735
v 0.117794 0.980324 4.475230
v -0.117357 1.024995 4.514622
v -0.213520 1.052201 4.628568
v -0.315482 0.999354 4.715468
v 0.400724 0.835922 4.628190
v 0.097892 -1.000626 3.204760
v 0.196765 1.064243 4.600274
v 0.134237 1.086707 4.598500
v 0.115057 0.907057 4.415512
v -0.179268 0.845991 4.461119
v -0.314746 0.903250 4.592133
v -0.319665 1.035312 4.728805
v 0.120330 1.094894 4.603544
v -0.258255 -1.076225 3.296316
v 0.122739 -0.739687 3.060034
v 0.223270 -1.000877 3.198541
v -0.053996 -1.145230 3.372620
v -0.263586 -0.937850 3.138918
v 0.111256 -0.897505 3.090907
v -0.420025 -0.464309 3.394585
v 0.283937 0.159878 4.161935
v -0.171099 1.091244 4.632991
v -0.087103 1.059681 4.540022
v 0.381596 0.966793 4.697804
v 0.106572 -0.788914 3.037784
v -0.221646 -0.918010 3.120308
v 0.177706 -1.052211 3.259901
v 0.254791 0.963404 4.534428
v 0.121499 1.088704 4.594051
v 0.296495 0.980581 4.609525
v 0.007153 0.977913 4.485642
v -0.015827 1.061067 4.514262
v -0.284798 -0.922338 3.139064
v 0.021665 0.940067 4.455403
v 0.148849 -0.650690 3.157944
v -0.047213 -1.041422 3.249921
v 0.263636 0.919370 4.512478
v 0.029986 -0.816314 2.995343
v 0.027615 -0.815576 2.994897
v 0.392847 -0.358933 3.769533
v 0.252228 -0.920279 3.217063
f 453 517 368
f 213 38 296
f 194 50 495
f 72 544 55
f 55 544 462
f 539 44 432
f 424 222 27
f 424 266 222
f 355 308 256
f 675 253 425
f 457 618 558
f 642 457 558
f 605 582 634
f 638 174 507
f 638 507 329
f 342 23 420
f 143 412 401
f 133 550 321
f 133 321 261
f 103 496 578
f 113 391 237
f 224 619 299
f 606 91 73
f 507 91 606
f 561 545 463
f 561 463 204
f 688 659 9
f 148 705 221
f 714 705 148
f 758 748 277
f 775 666 534
f 796 806 698
f 168 210 66
f 168 811 210
f 256 308 604
f 818 843 608
f 818 608 764
f 255 870 22
f 478 870 757
f 478 757 27
f 411 335 142
f 880 142 335
f 665 86 787
f 59 842 529
f 823 710 627
f 704 189 456
f 379 456 189
f 836 22 423
f 591 748 422
f 591 422 130
f 203 348 906
f 77 265 168
f 34 363 641
f 102 396 753
f 852 484 747
f 2 860 65
f 523 511 746
f 921 284 320
f 419 933 964
f 179 859 622
f 774 188 980
f 264 774 980
f 984 347 575
f 984 575 167
f 5 121 1006
f 467 983 569
f 76 983 467
f 27 222 976
f 528 1016 108
f 956 431 390
f 697 516 354
f 720 354 516
f 40 982 1039
f 108 1016 502
f 1063 510 166
f 849 1063 166
f 848 955 249
f 423 22 847
f 780 565 8
f 4 954 564
f 543 713 183
f 1082 389 193
f 159 38 58
f 328 64 522
f 790 4 39
f 790 568 4
f 1096 395 99
f 1050 33 173
f 358 33 1050
f 391 795 120
f 224 299 411
f 1055 248 719
f 719 32 1055
f 439 1110 355
f 466 439 355
f 1085 772 929
f 453 1033 182
f 453 858 1033
f 477 362 455
f 455 626 477
f 920 560 283
f 920 283 718
f 668 787 1066
f 327 272 685
f 1073 549 217
f 529 378 112
f 111 846 851
f 1012 938 567
f 346 188 724
f 346 724 252
f 212 119 983
f 132 212 983
f 880 746 557
f 664 101 75
f 967 101 664
f 265 617 98
f 98 1078 265
f 772 1090 54
f 966 298 248
f 966 248 165
f 1033 858 192
f 667 345 553
f 367 345 667
f 603 21 1006
f 552 131 613
f 57 314 902
f 533 313 924
f 533 230 313
f 4 564 263
f 621 73 953
f 621 953 507
f 612 919 952
f 523 746 880
f 19 687 771
f 996 1110 958
f 394 610 1061
f 720 516 631
f 1001 631 516
f 1001 720 631
f 704 947 851
f 704 851 189
f 50 1005 8
f 795 650 120
f 943 979 709
f 203 906 963
f 355 674 466
f 1001 698 465
f 558 154 619
f 619 642 558
f 1044 251 708
f 1044 137 251
f 463 727 204
f 666 515 912
f 673 967 779
f 1011 745 1001
f 438 370 202
f 319 770 85
f 588 517 182
f 588 182 441
f 753 396 221
f 312 172 564
f 172 263 564
f 1100 1077 217
f 590 834 72
f 599 610 918
f 1100 217 549
f 471 686 191
f 471 191 748
f 937 658 696
f 744 657 329
f 582 879 705
f 833 13 895
f 320 260 1025
f 149 637 234
f 149 234 1061
f 43 649 276
f 323 581 97
f 990 323 97
f 1089 56 452
f 764 452 56
f 501 1049 1109
f 869 1109 1049
f 130 64 494
f 130 494 932
f 762 207 5
f 353 515 573
f 491 377 63
f 384 491 63
f 436 451 858
f 756 1105 1038
f 743 450 158
f 390 1105 58
f 993 542 989
f 216 810 841
f 307 989 37
f 435 709 476
f 341 340 552
f 538 113 361
f 752 827 178
f 502 271 164
f 215 963 906
f 215 906 911
f 894 119 212
f 833 895 272
f 928 193 389
f 311 928 389
f 311 193 928
f 712 684 822
f 912 515 567
f 467 864 76
f 566 523 874
f 800 655 96
f 521 893 646
f 936 1063 849
f 334 857 537
f 604 750 910
f 772 54 1054
f 1054 54 171
f 507 1104 170
f 290 1104 507
f 974 951 198
f 885 951 974
f 648 27 757
f 648 757 255
f 424 648 266
f 27 648 424
f 71 826 461
f 527 633 677
f 748 191 133
f 748 133 277
f 1029 1024 923
f 159 233 783
f 737 233 159
f 333 1102 1015
f 1014 1082 532
f 1014 616 1082
f 1 153 914
f 1 914 430
f 917 367 16
f 132 946 261
f 1081 182 892
f 147 1065 187
f 377 370 63
f 377 1060 370
f 909 1109 1072
f 1099 817 209
f 1099 247 817
f 121 1095 603
f 891 751 4
f 636 857 261
f 890 893 645
f 901 1010 440
f 599 1061 610
f 76 157 75
f 339 81 918
f 673 95 967
f 401 412 53
f 1100 418 358
f 201 146 733
f 630 900 931
f 141 1116 1115
f 332 84 70
f 958 207 762
f 52 207 958
f 1084 1000 873
f 1000 1084 520
f 400 411 31
f 299 129 411
f 389 810 580
f 305 810 389
f 288 212 132
f 833 272 327
f 96 655 948
f 113 534 395
f 485 678 462
f 485 462 544
f 595 664 157
f 595 157 864
f 715 763 579
f 715 579 24
f 1100 358 1077
f 718 283 964
f 728 1030 446
f 446 1030 976
f 28 706 458
f 745 596 1001
f 528 108 164
f 28 45 963
f 512 976 436
f 569 983 119
f 255 266 648
f 597 444 150
f 76 864 157
f 853 420 23
f 343 797 238
f 46 948 968
f 193 1014 532
f 235 968 568
f 543 397 699
f 913 397 543
f 60 272 300
f 60 300 1067
f 795 391 468
f 391 315 468
f 1089 444 368
f 261 860 133
f 315 1096 468
f 759 253 675
f 969 642 1013
f 546 359 1002
f 165 617 1031
f 165 1031 781
f 291 677 301
f 633 301 677
f 1079 35 312
f 754 312 35
f 512 436 827
f 198 700 426
f 700 198 828
f 1029 486 1045
f 267 138 701
f 401 954 487
f 869 336 706
f 626 692 812
f 34 380 1044
f 241 1111 199
f 45 859 179
f 623 1051 886
f 882 886 1051
f 440 1065 447
f 109 1068 516
f 529 694 218
f 529 218 1016
f 822 816 607
f 261 801 92
f 907 228 1019
f 933 180 718
f 796 965 1112
f 753 371 29
f 686 349 273
f 791 229 121
f 1003 903 325
f 332 1003 325
f 941 44 512
f 25 969 262
f 1029 923 518
f 664 503 1091
f 967 664 1091
f 137 632 924
f 632 249 955
f 958 1110 439
f 205 1056 225
f 896 959 716
f 709 979 476
f 568 496 114
f 873 1054 323
f 583 1074 824
f 583 17 1074
f 115 439 466
f 201 733 459
f 562 337 278
f 956 278 337
f 533 1017 829
f 603 1095 1110
f 1049 336 869
f 357 316 413
f 747 488 138
f 425 276 1083
f 733 854 306
f 358 418 33
f 846 929 1000
f 539 432 948
f 623 886 513
f 93 347 984
f 931 900 938
f 801 518 1024
f 639 837 887
f 170 329 507
f 230 813 313
f 324 447 1065
f 1006 21 762
f 1006 762 5
f 111 535 1106
f 523 566 511
f 385 725 317
f 888 649 253
f 87 455 362
f 201 341 435
f 1067 311 679
f 893 890 997
f 721 692 455
f 932 591 130
f 384 591 932
f 103 508 960
f 728 680 1040
f 553 728 1040
f 888 253 759
f 636 782 231
f 1024 782 636
f 1011 465 82
f 305 386 841
f 1054 171 547
f 78 924 632
f 838 479 722
f 1010 1046 576
f 729 153 1
f 1 430 729
f 130 522 64
f 134 807 390
f 932 494 384
f 930 836 943
f 943 836 423
f 882 398 886
f 504 723 508
f 1002 203 546
f 746 279 1088
f 944 372 1086
f 658 833 327
f 702 239 574
f 1020 239 702
f 614 711 248
f 637 1021 408
f 234 637 408
f 582 660 879
f 442 660 582
f 537 857 636
f 790 39 235
f 568 790 235
f 896 364 420
f 119 889 904
f 6 686 471
f 437 144 1117
f 1011 693 825
f 146 476 847
f 146 435 476
f 228 907 655
f 885 1034 951
f 384 302 591
f 925 1007 63
f 925 63 370
f 183 913 543
f 941 752 292
f 941 292 432
f 1026 991 151
f 123 414 469
f 414 1031 469
f 124 10 635
f 553 1040 830
f 681 350 241
f 514 854 850
f 514 850 1022
f 75 157 664
f 160 524 643
f 524 160 492
f 509 364 538
f 361 509 538
f 480 297 210
f 882 1051 226
f 808 200 819
f 611 1032 661
f 611 123 1032
f 329 657 675
f 592 1049 651
f 592 651 71
f 599 373 689
f 639 536 1026
f 311 389 562
f 584 158 609
f 584 609 181
f 694 842 716
f 730 835 436
f 730 436 858
f 765 161 998
f 652 61 281
f 652 820 61
f 554 850 22
f 798 90 1060
f 1031 802 781
f 675 657 67
f 759 675 67
f 869 706 464
f 784 464 706
f 926 268 400
f 99 468 1052
f 99 376 468
f 309 7 734
f 773 104 398
f 1001 465 1011
f 738 646 200
f 687 597 771
f 1053 753 684
f 30 345 589
f 894 890 889
f 237 509 361
f 237 361 113
f 831 287 3
f 409 497 242
f 897 57 47
f 332 839 84
f 788 708 34
f 293 34 708
f 1014 1067 300
f 481 591 317
f 293 708 865
f 505 883 399
f 243 968 817
f 461 826 205
f 1051 205 826
f 1090 600 54
f 448 56 1089
f 1039 982 294
f 402 294 982
f 48 299 154
f 154 299 619
f 433 727 411
f 142 433 411
f 679 272 60
f 14 739 891
f 719 362 32
f 477 32 362
f 226 1109 909
f 882 226 909
f 679 562 278
f 463 7 309
f 72 55 590
f 1027 866 73
f 507 866 1027
f 637 861 1021
f 913 766 397
f 1112 403 796
f 542 527 677
f 8 249 780
f 230 184 813
f 184 445 813
f 249 314 848
f 1035 992 210
f 731 458 289
f 425 174 638
f 1107 679 213
f 325 563 332
f 598 752 178
f 365 752 598
f 451 281 858
f 841 386 116
f 336 1049 975
f 726 343 77
f 155 552 867
f 1099 508 103
f 103 578 1099
f 251 137 924
f 251 924 813
f 538 875 113
f 740 798 1060
f 549 1073 592
f 898 294 402
f 986 227 985
f 68 938 741
f 975 592 1073
f 1010 765 117
f 765 998 117
f 1111 241 350
f 920 180 257
f 718 180 920
f 353 567 515
f 847 979 423
f 756 838 20
f 276 649 387
f 716 842 573
f 961 832 1019
f 792 641 1041
f 1056 623 274
f 111 929 846
f 310 525 392
f 392 239 492
f 753 221 844
f 1096 315 395
f 34 293 232
f 411 400 335
f 894 212 890
f 381 143 981
f 195 143 381
f 195 381 981
f 787 785 1066
f 520 1084 851
f 520 851 846
f 922 182 1033
f 221 705 844
f 195 787 86
f 143 195 86
f 411 129 31
f 624 999 15
f 291 37 677
f 291 104 37
f 1075 262 499
f 183 766 913
f 1089 517 588
f 441 1089 588
f 981 143 71
f 981 71 461
f 552 155 341
f 799 44 206
f 320 868 776
f 958 762 996
f 637 458 861
f 247 1099 578
f 740 277 1103
f 756 1038 838
f 530 566 874
f 874 281 530
f 612 682 919
f 551 977 392
f 683 496 103
f 876 895 13
f 256 604 1057
f 404 775 735
f 404 364 1064
f 404 1064 775
f 178 827 835
f 797 343 855
f 563 797 855
f 322 1008 810
f 575 628 867
f 813 924 313
f 536 887 596
f 525 338 268
f 525 268 472
f 987 99 1047
f 495 99 987
f 820 976 1030
f 473 821 697
f 750 308 601
f 1097 750 601
f 453 730 858
f 978 380 474
f 285 1050 173
f 354 499 473
f 115 370 439
f 115 925 370
f 898 269 1039
f 996 603 1110
f 61 820 30
f 585 704 297
f 210 297 66
f 492 1076 374
f 374 1076 310
f 307 868 139
f 244 808 273
f 555 510 1063
f 555 1063 936
f 305 841 810
f 701 645 893
f 1067 193 311
f 254 578 214
f 496 214 578
f 847 22 850
f 234 659 250
f 9 659 234
f 1112 999 624
f 6 471 695
f 328 522 758
f 758 522 422
f 454 455 87
f 78 955 1017
f 1008 580 810
f 247 578 254
f 243 247 254
f 1061 250 394
f 519 748 481
f 814 24 109
f 755 109 24
f 841 116 615
f 41 857 334
f 605 634 11
f 796 62 806
f 920 218 694
f 250 540 394
f 528 529 1016
f 426 942 69
f 426 837 942
f 189 851 1084
f 608 843 472
f 999 1092 258
f 460 1050 960
f 333 766 669
f 590 378 834
f 420 964 283
f 133 191 550
f 225 556 205
f 613 131 561
f 970 409 430
f 970 497 409
f 201 435 146
f 334 196 777
f 1083 174 425
f 180 489 257
f 235 152 948
f 245 59 840
f 112 378 1118
f 820 1030 30
f 402 738 898
f 160 1033 192
f 922 1033 160
f 716 959 694
f 647 957 1110
f 647 51 957
f 175 351 104
f 398 882 909
f 669 1074 258
f 669 824 1074
f 767 5 207
f 371 753 1053
f 934 227 986
f 351 1108 513
f 104 351 513
f 707 768 119
f 1072 1109 869
f 803 535 600
f 803 600 1090
f 934 678 570
f 585 947 704
f 421 947 585
f 949 602 199
f 690 602 949
f 1036 301 633
f 644 709 155
f 577 484 710
f 199 681 241
f 884 350 681
f 1053 684 712
f 642 382 457
f 170 744 329
f 1021 217 1077
f 842 245 573
f 245 842 59
f 688 540 250
f 393 629 111
f 524 448 643
f 716 515 896
f 79 498 24
f 987 741 902
f 139 868 480
f 100 498 305
f 100 305 1068
f 211 830 736
f 1024 1029 782
f 577 747 484
f 832 366 1019
f 1019 366 907
f 905 669 713
f 501 1109 651
f 501 651 1049
f 536 749 1026
f 1029 518 191
f 915 390 58
f 4 751 39
f 218 489 271
f 799 976 44
f 680 728 446
f 846 1000 520
f 57 938 47
f 927 47 938
f 823 571 673
f 435 155 709
f 435 341 155
f 905 824 669
f 280 150 240
f 943 423 979
f 69 1034 885
f 69 942 1034
f 916 427 506
f 1026 151 942
f 1074 1009 258
f 96 948 1080
f 432 1080 948
f 695 471 748
f 519 695 748
f 64 384 494
f 1108 785 513
f 795 50 8
f 389 337 562
f 911 776 307
f 997 635 10
f 848 1017 955
f 454 298 500
f 537 124 334
f 537 877 124
f 933 718 964
f 767 1103 5
f 1073 731 975
f 170 1104 607
f 290 607 1104
f 1047 68 741
f 628 155 867
f 329 425 638
f 1079 564 53
f 1079 53 86
f 1058 901 804
f 693 717 825
f 88 825 717
f 820 451 436
f 231 950 760
f 200 760 950
f 914 153 219
f 1118 378 590
f 1075 457 382
f 261 321 801
f 344 971 189
f 761 816 939
f 761 939 684
f 383 656 1092
f 37 773 911
f 37 911 307
f 880 335 523
f 770 319 927
f 678 135 1004
f 135 678 485
f 933 419 110
f 818 448 524
f 653 555 936
f 899 653 936
f 326 35 14
f 676 14 35
f 892 643 448
f 539 206 44
f 229 261 946
f 694 529 842
f 161 1048 427
f 707 119 701
f 81 859 373
f 622 859 81
f 985 227 590
f 27 152 478
f 401 1100 143
f 669 258 42
f 963 215 1072
f 793 963 1072
f 488 823 482
f 63 1007 94
f 302 63 94
f 1025 535 921
f 1025 105 535
f 787 195 556
f 1056 787 556
f 824 905 583
f 593 288 223
f 221 396 148
f 736 680 943
f 694 959 994
f 280 1019 771
f 1067 679 60
f 459 733 306
f 45 28 1061
f 28 149 1061
f 953 73 866
f 953 866 507
f 57 40 848
f 404 538 364
f 404 875 538
f 113 735 534
f 325 414 123
f 432 44 941
f 73 1012 353
f 644 628 845
f 42 1092 1070
f 540 331 394
f 38 548 296
f 259 443 713
f 625 843 493
f 689 373 859
f 689 859 45
f 474 641 978
f 65 449 791
f 27 976 539
f 481 748 591
f 978 792 125
f 976 1042 446
f 726 1037 303
f 817 948 655
f 698 506 162
f 6 349 686
f 473 499 821
f 598 19 365
f 820 436 976
f 1101 616 1014
f 269 405 1039
f 896 515 1064
f 775 1064 515
f 873 772 1054
f 877 662 124
f 602 1087 459
f 988 203 260
f 988 348 203
f 612 17 583
f 937 833 658
f 13 833 937
f 264 252 724
f 639 887 536
f 745 789 536
f 609 804 978
f 375 572 541
f 375 541 378
f 347 211 628
f 428 211 347
f 935 966 165
f 935 165 781
f 267 852 747
f 499 262 346
f 729 786 181
f 786 584 181
f 460 540 1050
f 551 525 574
f 492 843 818
f 173 401 487
f 912 395 18
f 231 537 636
f 701 904 645
f 570 227 934
f 134 580 322
f 908 134 322
f 368 444 687
f 368 687 598
f 234 1018 9
f 41 223 261
f 593 223 41
f 755 24 498
f 539 948 152
f 1051 1109 226
f 651 1109 1051
f 768 185 569
f 413 148 670
f 212 997 890
f 823 627 571
f 415 505 504
f 415 504 209
f 758 740 1060
f 705 660 83
f 563 722 332
f 401 418 1100
f 384 64 491
f 654 466 674
f 58 38 915
f 139 992 1035
f 440 447 901
f 960 1050 683
f 1015 1102 1070
f 671 1026 409
f 167 142 984
f 995 142 167
f 213 915 38
f 278 915 213
f 355 256 674
f 1051 623 205
f 220 415 209
f 786 729 789
f 427 1048 465
f 224 727 642
f 1040 680 830
f 50 376 99
f 384 63 302
f 284 947 421
f 393 947 284
f 574 392 977
f 1029 1045 782
f 828 198 951
f 349 80 244
f 232 244 80
f 889 645 904
f 802 1086 372
f 802 715 1086
f 151 1034 942
f 683 285 114
f 568 487 954
f 661 617 265
f 1032 617 661
f 974 198 69
f 569 503 664
f 454 614 298
f 688 1018 358
f 9 1018 688
f 303 456 126
f 528 678 375
f 488 577 823
f 470 1015 3
f 342 3 1015
f 337 580 431
f 134 431 580
f 765 1048 161
f 709 845 943
f 709 644 845
f 847 476 979
f 533 184 230
f 829 184 533
f 399 394 331
f 814 690 26
f 875 404 735
f 875 735 113
f 1073 861 731
f 463 545 340
f 139 480 992
f 58 1105 756
f 267 11 156
f 267 156 852
f 724 188 774
f 420 853 703
f 235 39 152
f 540 460 331
f 1075 499 48
f 54 600 171
f 46 235 948
f 1056 205 623
f 282 357 413
f 1046 82 465
f 808 819 273
f 642 1062 382
f 407 1098 1068
f 528 375 378
f 726 77 1037
f 351 291 177
f 755 498 100
f 310 1076 874
f 123 469 1032
f 687 444 597
f 978 641 792
f 504 505 723
f 180 933 489
f 1106 535 803
f 533 924 1017
f 676 1079 86
f 326 263 754
f 172 754 263
f 298 614 248
f 200 898 738
f 1046 356 82
f 356 1046 1010
f 952 443 863
f 888 759 67
f 873 1000 772
f 379 189 971
f 379 971 126
f 706 289 458
f 546 179 359
f 722 726 303
f 855 726 722
f 507 174 91
f 261 857 41
f 316 186 413
f 200 526 760
f 969 1013 980
f 36 770 387
f 325 611 563
f 655 907 366
f 366 817 655
f 17 15 1009
f 1074 17 1009
f 998 187 117
f 161 187 998
f 319 897 927
f 546 45 179
f 731 861 458
f 454 304 455
f 800 96 640
f 96 1080 640
f 849 166 128
f 95 673 571
f 624 403 1112
f 770 900 73
f 927 900 770
f 766 1065 147
f 391 395 315
f 113 395 391
f 83 660 442
f 731 289 975
f 243 254 214
f 355 1110 308
f 215 909 1072
f 773 909 215
f 202 90 767
f 644 155 628
f 53 954 401
f 710 475 627
f 337 431 956
f 509 342 364
f 342 420 364
f 122 508 723
f 1094 357 945
f 232 80 34
f 755 100 109
f 202 52 438
f 334 635 196
f 334 124 635
f 244 273 349
f 502 1016 218
f 30 281 61
f 1076 281 874
f 897 982 40
f 319 982 897
f 666 912 18
f 50 194 1005
f 739 815 1022
f 815 514 1022
f 1081 892 448
f 1107 272 679
f 259 713 699
f 89 1048 576
f 931 938 1012
f 976 512 44
f 1057 828 951
f 943 1042 266
f 12 602 459
f 105 1002 600
f 495 987 902
f 365 292 752
f 202 1060 90
f 48 457 1075
f 428 347 93
f 130 422 522
f 1066 681 199
f 815 306 514
f 854 514 306
f 107 344 737
f 366 209 817
f 876 973 1101
f 377 270 1060
f 1082 193 532
f 1071 26 690
f 1050 540 688
f 378 541 834
f 132 261 223
f 868 320 480
f 107 737 159
f 1083 387 770
f 273 1029 686
f 486 1029 273
f 930 943 266
f 439 370 438
f 290 822 607
f 36 649 888
f 85 36 888
f 521 701 893
f 20 159 58
f 436 835 827
f 3 120 650
f 465 89 1046
f 143 592 71
f 143 549 592
f 300 1101 1014
f 300 876 1101
f 87 614 454
f 657 744 127
f 224 642 619
f 987 1047 741
f 620 210 531
f 898 200 808
f 432 292 856
f 5 1103 121
f 243 817 247
f 899 936 128
f 1089 368 517
f 225 1056 556
f 327 783 106
f 703 419 964
f 589 917 530
f 392 574 239
f 1029 191 686
f 641 363 1041
f 383 999 1112
f 211 972 830
f 536 409 749
f 794 333 1015
f 121 1103 65
f 175 104 291
f 175 291 351
f 492 192 1076
f 385 317 591
f 79 369 940
f 996 21 603
f 266 1042 222
f 65 1103 277
f 684 127 744
f 121 65 791
f 776 868 307
f 229 449 261
f 1080 432 640
f 1045 486 417
f 408 1077 234
f 1021 1077 408
f 84 410 940
f 70 84 940
f 495 50 99
f 265 1078 811
f 773 37 104
f 535 105 600
f 719 248 711
f 142 995 145
f 1064 364 896
f 923 1024 518
f 746 16 279
f 16 667 279
f 546 203 45
f 963 793 28
f 1071 24 814
f 701 488 482
f 1011 825 745
f 1050 688 358
f 502 164 108
f 371 1053 282
f 956 390 278
f 839 615 116
f 475 710 484
f 767 207 202
f 220 209 339
f 339 209 240
f 714 634 705
f 705 634 582
f 583 682 612
f 261 92 636
f 209 366 240
f 736 943 845
f 95 571 967
f 145 613 433
f 561 433 613
f 1002 105 203
f 791 449 229
f 701 119 904
f 73 353 691
f 88 717 246
f 539 976 799
f 539 799 206
f 544 135 485
f 752 941 827
f 299 499 129
f 860 449 65
f 534 18 395
f 455 692 626
f 33 418 401
f 888 319 85
f 652 451 820
f 145 552 613
f 1088 557 746
f 136 557 1088
f 800 640 856
f 276 387 1083
f 902 314 194
f 771 597 150
f 626 98 477
f 758 277 740
f 813 708 251
f 36 387 649
f 43 253 649
f 796 698 965
f 897 47 927
f 766 809 397
f 911 348 490
f 911 490 776
f 59 529 862
f 296 548 1107
f 213 296 1107
f 715 24 1071
f 45 203 963
f 860 261 449
f 595 569 664
f 864 569 595
f 983 76 132
f 286 109 516
f 804 450 1058
f 780 287 831
f 551 392 525
f 528 164 678
f 629 921 111
f 575 347 628
f 310 338 525
f 874 338 310
f 592 975 1049
f 848 314 57
f 519 125 792
f 77 343 265
f 670 148 396
f 1025 921 320
f 1070 587 23
f 553 345 728
f 1019 228 292
f 793 464 784
f 576 1048 765
f 832 240 366
f 1001 965 698
f 220 883 415
f 415 883 505
f 950 819 200
f 1011 82 1069
f 500 298 966
f 1053 208 282
f 901 163 804
f 426 700 1097
f 105 260 203
f 1025 260 105
f 369 903 1003
f 560 994 283
f 764 56 818
f 440 187 1065
f 969 1062 642
f 128 190 899
f 662 877 526
f 240 150 444
f 837 639 942
f 545 131 340
f 552 340 131
f 823 872 482
f 277 133 860
f 916 506 259
f 38 159 783
f 568 954 4
f 1011 1069 693
f 603 1006 121
f 685 272 1107
f 1058 450 743
f 770 594 1083
f 843 625 472
f 372 944 500
f 492 374 392
f 374 310 392
f 569 119 768
f 815 665 668
f 815 739 665
f 28 458 149
f 109 602 814
f 1106 803 1090
f 467 569 864
f 406 395 567
f 161 916 275
f 161 427 916
f 870 255 757
f 683 103 960
f 348 988 490
f 948 817 968
f 911 773 215
f 20 58 756
f 42 1102 333
f 42 333 669
f 1038 769 479
f 1038 479 838
f 145 433 142
f 273 819 486
f 512 827 941
f 995 867 145
f 417 819 950
f 920 257 218
f 122 723 331
f 339 918 610
f 721 455 304
f 908 769 807
f 683 1050 285
f 43 276 425
f 391 509 237
f 391 120 509
f 75 957 51
f 140 233 737
f 990 233 140
f 214 968 243
f 1012 630 931
f 400 338 874
f 267 442 605
f 1059 233 990
f 152 27 539
f 558 618 48
f 457 48 618
f 143 86 412
f 865 244 232
f 231 782 950
f 1045 950 782
f 20 303 126
f 321 518 801
f 604 308 750
f 292 771 1019
f 16 367 667
f 665 676 86
f 1070 23 342
f 40 57 897
f 286 697 821
f 286 516 697
f 286 821 252
f 651 826 71
f 346 262 188
f 770 73 594
f 250 1061 234
f 876 13 973
f 1085 929 111
f 1085 111 1106
f 115 466 654
f 115 654 925
f 916 699 275
f 275 699 809
f 534 666 18
f 453 182 517
f 20 126 971
f 198 426 69
f 21 996 762
f 320 421 480
f 1087 483 459
f 317 725 153
f 307 139 989
f 479 769 908
f 589 530 30
f 480 421 297
f 675 425 329
f 620 1035 210
f 530 511 566
f 530 917 511
f 776 260 320
f 701 138 488
f 549 143 1100
f 433 204 727
f 994 560 694
f 1043 881 249
f 801 1024 92
f 1068 305 389
f 83 402 888
f 353 245 672
f 1020 49 239
f 961 240 832
f 48 154 558
f 598 687 19
f 611 325 123
f 49 492 239
f 77 168 66
f 732 703 853
f 984 142 428
f 984 428 93
f 1072 464 793
f 818 56 448
f 28 793 784
f 802 372 781
f 781 372 935
f 862 840 59
f 865 232 293
f 163 380 804
f 51 132 76
f 51 76 75
f 736 628 211
f 132 51 360
f 398 909 773
f 262 969 980
f 110 965 933
f 880 428 142
f 600 359 171
f 1002 359 600
f 173 487 285
f 197 359 179
f 898 808 269
f 908 807 134
f 1039 294 898
f 357 186 316
f 231 760 537
f 779 1091 503
f 779 967 1091
f 826 651 1051
f 252 499 346
f 25 1062 969
f 933 965 407
f 516 965 1001
f 537 760 877
f 81 197 622
f 179 622 197
f 97 696 429
f 1059 429 696
f 1059 97 429
f 563 611 797
f 119 894 889
f 667 553 279
f 500 966 372
f 281 192 858
f 382 1062 25
f 25 1075 382
f 1084 873 323
f 823 577 710
f 673 779 823
f 795 376 50
f 1107 548 685
f 988 260 776
f 490 988 776
f 617 165 1055
f 611 238 797
f 422 748 758
f 194 314 1043
f 403 624 15
f 420 283 994
f 849 128 936
f 32 98 1055
f 715 802 763
f 814 602 690
f 677 37 989
f 778 510 555
f 877 760 526
f 786 158 584
f 701 442 267
f 441 182 1081
f 78 1017 924
f 672 691 353
f 700 388 1097
f 292 228 856
f 222 1042 976
f 353 573 245
f 677 989 542
f 1118 590 227
f 530 281 30
f 896 994 959
f 896 420 994
f 368 169 453
f 400 523 335
f 400 874 523
f 394 339 610
f 197 81 339
f 822 939 816
f 328 758 270
f 970 219 497
f 85 770 36
f 960 122 460
f 8 1005 249
f 606 73 621
f 606 621 507
f 253 43 425
f 516 1068 1098
f 750 1097 910
f 350 1108 304
f 991 318 1007
f 991 671 318
f 369 579 903
f 79 579 369
f 323 140 1084
f 416 163 871
f 324 871 163
f 741 938 57
f 199 1111 949
f 400 31 129
f 441 1081 448
f 448 1089 441
f 785 1108 884
f 935 372 966
f 1045 417 950
f 244 269 808
f 582 605 442
f 1090 1085 1106
f 264 724 774
f 129 499 926
f 183 713 766
f 409 242 671
f 671 242 559
f 1112 110 962
f 1112 962 383
f 399 331 723
f 126 456 379
f 702 74 1020
f 699 713 543
f 135 72 1004
f 303 20 838
f 722 303 838
f 72 135 544
f 51 647 360
f 132 360 647
f 505 399 723
f 831 650 565
f 822 684 939
f 252 821 499
f 1012 567 353
f 580 337 389
f 250 659 688
f 267 605 11
f 630 1012 73
f 825 789 745
f 567 395 912
f 189 1084 344
f 187 440 1010
f 1079 676 35
f 961 1019 280
f 410 84 386
f 67 657 127
f 1022 891 739
f 89 465 1048
f 895 300 272
f 895 876 300
f 388 910 1097
f 978 804 380
f 794 766 333
f 1111 454 949
f 137 287 780
f 1072 869 464
f 1111 304 454
f 64 377 491
f 370 1060 202
f 609 978 125
f 151 991 1007
f 926 400 129
f 83 442 701
f 652 281 451
f 934 462 678
f 204 433 561
f 388 604 910
f 949 454 944
f 949 944 690
f 14 263 326
f 4 263 14
f 240 961 280
f 373 918 81
f 945 11 1094
f 196 635 777
f 339 240 444
f 565 650 795
f 102 753 29
f 550 191 321
f 1004 375 678
f 671 559 318
f 521 402 701
f 570 1118 227
f 218 257 489
f 679 278 213
f 999 383 1092
f 518 321 191
f 632 955 78
f 3 287 470
f 114 285 487
f 411 727 224
f 751 152 39
f 1114 1008 322
f 479 332 722
f 992 480 210
f 1108 350 884
f 881 314 249
f 481 317 519
f 1061 689 45
f 599 689 1061
f 1112 965 110
f 915 278 390
f 354 720 601
f 148 634 714
f 256 1057 951
f 1030 345 30
f 694 560 920
f 816 761 607
f 1069 246 693
f 721 586 692
f 721 301 586
f 901 324 163
f 933 271 489
f 906 348 911
f 1044 708 788
f 284 629 393
f 3 650 831
f 149 458 637
f 661 238 611
f 256 1034 654
f 951 1034 256
f 519 1041 6
f 344 1084 140
f 140 737 344
f 971 344 107
f 159 971 107
f 1014 193 1067
f 1043 314 881
f 825 88 789
f 332 615 839
f 952 863 62
f 52 439 438
f 841 615 216
f 922 160 643
f 811 586 531
f 114 487 568
f 205 556 461
f 402 982 319
f 654 151 925
f 1010 576 765
f 377 64 270
f 170 761 744
f 607 761 170
f 1071 1086 715
f 496 568 968
f 554 22 870
f 350 304 1111
f 1060 270 758
f 1043 249 1005
f 1043 1005 194
f 290 878 712
f 914 970 430
f 402 236 888
f 521 738 402
f 99 1052 1096
f 111 851 393
f 385 591 302
f 46 968 235
f 445 708 813
f 184 708 445
f 892 182 922
f 744 761 684
f 266 255 930
f 836 930 255
f 839 386 84
f 116 386 839
f 683 114 496
f 452 444 1089
f 1031 617 469
f 1114 322 580
f 888 67 127
f 565 780 831
f 468 376 795
f 574 977 551
f 151 1007 925
f 413 663 282
f 554 1022 850
f 891 1022 554
f 565 795 8
f 428 136 211
f 34 80 363
f 662 10 124
f 465 162 427
f 653 778 555
f 380 34 641
f 184 829 865
f 535 111 921
f 322 810 216
f 852 156 475
f 926 499 472
f 796 15 17
f 796 17 62
f 1003 332 70
f 330 985 590
f 695 519 6
f 830 680 736
f 672 245 840
f 363 6 1041
f 1041 519 792
f 1095 647 1110
f 1095 946 647
f 927 938 900
f 1057 700 828
f 281 1076 192
f 628 736 845
f 354 473 697
f 121 946 1095
f 567 938 68
f 609 125 181
f 462 934 55
f 735 775 534
f 766 871 324
f 601 499 354
f 556 195 461
f 195 981 461
f 766 713 669
f 104 886 398
f 1070 1092 656
f 1070 656 587
f 217 1021 1073
f 172 312 754
f 367 589 345
f 917 589 367
f 92 1024 636
f 698 162 465
f 14 891 4
f 633 527 1028
f 633 1028 352
f 1073 1021 861
f 506 427 162
f 1103 90 740
f 654 674 256
f 33 401 173
f 405 848 1039
f 40 1039 848
f 601 720 1001
f 903 579 763
f 362 711 87
f 140 323 990
f 362 719 711
f 527 542 1028
f 1044 788 34
f 406 99 395
f 729 317 153
f 703 964 420
f 311 562 679
f 178 169 368
f 598 178 368
f 960 508 122
f 640 432 856
f 800 856 655
f 265 343 238
f 1101 973 616
f 216 615 322
f 312 564 1079
f 483 734 341
f 309 734 483
f 268 338 400
f 339 452 472
f 504 1099 209
f 919 443 952
f 990 97 1059
f 1056 274 785
f 916 259 699
f 136 428 880
f 563 855 722
f 1114 580 1008
f 766 416 871
f 701 1113 83
f 647 946 132
f 52 202 207
f 1068 1082 616
f 482 707 701
f 159 20 971
f 545 561 131
f 620 993 1035
f 975 289 336
f 1047 406 68
f 25 262 1075
f 855 343 726
f 567 68 406
f 802 1031 763
f 388 1057 604
f 812 98 626
f 228 655 856
f 780 632 137
f 351 177 304
f 721 304 177
f 569 185 434
f 696 327 106
f 696 658 327
f 696 106 1059
f 654 1034 151
f 137 1044 380
f 732 962 110
f 703 732 110
f 122 331 460
f 526 10 662
f 290 712 822
f 42 258 1092
f 775 515 666
f 275 742 161
f 809 742 275
f 52 958 439
f 893 997 10
f 630 73 900
f 488 747 577
f 1056 785 787
f 599 918 373
f 705 879 660
f 901 447 324
f 83 1113 402
f 701 402 1113
f 1108 351 304
f 1027 1093 507
f 853 23 587
f 479 908 322
f 807 769 390
f 917 16 511
f 746 511 16
f 53 564 954
f 612 952 62
f 829 244 865
f 848 829 1017
f 262 980 188
f 789 430 409
f 536 789 409
f 79 24 579
f 160 192 492
f 516 407 965
f 706 336 289
f 309 483 1087
f 112 862 529
f 747 138 267
f 456 66 704
f 612 62 17
f 197 339 547
f 812 692 1078
f 406 1047 99
f 148 1094 634
f 732 656 962
f 383 962 656
f 136 880 557
f 94 1007 318
f 670 663 413
f 469 617 1032
f 14 676 665
f 739 14 665
f 475 484 852
f 699 397 809
f 502 218 271
f 1042 680 446
f 1026 942 639
f 940 369 70
f 369 1003 70
f 79 940 410
f 787 668 665
f 32 477 98
f 700 1057 388
f 1068 389 1082
f 1027 691 672
f 1027 73 691
f 884 1066 785
f 884 681 1066
f 986 55 934
f 986 985 55
f 830 972 553
f 486 819 417
f 328 270 64
f 132 223 288
f 1071 814 26
f 286 252 264
f 365 771 292
f 365 19 771
f 627 475 571
f 15 999 258
f 403 15 796
f 110 419 703
f 324 1065 766
f 479 615 332
f 479 322 615
f 390 431 134
f 109 100 1068
f 194 495 902
f 749 409 1026
f 474 380 641
f 536 596 745
f 12 199 602
f 704 66 297
f 342 1015 1070
f 15 258 1009
f 541 572 834
f 921 629 284
f 835 169 178
f 811 1078 586
f 1001 1097 601
f 229 946 121
f 500 944 454
f 711 614 87
f 73 91 594
f 995 167 867
f 847 854 733
f 847 733 146
f 1078 98 812
f 576 1046 89
f 1004 1023 375
f 1023 1004 72
f 147 187 161
f 1010 117 187
f 1070 1102 42
f 671 991 1026
f 847 850 854
f 282 945 357
f 28 784 706
f 1001 426 1097
f 837 426 1001
f 208 878 282
f 712 878 208
f 1090 772 1085
f 504 508 1099
f 727 463 642
f 463 309 642
f 1042 943 680
f 1096 1052 468
f 853 656 732
f 1105 769 1038
f 853 587 656
f 340 7 463
f 82 246 1069
f 1055 98 617
f 529 528 378
f 815 668 12
f 1066 12 668
f 199 12 1066
f 524 492 818
f 255 22 836
f 319 236 402
f 767 90 1103
f 2 65 277
f 754 35 326
f 2 277 860
f 41 334 777
f 899 601 653
f 778 653 601
f 778 601 118
f 69 885 974
f 692 586 1078
f 602 309 1087
f 109 286 264
f 109 309 602
f 309 109 642
f 482 768 707
f 482 185 768
f 200 646 526
f 493 843 492
f 1094 11 634
f 728 345 1030
f 811 531 210
f 264 980 1013
f 620 1028 993
f 993 1028 542
f 766 794 416
f 214 496 968
f 249 632 780
f 83 844 705
f 890 645 889
f 1018 1077 358
f 410 386 305
f 349 6 80
f 269 244 829
f 690 1086 1071
f 944 1086 690
f 721 177 301
f 291 301 177
f 412 86 53
f 265 238 661
f 972 279 553
f 513 886 104
f 405 829 848
f 269 829 405
f 1105 390 769
f 3 342 120
f 509 120 342
f 693 246 717
f 136 972 211
f 972 1088 279
f 274 623 785
f 513 785 623
f 574 74 702
f 74 625 1020
f 49 625 493
f 492 49 493
f 1020 625 49
f 922 643 892
f 516 1098 407
f 399 805 394
f 1053 712 208
f 393 851 947
f 585 297 421
f 421 320 284
f 41 777 593
f 593 777 288
f 594 91 174
f 594 174 1083
f 575 867 167
f 394 805 339
f 220 339 805
f 145 867 552
f 547 171 359
f 220 805 883
f 478 751 870
f 152 751 478
f 870 751 554
f 554 751 891
f 786 789 88
f 786 88 158
f 743 158 88
f 161 742 147
f 766 147 742
f 766 742 809
f 459 306 12
f 12 306 815
f 888 236 319
f 10 646 893
f 743 88 1058
f 663 396 102
f 670 396 663
f 1010 901 1058
f 1010 1058 356
f 106 233 1059
f 363 80 6
f 902 741 57
f 165 248 1055
f 356 246 82
f 1058 246 356
f 88 246 1058
f 919 682 905
f 919 905 443
f 583 905 682
f 352 620 531
f 443 905 713
f 259 863 443
f 94 385 302
f 1001 596 837
f 371 295 29
f 357 1094 186
f 413 186 148
f 148 186 1094
f 10 526 646
f 738 521 646
f 94 725 385
f 887 837 596
f 318 559 725
f 725 94 318
f 242 725 559
f 242 497 725
f 184 865 708
f 771 150 280
f 125 519 317
f 472 601 899
f 190 472 899
f 472 499 601
f 299 48 499
f 883 805 399
f 926 472 268
f 574 525 472
f 574 472 74
f 74 472 625
f 190 339 472
f 764 472 452
f 764 608 472
f 352 531 586
f 327 685 783
f 685 548 783
f 620 352 1028
f 573 515 716
f 811 168 265
f 730 169 835
f 453 169 730
f 352 586 633
f 633 586 1036
f 1036 586 301
f 506 806 259
f 863 259 806
f 1000 929 772
f 483 341 459
f 201 459 341
f 729 430 789
f 914 219 970
f 55 985 330
f 136 1088 972
f 305 498 410
f 410 498 79
f 359 197 547
f 90 798 740
f 282 663 295
f 282 295 371
f 663 102 295
f 102 29 295
f 729 181 125
f 729 125 317
f 109 1013 642
f 264 1013 109
f 330 590 55
f 11 945 475
f 11 475 156
f 779 503 823
f 823 503 872
f 872 503 482
f 482 503 185
f 185 503 434
f 569 434 503
f 380 287 137
f 339 444 452
f 341 7 340
f 734 7 341
f 1035 989 139
f 993 989 1035
f 288 777 635
f 288 635 212
f 212 635 997
f 937 581 13
f 696 581 937
f 696 97 581
f 973 13 581
f 339 190 581
f 339 581 547
f 725 497 153
f 219 153 497
f 1054 547 581
f 323 1054 581
f 973 581 616
f 106 783 233
f 572 375 1023
f 698 806 506
f 863 806 62
f 77 66 1037
f 1037 66 303
f 456 303 66
f 176 763 414
f 414 763 1031
f 903 763 176
f 1018 234 1077
f 1023 72 834
f 1023 834 572
f 888 844 83
f 684 844 127
f 888 127 844
f 684 753 844
f 38 783 548
