# vorpaline algo:delaunay=NN
# vorpaline algo:hole_filling=loop_split
# vorpaline algo:nn_search=BNN
# vorpaline algo:parallel=true
# vorpaline algo:predicates=fast
# vorpaline algo:reconstruct=Co3Ne
# vorpaline biblio=false
# vorpaline biblio:command_line=false
# vorpaline debug=false
# vorpaline log:features=*
# vorpaline log:features_exclude=
# vorpaline log:file_name=
# vorpaline log:pretty=true
# vorpaline log:quiet=false
# vorpaline nl:CUDA=false
# vorpaline nl:MKL=false
# vorpaline profile=scan
# vorpaline sys:FPE=false
# vorpaline sys:ascii=false
# vorpaline sys:assert=throw
# vorpaline sys:cancel=false
# vorpaline sys:compression_level=3
# vorpaline sys:lowmem=false
# vorpaline sys:max_threads=14
# vorpaline sys:multithread=true
# vorpaline sys:show_win32_console=false
# vorpaline sys:stats=false
# vorpaline sys:use_doubles=false
v -0.215852 -0.845267 3.03342 
v -0.192409 -0.927227 3.12876 
v 0.0635729 -0.859549 3.05388 
v -0.149508 1.03359 4.54734 
v -0.23687 -0.922371 3.12565 
v -0.11658 -0.905464 3.10491 
v -0.291608 0.810922 4.47864 
v 0.0711804 -0.884061 3.07625 
v -0.0903583 1.0827 4.57798 
v -0.132031 -0.987491 3.18989 
v -0.0808189 -1.13507 3.36204 
v -0.0471614 0.894536 4.47322 
v 0.324267 1.00777 4.68108 
v -0.148215 1.00224 4.51752 
v 0.102802 -0.692802 3.05636 
v -0.32103 0.91741 4.61533 
v 0.0662407 -0.70411 3.06171 
v 0.120603 -0.899858 3.09245 
v -0.250629 1.05919 4.67953 
v 0.235307 0.994185 4.54253 
v -0.252407 -0.920414 3.12567 
v -0.224017 0.965732 4.54872 
v 0.144074 -0.774637 3.07842 
v 0.175362 0.835403 4.44489 
v -0.46259 0.602764 4.57566 
v 0.0650178 0.879771 4.44316 
v -0.24419 0.986486 4.59213 
v -0.0178718 1.08761 4.5591 
v 0.0452935 -1.11971 3.34622 
v -0.308987 0.948924 4.63787 
v -0.430189 0.794764 4.71509 
v 0.111412 0.952595 4.45133 
v -0.115515 1.06071 4.55975 
v -0.0840151 -0.868425 3.05633 
v -0.120769 1.01561 4.51072 
v 0.0780795 -0.995455 3.19767 
v 0.0756342 1.04888 4.51035 
v 0.277978 0.981371 4.58279 
v -0.191523 1.0187 4.57006 
v 0.0476221 -0.963122 3.16007 
v -0.181466 -0.965672 3.16468 
v 0.108029 -0.75435 3.06021 
v 0.0831044 -1.0073 3.21182 
v -0.252364 1.02236 4.6388 
v 0.0217256 1.11247 4.60836 
v -0.195663 1.049 4.60712 
v 0.0651878 -0.962738 3.16107 
v -0.462677 0.666425 4.63129 
v -0.367723 0.9582 4.72971 
v 0.092643 -0.894041 3.08622 
v -0.303939 -0.996435 3.20258 
v -0.245163 -0.911137 3.11486 
v -0.12594 1.04354 4.54178 
v 0.113127 1.10509 4.61925 
v 0.255145 -0.91846 3.23882 
v -0.336682 1.00205 4.74558 
v 0.0558676 -0.960779 3.15755 
v 0.272272 0.969253 4.56218 
v 0.227149 -0.913323 3.1077 
v 0.333548 0.968812 4.65386 
v -0.30407 0.95679 4.64086 
v 0.0418192 -0.685048 3.04742 
v -0.219123 -0.889802 3.09254 
v -0.214685 -0.895792 3.09381 
v -0.200714 -0.926875 3.12875 
v 0.167248 1.01105 4.50066 
v 0.0811339 -1.03131 3.23998 
v 0.108264 -0.932001 3.13033 
v -0.288127 -0.811209 3.14177 
v 0.217222 0.894533 4.44121 
v -0.0428669 1.04957 4.50707 
v 0.25032 -0.896145 3.22281 
v 0.170211 -0.973047 3.16978 
v -0.374669 0.948783 4.72029 
v -0.304136 -1.0225 3.23134 
v -0.268613 -1.01178 3.22461 
v 0.164624 1.00383 4.49379 
v -0.00192955 -0.905734 3.10046 
v 0.197102 0.843234 4.42483 
v -0.087776 -0.91241 3.10757 
v 0.0315883 1.13385 4.61474 
v -0.124559 -0.71666 3.05076 
v -0.0380599 -1.06641 3.28069 
v 0.225647 0.881183 4.44681 
v 0.0662236 -0.995129 3.19701 
v -0.0786021 1.01676 4.47562 
v 0.0933177 0.94783 4.44702 
v -0.163983 -0.797653 3.03721 
v -0.070367 -0.694822 3.04952 
v -0.224162 -0.917263 3.11538 
v 0.135816 -0.999307 3.20678 
v -0.131582 -0.966237 3.16847 
v -0.308888 0.860839 4.54635 
v -0.242456 -0.865272 3.04527 
v -0.239079 -1.12875 3.35294 
v -0.208648 1.05856 4.63089 
v 0.281229 1.05151 4.67649 
v 0.110848 0.958574 4.45858 
v 0.104534 -0.900323 3.0935 
v 0.220521 0.815228 4.48088 
v -0.307434 -1.03912 3.25294 
v 0.0223708 -1.08993 3.30915 
v -0.158764 1.07732 4.60933 
v 0.0179032 1.03326 4.50979 
v 0.0825285 1.09323 4.58405 
v 0.287241 1.01521 4.62996 
v 0.238205 1.02407 4.58508 
v 0.240792 -0.855887 3.17643 
v 0.168485 0.764891 4.49855 
v 0.151853 -0.710281 3.10056 
v 0.134883 1.07369 4.5771 
v 0.234996 -0.928759 3.13037 
v 0.131002 -0.886693 3.07687 
v -0.147732 1.05421 4.57155 
v -0.277671 -0.886723 3.07611 
v 0.25227 0.873114 4.46174 
v -0.0569184 -0.736937 3.03464 
v -1.15465 1.6457 4.26566 
v -0.164627 -1.02201 3.23205 
v 0.102636 -0.876325 3.06879 
v -0.236419 -0.925864 3.12905 
v -0.122755 1.11063 4.63318 
v 0.170593 0.928377 4.42348 
v -0.133943 -0.985854 3.18851 
v -0.198955 -0.846463 3.02772 
v 0.217882 1.01012 4.54628 
v 0.0813691 -1.04005 3.24998 
v -1.09346 1.68038 4.20615 
v -0.43576 0.793645 4.71884 
v -0.200541 -0.901339 3.09319 
v -0.296654 0.824214 4.49304 
v -0.222525 -0.977324 3.18157 
v -0.166423 -0.929376 3.13039 
v 0.263899 0.931444 4.52812 
v 0.256088 -0.888762 3.22246 
v -0.319811 0.885172 4.58203 
v 0.00957721 -0.867168 3.05176 
v -0.130734 -1.08627 3.30931 
v 0.0977679 1.04336 4.50813 
v 0.222913 1.06658 4.62532 
v 0.0228497 -0.809515 2.99237 
v -0.311762 0.837883 4.5263 
v -0.0714341 1.03938 4.50346 
v 0.45235 -0.146566 4.01789 
v -0.309882 0.828773 4.51381 
v -0.224673 0.909641 4.4919 
v -0.0282726 -0.735721 3.03876 
v -0.0109589 -1.1341 3.36137 
v -0.0419639 1.08844 4.56271 
v -0.243387 1.07529 4.69685 
v -0.270514 -0.871049 3.07043 
v -0.199191 1.0143 4.57356 
v -0.217719 -0.847693 3.03623 
v -0.454484 0.67473 4.65421 
v -0.279317 0.86955 4.51782 
v -0.100012 -1.13171 3.35927 
v -0.297782 -1.02024 3.23421 
v -0.188123 -0.830834 3.01839 
v 0.240808 1.01779 4.57856 
v -0.318826 0.982524 4.69588 
v -0.0283005 -0.732652 3.03481 
v -0.0165586 -0.662844 3.05938 
v -0.00602038 -0.807505 2.98942 
v 0.252274 -0.846682 3.19024 
v 0.131476 0.945112 4.43326 
v -1.10189 1.69043 4.21435 
v -0.304612 0.854083 4.53376 
v 0.141672 1.01188 4.49179 
v -0.290732 1.02931 4.69143 
v 0.125616 -1.04328 3.25704 
v 0.102967 1.11259 4.63295 
v -0.132115 1.02664 4.52804 
v -0.12914 1.05672 4.55956 
v 0.132682 -1.00314 3.21105 
v 0.0207472 1.00948 4.51522 
v 0.177201 0.909837 4.41031 
v 0.0703338 0.99476 4.49831 
v -0.265944 1.04254 4.67329 
v 0.0390324 1.12106 4.62515 
v 0.223721 -0.802298 3.15578 
v -0.192545 -0.840356 3.02558 
v -0.311689 1.01847 4.71028 
v 0.012912 -0.745472 3.04544 
v -0.0344808 -0.903902 3.09715 
v -0.199721 -1.04695 3.26694 
v -0.0578436 -1.13551 3.36439 
v -0.066276 -0.76933 3.00707 
v -0.460724 0.552039 4.54828 
v 0.184775 1.03448 4.54816 
v -1.08758 1.67093 4.19912 
v -0.127138 -0.931847 3.13081 
v -0.314421 0.973808 4.67938 
v 0.370449 0.91888 4.66921 
v 0.0537317 -0.921994 3.11885 
v -0.0655017 1.02074 4.47477 
v -0.141621 -0.987553 3.19227 
v 0.0452287 1.13366 4.62082 
v -0.298694 -0.83092 3.15957 
v -0.0392617 0.905869 4.45907 
v -0.0765892 -0.993123 3.19414 
v -0.231295 0.890483 4.48184 
v -0.236892 -0.914389 3.11616 
v 0.0603157 1.08214 4.55982 
v -0.311131 0.809912 4.50024 
v -0.0359973 1.01257 4.52153 
v -0.246551 1.00921 4.61937 
v -0.242153 -0.914938 3.11889 
v 0.10864 -1.14359 3.36751 
v -0.197797 1.13562 4.68361 
v 0.118794 1.03383 4.50539 
v -0.304788 0.900388 4.57836 
v -0.164221 -1.01312 3.22193 
v 0.281757 0.971722 4.57934 
v -0.164879 1.0633 4.59645 
v 0.00939879 1.067 4.52433 
v 0.258779 0.881824 4.47631 
v -0.062121 1.06667 4.53926 
v 0.231062 -0.84659 3.16091 
v -0.221517 -0.846338 3.03448 
v -0.158592 1.12816 4.68176 
v -0.00958925 -1.08536 3.30305 
v -0.251177 0.971513 4.58655 
v -0.18628 -0.991711 3.20159 
v -0.449785 0.683675 4.67477 
v -0.0335478 0.994671 4.51086 
v -0.00491154 1.05253 4.50689 
v 0.259624 -0.937348 3.24764 
v -0.216 1.07036 4.65532 
v -0.202039 -0.944014 3.14742 
v -0.0297794 -0.903087 3.09693 
v -0.121809 -0.976917 3.17784 
v -0.064201 -0.902687 3.09816 
v 0.25739 1.03312 4.60845 
v -0.070693 1.08103 4.56639 
v -0.186695 1.03329 4.58163 
v 0.0520167 -0.994564 3.19595 
v 0.117743 -0.880973 3.07187 
v 0.173723 0.961757 4.46136 
v -0.371597 0.955067 4.74064 
v -0.208691 1.10916 4.69594 
v -0.0104556 0.944022 4.45903 
v -0.239277 -0.854681 3.03912 
v -0.17994 1.06782 4.61348 
v -0.0694188 -0.924483 3.11758 
v 0.225153 -0.91743 3.10714 
v -0.148564 -0.747639 3.05064 
v -0.173528 1.07293 4.61579 
v 0.104679 0.939297 4.43736 
v 0.0436268 -0.914905 3.11129 
v -0.0823003 1.09456 4.58816 
v -0.0282156 -0.87964 3.07458 
v -0.458345 0.506704 4.4946 
v 0.0824294 -1.01885 3.22508 
v -0.167025 1.07189 4.6101 
v -0.230523 0.967934 4.56107 
v -0.292003 -0.893249 3.09709 
v 0.225059 -0.804397 3.15825 
v 0.103067 -0.730868 3.06597 
v 0.0101036 -0.705419 3.0468 
v 0.0812074 1.07618 4.55309 
v -0.182136 -0.962119 3.15704 
v -0.46399 0.595388 4.56719 
v -0.13889 1.0285 4.53402 
v -0.45789 0.534981 4.55936 
v 0.157185 0.985102 4.4679 
v -0.242412 0.964503 4.57199 
v -0.089611 -1.089 3.31003 
v -0.409588 0.887807 4.73405 
v -0.0401082 -0.934147 3.12809 
v -0.217594 -0.899297 3.09636 
v 0.243918 -0.81446 3.17232 
v 0.32844 0.97828 4.65198 
v -0.0872744 -0.954325 3.15223 
v -0.0196629 0.990978 4.49703 
v -0.0187179 -0.730855 3.03156 
v 0.0855241 -1.00462 3.20873 
v -0.196148 -0.921042 3.11631 
v 0.283335 0.957901 4.57704 
v -0.310595 0.914008 4.59779 
v -0.220838 1.09478 4.69143 
v -0.314577 0.959835 4.66089 
v 0.0562688 -1.17787 3.39904 
v 0.195391 -0.821165 3.12883 
v 0.128669 1.05923 4.54746 
v -0.131504 1.06506 4.57296 
v -0.428978 0.473068 4.40846 
v 0.0698554 -0.831122 3.0037 
v -0.170165 -1.00823 3.21741 
v -0.037819 1.07338 4.5363 
v 0.23077 -1.0468 3.24417 
v 0.058687 1.00865 4.51272 
v -0.225613 1.06 4.65091 
v -0.0581821 -0.899422 3.09452 
v -0.00624365 -0.990305 3.19029 
v 0.0278666 -1.1287 3.35554 
v 0.281839 0.981091 4.58894 
v 0.122034 1.04297 4.51881 
v 0.0919034 0.937206 4.43592 
v -0.451934 0.715931 4.67398 
v 0.340343 0.977356 4.67582 
v 0.0779895 1.00603 4.51303 
v -0.207037 -0.878983 3.07829 
v 0.209297 0.981309 4.50494 
v 0.0450816 0.973505 4.46893 
v 0.255446 0.863791 4.45164 
v -0.203252 0.920507 4.48158 
v 0.0842542 1.05028 4.51134 
v -0.297899 -0.906299 3.10486 
v -0.239764 0.828269 4.47282 
v -0.357731 0.920232 4.69578 
v 0.367081 0.912094 4.66277 
v -0.125216 1.0292 4.52685 
v -0.0229578 -0.895617 3.09321 
v 0.0448943 -0.92385 3.12054 
v 0.11583 -0.887761 3.07976 
v -0.0457475 -1.14188 3.37442 
v -0.206406 -0.851804 3.03627 
v -0.245597 -0.860743 3.04384 
v 0.0668233 -0.980742 3.18052 
v 0.0978998 1.06554 4.54148 
v -0.148503 -0.946309 3.14809 
v 0.254183 0.919632 4.49957 
v 0.210403 1.08122 4.64073 
v -0.011748 -0.794013 2.99459 
v 0.184748 0.92174 4.42733 
v -0.136596 1.0126 4.51654 
v 0.289679 1.01198 4.6294 
v -0.208736 -0.903066 3.0983 
v 0.101757 -1.0318 3.242 
v 0.254566 -0.922035 3.23677 
v -0.124729 1.12055 4.64618 
v 0.219213 0.91435 4.45774 
v 0.082054 -0.788459 3.01563 
v -0.139435 -0.984612 3.18834 
v -0.339549 0.876908 4.61945 
v -0.0290056 1.07336 4.53409 
v 0.277256 0.925899 4.55174 
v -0.407153 0.891827 4.73099 
v -0.156754 1.30775 4.78175 
v -0.295217 0.812683 4.48227 
v -0.251978 0.859121 4.47464 
v 0.120302 -0.846682 3.02957 
v 0.167204 0.983379 4.47329 
v 0.236266 1.03446 4.5913 
v -0.304934 0.934525 4.61448 
v -0.466618 0.562822 4.53823 
v -0.305271 0.864496 4.54291 
v 0.0564061 1.07151 4.54168 
v -0.0914871 -0.921629 3.11457 
v 0.00416652 0.956552 4.46585 
v 0.0180051 1.00304 4.51002 
v 0.0974761 1.01446 4.47057 
v 0.179623 -0.929338 3.12048 
v -0.461193 0.31347 4.30473 
v -0.292295 -0.899697 3.09834 
v -0.127511 -0.735777 3.0403 
v -0.0648665 -1.18386 3.41086 
v -0.096256 1.07273 4.56525 
v 0.0648136 1.1286 4.62404 
v -0.274787 -0.977768 3.19027 
v 0.124839 -0.882314 3.07483 
v 0.101899 0.949907 4.44904 
v -0.0984082 -0.881741 3.07823 
v 0.143191 -0.881046 3.06399 
v -0.253783 1.05392 4.67563 
v -0.198242 1.09551 4.66677 
v -0.318484 0.921876 4.6166 
v -0.273867 1.05768 4.6968 
v 0.208574 0.881304 4.41627 
v -0.241474 -0.903781 3.10355 
v 0.0745361 -1.13136 3.35599 
v 0.0999573 0.91307 4.41605 
v -0.00554836 1.13347 4.63017 
v -0.357056 0.936058 4.70829 
v 0.244509 -0.882761 3.20488 
v 0.0957863 -0.895336 3.08963 
v -0.2186 -0.894669 3.09416 
v 0.239579 -0.891238 3.19178 
v 0.188181 1.03074 4.55161 
v -0.0852675 -0.819094 2.99704 
v -0.0659485 1.03972 4.50394 
v -0.458339 0.640867 4.60865 
v 0.136516 -0.706278 3.07146 
v -0.21426 -0.889353 3.08938 
v -0.204544 -0.876987 3.07595 
v 0.25008 0.868197 4.45478 
v 0.0833295 -0.999852 3.20298 
v -0.321434 -0.854463 3.18559 
v 0.369127 0.905345 4.66246 
v 0.268519 0.952132 4.54486 
v 0.112514 -0.881662 3.0707 
v -0.361145 0.934809 4.71426 
v 0.139312 1.05732 4.54986 
v -0.0930476 1.12877 4.63736 
v 0.117771 -0.899456 3.0917 
v -6.68466e-05 -1.09379 3.31404 
v 0.004786 -0.743138 3.04289 
v 0.0106109 1.05153 4.50337 
v -0.132862 1.12517 4.65481 
v -0.418052 0.804997 4.70332 
v -0.123236 1.04994 4.54743 
v 0.000342347 -1.02572 3.22636 
v 0.101585 -0.679038 3.07915 
v 0.142579 -0.884284 3.07148 
v -0.02503 -0.930586 3.12455 
v 0.116213 -0.929886 3.12739 
v 0.442342 -0.0582289 4.02506 
v -0.0663896 1.0752 4.55303 
v -0.222384 -0.815185 3.05987 
v 0.232401 0.868975 4.4364 
v -0.428442 0.760393 4.67626 
v -0.10197 1.03652 4.52071 
v -0.00981957 -1.13804 3.36582 
v 0.175102 0.923873 4.42179 
v -0.163612 1.12422 4.67624 
v 0.0130799 -0.802086 2.99216 
v -0.111691 -0.975602 3.17646 
v -0.108046 1.05854 4.55308 
v 0.20192 -0.768538 3.12777 
v 0.171644 -0.797291 3.10161 
v 0.128326 1.04909 4.53076 
v -0.198339 -0.903595 3.09485 
v -0.235511 0.938632 4.53424 
v -0.24698 0.975058 4.58706 
v 0.0922161 -1.01405 3.22104 
v -0.285905 -0.781785 3.14192 
v -0.0325906 -0.692117 3.04873 
v -0.318211 0.873785 4.56977 
v 0.287534 1.03519 4.65755 
v -0.216121 -0.814579 3.04925 
v 0.269833 0.926687 4.54072 
v -0.224902 1.05204 4.64062 
v -0.312414 0.817993 4.50791 
v -0.227257 -1.03856 3.26339 
v -0.240421 0.893322 4.49689 
v -0.288608 1.00636 4.668 
v 0.449172 -0.100384 4.01726 
v -0.244393 -0.906645 3.10779 
v -0.24824 -0.905922 3.10713 
v -0.0680086 -0.771571 3.00499 
v -0.320649 1.01116 4.71854 
v -0.0530961 -1.07837 3.29586 
v 0.0343769 -0.711201 3.05316 
v -0.265216 1.07005 4.69952 
v -0.038202 -0.900026 3.09699 
v -0.282578 0.948744 4.5984 
v -0.0679057 -0.775287 3.00151 
v -0.327854 0.998748 4.72541 
v -0.195744 -0.936428 3.139 
v -0.154718 -0.81148 3.01022 
v -0.292107 0.995972 4.66449 
v -0.339268 1.01228 4.75565 
v -0.29435 1.02576 4.69453 
v 0.0778408 0.940039 4.44369 
v 0.0896831 0.964748 4.46978 
v 0.18119 1.02106 4.52225 
v -0.456032 0.649303 4.61845 
v -0.0436131 1.08137 4.5526 
v -0.224839 0.87997 4.46272 
v -0.117625 1.11704 4.63172 
v -0.0453867 1.04139 4.49661 
v 0.266299 -0.894337 3.24328 
v -0.298913 0.805732 4.48194 
v -0.0132733 1.07802 4.53772 
v -0.0661926 -0.654809 3.04792 
v -0.280574 -0.888135 3.07932 
v -0.227925 -1.01449 3.23245 
v 0.106332 -0.897411 3.09016 
v 0.163343 0.928247 4.4222 
v 0.0807624 -0.828823 3.00632 
v -0.124605 -0.926213 3.12485 
v -0.798879 1.14898 4.85194 
v -0.461477 0.333946 4.32524 
v -0.112527 -0.823273 3.00384 
v -0.135687 -1.17398 3.39735 
v -0.246076 0.90233 4.51751 
v 0.107006 0.95448 4.4534 
v -0.22091 0.997785 4.58223 
v 0.243876 0.92902 4.48997 
v 0.109844 1.04283 4.51415 
v -0.177854 -0.88379 3.0788 
v -0.167155 -1.0528 3.26837 
v -0.247208 0.858286 4.46979 
v -0.136159 -1.11771 3.34734 
v 0.262401 -0.881216 3.22855 
v -0.111064 -0.96409 3.16415 
v -0.134441 1.05265 4.55784 
v -0.146712 -1.08168 3.3036 
v 0.229971 -0.805521 3.16319 
v 0.0618888 1.06625 4.53455 
v -0.216759 -0.892561 3.09303 
v -0.346742 0.957773 4.71615 
v -0.364844 0.967454 4.727 
v -0.203699 -0.897094 3.09312 
v 0.0729684 -0.921471 3.11882 
v -0.154311 1.0711 4.59591 
v -0.227996 -0.848533 3.03656 
v 1.57437 -2.07222 8.24238 
v 0.2034 0.824474 4.44854 
v -0.873547 0.996806 4.98362 
v 0.0905183 0.930666 4.42966 
v -0.0229075 1.05666 4.51414 
v 0.241616 -0.846423 3.16703 
v -0.218747 -1.06563 3.28696 
v -0.174453 1.10946 4.66246 
v -0.147988 1.12137 4.66328 
v -0.000822306 -0.670406 3.05827 
v 0.230369 -1.03621 3.23116 
v -0.157751 1.09118 4.62994 
v 0.116378 -0.875357 3.05983 
v -1.11664 1.69847 4.219 
v -0.334136 0.909549 4.62748 
v -0.256183 1.0242 4.64526 
v -0.00046479 0.989566 4.49163 
v -0.174296 0.953575 4.49123 
v 0.16935 -0.902691 3.08801 
v 0.322347 0.0891328 4.10218 
v -0.315567 1.01989 4.71997 
v -0.124641 -0.960548 3.16152 
v -0.153841 -0.878959 3.06964 
v 0.195239 1.05628 4.59067 
v -0.0763728 -1.00947 3.21377 
v -0.206173 -0.902059 3.0962 
v -0.338768 0.893439 4.63241 
v -0.329117 0.985392 4.71734 
v -0.405225 0.896143 4.73184 
v -0.121171 -0.985323 3.18725 
v 0.0771553 1.02296 4.49382 
v 0.241023 -0.864217 3.18322 
v 0.2208 -0.877728 3.13165 
v -0.331095 0.929859 4.64483 
v 0.117384 1.01307 4.47627 
v 0.374719 0.935325 4.68142 
v -0.0248761 -0.904977 3.10265 
v 0.138785 -0.891269 3.08142 
v 0.112045 1.08872 4.5851 
v -0.232085 -0.776057 3.0806 
v -0.129502 -0.979146 3.18156 
v 0.130212 -0.882677 3.07533 
v -0.241769 1.00403 4.60817 
v -0.112901 1.11775 4.63049 
v 0.243797 -0.889908 3.20707 
v 0.087368 1.03352 4.49116 
v 0.0113093 -0.74091 3.04235 
v 0.258378 -0.89571 3.22955 
v -0.299137 0.814781 4.48689 
v 0.0543625 1.10759 4.60482 
v 0.0701236 1.13224 4.63348 
v 0.285045 0.989226 4.59976 
v -0.0686071 1.05621 4.52721 
v -0.132813 -0.930929 3.13091 
v -0.391599 0.931625 4.76489 
v -0.285742 0.841096 4.49641 
v -0.303501 0.92067 4.59623 
v -0.192014 0.976184 4.53763 
v -1.11041 1.67658 4.22383 
v -0.0460601 0.993043 4.50997 
v -0.326652 0.887357 4.59595 
v -0.456637 0.668407 4.64285 
v -0.244303 -0.85739 3.04324 
v 0.196581 -0.823259 3.12924 
v -0.303644 0.816592 4.49544 
v 0.290918 0.955471 4.59755 
v 0.203343 0.956994 4.47554 
v -0.132055 1.0379 4.53908 
v 0.0731308 -0.877084 3.06905 
v -0.341729 0.912478 4.6491 
v 0.151 -0.932998 3.12539 
v -0.150487 1.04732 4.56304 
v -0.230173 -1.02439 3.24006 
v 0.279776 -0.92011 3.29059 
v -0.216327 -1.14494 3.37082 
v 0.245335 -0.888343 3.20936 
v 0.221626 -0.913196 3.10093 
v -0.388227 0.934196 4.73839 
v -0.300134 0.862353 4.53475 
v -0.0595049 -0.709175 3.05643 
v -0.142803 -1.0939 3.31925 
v -0.163958 1.07282 4.60997 
v 0.171326 0.861001 4.39568 
v 0.271563 0.908089 4.51774 
v 0.355036 1.17353 4.82757 
v -0.0443427 -1.08508 3.30396 
v 0.0553368 -0.712313 3.05739 
v -0.19052 -0.836766 3.02434 
v 0.135039 1.0335 4.51621 
v 0.106575 0.980409 4.48974 
v 0.139753 -0.772516 3.07753 
v -0.31709 1.01668 4.72035 
v -0.321791 0.933924 4.63406 
v 0.252043 -0.92412 3.23265 
v -0.196833 -0.898627 3.09055 
v -0.0426099 1.05891 4.51993 
v -0.181785 -0.994737 3.20499 
v 0.0943409 -0.992577 3.19584 
v -0.267991 -1.02366 3.24353 
v -0.22234 -0.70868 3.09931 
v -0.249508 1.07379 4.69625 
v -0.262756 1.04987 4.67956 
v -0.0204705 1.13192 4.63098 
v 0.0893561 1.10212 4.6068 
v -1.15653 1.59338 4.27624 
v -0.0335633 0.861037 4.44886 
v -0.264456 -0.937707 3.14032 
v -0.313749 -0.869927 3.17515 
v -0.0595182 -1.08885 3.30952 
v 0.142939 -1.00253 3.21119 
v 0.176764 -1.07078 3.28533 
v -0.360533 0.97999 4.74195 
v -0.166581 -0.828287 3.01209 
v -0.0637989 1.12442 4.62713 
v 0.18637 0.944231 4.45402 
v 0.0441276 -0.699974 3.05541 
v -0.300489 0.824507 4.50039 
v 0.0932642 0.941669 4.44034 
v 0.252551 0.881268 4.47361 
v 0.386344 0.943173 4.70605 
v 0.151454 0.953601 4.44048 
v -0.458946 0.661173 4.63301 
v -0.451801 0.678689 4.66474 
v 0.0984236 1.02592 4.48386 
v 0.19245 -0.993171 3.19769 
v 0.0330176 1.13214 4.6196 
v -0.0166002 0.996034 4.49913 
v 0.106347 -0.680387 3.08328 
v -0.367802 0.96154 4.72137 
v 0.101285 0.964556 4.46908 
v -0.197632 -1.14964 3.37719 
v -0.290538 0.878856 4.53973 
v 0.12846 1.07152 4.56841 
v 0.102787 -0.962058 3.16421 
v -0.451382 0.042343 4.02225 
v 0.0200297 -0.873645 3.06089 
v 0.0796744 1.02032 4.49739 
v -0.0444855 -1.09886 3.32174 
v -0.138271 -0.988369 3.19171 
v -0.130596 -0.969563 3.17147 
v -0.0585797 1.07957 4.55574 
v 0.137233 -1.01419 3.22462 
v -0.266251 -0.795679 3.11687 
v -0.218078 1.05413 4.63714 
v -0.110521 -0.867302 3.05543 
v -0.452759 0.591435 4.60518 
v -0.32577 0.987508 4.71479 
v -0.270631 0.887991 4.52656 
v -0.15903 -1.01994 3.22947 
v -0.0865062 -0.99722 3.19982 
v -0.288643 -0.962557 3.16536 
v -0.234237 0.98308 4.58289 
v 0.0788824 -1.00743 3.21155 
v 0.0814528 -0.876901 3.07097 
v -0.02799 1.0548 4.5119 
v -0.298829 0.962699 4.64126 
v -1.10906 1.65988 4.21935 
v -0.281881 -0.884183 3.08192 
v -0.205411 1.06316 4.6331 
v 0.137913 -0.744091 3.08605 
v 0.0882235 -1.03475 3.24438 
v 0.305139 1.0096 4.66089 
v -0.0849031 1.08903 4.58537 
v -0.0416074 -1.0818 3.29977 
v 0.167193 0.960879 4.45265 
v -0.127501 -0.984365 3.18631 
v 0.0193492 -1.13023 3.35678 
v -0.301318 -1.03072 3.24166 
v -0.106665 0.979852 4.48295 
v 0.135762 -0.900665 3.09423 
v -0.310465 0.919166 4.60386 
v -0.0616045 0.948087 4.47799 
v 0.0628908 -0.74685 3.04624 
v -0.00589975 -1.13113 3.35813 
v -0.248826 -0.856232 3.04413 
v 0.227372 -0.924202 3.11155 
v -0.235111 -1.12484 3.34864 
v -0.283393 -0.887926 3.08256 
v 0.0880543 -1.03019 3.23928 
v -0.109957 1.01426 4.49828 
v 0.0735332 1.02483 4.49703 
v 0.265436 -0.87694 3.22384 
v 0.33212 0.959648 4.64367 
v -0.283208 0.94134 4.59277 
v -0.0153876 0.945217 4.46257 
v 0.0439113 -0.711173 3.05483 
v -0.144043 1.07386 4.59337 
v 0.0577146 -1.07604 3.28765 
v 0.286316 0.996222 4.6049 
v -0.106866 -0.927731 3.1238 
v -0.255593 1.07025 4.69332 
v -0.0997087 1.08245 4.58134 
v -0.0226009 1.12959 4.64045 
v 0.054436 0.89908 4.42787 
v 0.192948 -0.943134 3.13993 
v 0.106182 0.977279 4.48787 
v -0.182075 -0.727118 3.07172 
v 0.212702 -0.866562 3.12295 
v -0.147504 -0.90697 3.10717 
v 0.295177 1.03352 4.66214 
v -0.455302 0.343449 4.32201 
v -0.0049836 -0.655583 3.06448 
v 0.00238794 -0.730295 3.03973 
v -0.306584 -0.83758 3.16831 
v -0.109331 -1.05422 3.2659 
v -0.377414 0.944299 4.72406 
v 0.172126 -0.760302 3.11052 
v 0.16681 1.02087 4.51399 
v -0.0352507 -1.08513 3.30365 
v -0.0197958 1.07678 4.5392 
v -0.164387 -1.04406 3.25787 
v -0.0413023 -0.901033 3.09434 
v -0.263783 0.89114 4.52183 
v -0.161836 -1.10748 3.33636 
v 0.100037 0.944164 4.44241 
v 0.13376 -1.12939 3.34975 
v 0.0183027 -0.742751 3.04485 
v -0.0320012 -1.09507 3.31671 
v 0.151635 0.882044 4.39264 
v 0.201377 -0.87408 3.08606 
v -0.174977 -0.768033 3.06609 
v 0.206477 -0.786909 3.13538 
v 0.105803 0.947603 4.44592 
v -0.454533 0.0716656 4.05394 
v 0.0728808 0.986888 4.49282 
v 0.210097 0.957502 4.48115 
v -0.148482 1.10943 4.64815 
v -0.460506 0.533688 4.54567 
v -0.239182 -0.863506 3.04229 
v 0.202435 0.977569 4.49589 
v -0.312851 0.803626 4.49923 
v -0.293525 0.939957 4.60624 
v -0.212802 -0.846064 3.03343 
v -0.290124 1.01695 4.68065 
v -0.0455616 1.07265 4.53984 
v 0.151152 -0.737606 3.10065 
v -0.20654 0.918169 4.48275 
v -0.254626 0.854335 4.47515 
v 0.141778 -0.888119 3.07598 
v -0.285571 0.909983 4.56434 
v 0.242996 1.03167 4.5971 
v -0.0725267 -0.996722 3.19822 
v -0.157347 0.973223 4.49493 
v -0.214792 -0.909971 3.10426 
v 0.07846 -0.929056 3.12701 
v -0.0247913 -0.734907 3.03762 
v -0.15705 -0.809662 3.01412 
v 0.0917715 -1.04087 3.25187 
v -0.200593 -0.698849 3.07795 
v -0.326318 0.9088 4.61487 
v -0.138069 -1.09304 3.31787 
v -0.196077 -0.9053 3.09567 
v -0.234976 -0.809962 3.07675 
v -0.330934 -0.897503 3.19441 
v -0.195811 1.0067 4.5618 
v -0.256654 1.04679 4.66834 
v 0.0558422 -1.07608 3.28748 
v -0.131691 1.02115 4.52265 
v 0.179984 0.806071 4.44241 
v 0.240435 0.981168 4.53546 
v -0.2292 0.987292 4.5816 
v -0.210012 -0.907141 3.10049 
v 0.0838113 -1.02963 3.23802 
v -0.121507 -0.98097 3.18218 
v 0.118195 -1.05802 3.27467 
v -0.247391 -0.917466 3.12362 
v 0.16665 0.906753 4.40583 
v -0.354931 0.987652 4.74701 
v -0.0590715 -0.733091 3.03655 
v -0.00520039 -0.775772 3.00111 
v -0.234084 -0.916778 3.11836 
v -0.169144 -1.04531 3.25992 
v 0.256705 0.951623 4.52486 
v 0.0826617 -0.985604 3.18644 
v -0.241724 1.06559 4.68038 
v 0.133617 1.09508 4.61021 
v 0.0190147 1.05363 4.50612 
v -0.461464 0.549272 4.55334 
v 0.149478 -0.888248 3.0741 
v 0.0744096 1.0616 4.52867 
v -0.144699 -0.987309 3.19229 
v -1.15116 1.65075 4.26144 
v -0.231266 -1.08359 3.30653 
v 0.0373167 -0.871984 3.06035 
v 0.134081 0.932491 4.41915 
v -0.118391 -0.97332 3.17394 
v 0.28282 0.999371 4.60305 
v -0.00964126 1.08054 4.54252 
v -0.0171361 0.985221 4.4884 
v -0.190752 -0.83123 3.0205 
v -0.0599639 0.984899 4.49929 
v -0.0522261 -0.879864 3.07557 
v -0.213 -0.811038 3.04673 
v -0.165915 1.04102 4.57384 
v -0.199511 -0.940552 3.14414 
v -0.124889 -0.863501 3.05355 
v -0.00678152 1.08055 4.54223 
v 0.0507212 -0.811913 2.99567 
v 0.0935359 -0.888216 3.07968 
v 0.073657 -0.664612 3.06685 
v 0.180313 0.962082 4.46855 
v -0.217895 -0.910563 3.10565 
v -0.251471 1.0086 4.62649 
v -0.211858 1.05889 4.63599 
v -0.128756 -0.963553 3.16542 
v 0.156883 0.905643 4.40321 
v 0.118736 1.09053 4.59409 
v -0.0991701 -0.804891 2.99004 
v -0.141593 1.13163 4.6672 
v 0.0323875 -0.672213 3.05685 
v 0.260457 0.945121 4.52621 
v -0.0580836 -0.977626 3.17605 
v -0.0198364 -0.735543 3.03705 
v 0.26391 0.890095 4.49458 
v 0.121326 1.01243 4.47768 
v 0.10475 0.964683 4.46885 
v -0.0311188 -0.898934 3.09312 
v 0.0658388 0.878786 4.45047 
v -0.165228 0.954491 4.48241 
v 0.113139 -1.0723 3.29148 
v -0.186987 1.0695 4.62076 
v -0.342215 0.986015 4.74426 
v -0.079479 -0.970436 3.16942 
v -0.292721 0.967037 4.63483 
v -0.461456 0.397289 4.39043 
v 0.152381 -1.11426 3.33219 
v -0.189453 -1.09799 3.32349 
v 0.0660506 -0.719791 3.04686 
v -0.196698 -0.731649 3.07647 
v -0.0348523 1.04441 4.49888 
v -0.263513 1.0281 4.65953 
v -0.301145 -0.835044 3.16633 
v -0.0376796 -0.923337 3.11616 
v -0.29407 0.917382 4.58271 
v 0.0632877 -0.863008 3.05571 
v -0.206826 1.09474 4.67585 
v 0.307316 1.00584 4.6601 
v 0.245101 -0.8929 3.21151 
v -0.285568 1.02476 4.67981 
v -0.23011 0.959131 4.55376 
v -0.283724 -0.774953 3.13532 
v 0.233556 0.975676 4.52288 
v 0.246939 0.880047 4.46645 
v 0.227773 -0.916769 3.10966 
v 0.255764 0.86974 4.46136 
v 0.226841 -0.911001 3.10605 
v -0.362809 0.974403 4.73304 
v 0.0369099 -1.05641 3.26288 
v -0.27989 0.901053 4.54933 
v 0.169904 1.06637 4.58781 
v -0.221778 0.919359 4.49817 
v 0.00739807 -0.924077 3.11779 
v -1.10289 1.68387 4.21667 
v -0.206831 0.933372 4.4974 
v 0.15893 1.05368 4.55846 
v -0.112184 -1.12423 3.35278 
v 0.153581 -0.775885 3.08485 
v -0.20361 0.925502 4.4862 
v 0.19903 0.971501 4.48628 
v -0.215738 1.06289 4.6436 
v -0.142341 -0.975549 3.18053 
v -0.30097 0.99584 4.67708 
v 0.0247368 1.1197 4.62604 
v -0.193421 -0.931553 3.13258 
v -0.0533577 1.07453 4.54713 
v 0.232112 -0.921381 3.12109 
v 0.029522 -0.705553 3.0519 
v -0.267981 -1.02007 3.23753 
v -0.0525957 -0.907066 3.10142 
v 0.211395 -0.989326 3.18917 
v -0.296452 0.86023 4.52762 
v 0.0916849 1.0551 4.52161 
v -0.013033 1.07168 4.53067 
v -0.221814 0.970845 4.55172 
v -0.00376156 -0.794167 2.99642 
v -0.174912 -1.06073 3.28001 
v 0.175912 1.08557 4.62867 
v -0.351307 0.918914 4.68151 
v 0.133378 -0.884888 3.07608 
v 0.341323 0.983653 4.68102 
v -0.127362 -0.982013 3.18413 
v 0.107092 -1.15308 3.37775 
v -0.0405218 -1.08533 3.30466 
v -0.333871 0.878225 4.60659 
v 0.0451003 -0.917961 3.11464 
v 0.000463404 1.04854 4.50115 
v -0.144253 1.1268 4.66708 
v -0.0109149 0.96198 4.47945 
v -0.286844 -0.824405 3.14842 
v 0.00609867 1.04666 4.49951 
v -0.254076 -0.75545 3.11513 
v 0.0324584 -1.04483 3.24847 
v -0.161876 -1.01989 3.22975 
v -0.158083 -1.01663 3.2256 
v -0.176585 0.980265 4.51774 
v -0.316802 0.999645 4.70897 
v -0.132892 -1.01095 3.21833 
v -0.164454 -1.01756 3.22708 
v 0.329881 0.995425 4.67449 
v 0.181358 -0.86859 3.06331 
v 0.0573468 -0.964238 3.16132 
v -0.0559126 -0.978142 3.17652 
v -1.1013 1.65424 4.21201 
v 0.0758469 -0.971145 3.17033 
v -0.0828894 -0.783989 2.99526 
v 0.064745 -0.927099 3.12443 
v 0.194804 0.898626 4.41626 
v -0.159342 -1.02428 3.23457 
v 0.0405577 -0.714554 3.05063 
v 0.0191351 1.07515 4.54016 
v -0.211374 1.07702 4.65996 
v 0.251799 0.925186 4.49613 
v 0.00297209 1.05862 4.51274 
v -0.326317 -0.863287 3.19415 
v 0.0444645 1.06507 4.52753 
v 0.14196 -0.917812 3.11281 
v 0.00852168 -0.744445 3.04429 
v -0.219229 -0.845286 3.03357 
v 0.275524 0.969124 4.56584 
v -0.00532669 -0.705531 3.04548 
v -0.324431 0.92406 4.62756 
v -0.00735044 1.13634 4.62839 
v 0.0418383 -0.708642 3.05578 
v 0.200768 -0.825731 3.13768 
v 0.119188 1.07424 4.56837 
v -0.3159 0.98633 4.6951 
v -0.120359 -0.961553 3.16233 
v -0.0115772 -0.901887 3.09574 
v -0.274607 -0.879785 3.07351 
v -0.412061 0.882781 4.74003 
v 0.063686 -0.96687 3.16449 
v 0.368626 0.9087 4.66257 
v 0.140005 1.08662 4.59814 
v -0.238541 0.956349 4.56543 
v 0.0961848 -0.961219 3.16294 
v -0.201727 -0.895847 3.09153 
v 0.215534 -0.778831 3.13772 
v 0.270141 -0.899953 3.25218 
v 0.125479 0.934949 4.42674 
v -1.10436 1.67834 4.21796 
v 0.315394 1.01717 4.68079 
v 0.080336 -0.951079 3.15051 
v 0.0871414 -1.07934 3.29695 
v 0.221527 0.877055 4.43804 
v -0.249391 1.04098 4.65598 
v -0.268171 -0.802963 3.12322 
v -0.244575 0.934655 4.53968 
v 0.0889666 0.916098 4.41989 
v -0.0735285 -1.18463 3.41115 
v -0.219084 -0.957087 3.15281 
v 0.133935 1.04903 4.53725 
v -0.199967 1.05432 4.61569 
v 0.0521908 0.901668 4.42511 
v -0.116886 -0.976972 3.17776 
v -0.291831 -0.829988 3.14871 
v 0.0395756 -0.69982 3.0543 
v 0.202805 -0.992467 3.19466 
v -0.136959 1.04532 4.55107 
v 0.00788158 -0.920964 3.11493 
v 0.273288 0.934448 4.55404 
v -0.324138 -0.995697 3.20596 
v -0.249085 -0.911672 3.11493 
v 0.200521 -0.868193 3.09153 
v -0.137516 1.08013 4.59675 
v -0.217555 1.09701 4.68881 
v 0.146577 -0.709647 3.09204 
v 0.00595427 1.08036 4.54499 
v 0.202872 -0.785749 3.12999 
v 0.396322 -0.192951 3.88234 
v 0.108353 0.93328 4.43021 
v -0.26939 -1.10813 3.32861 
v -0.187323 1.05785 4.60776 
v -0.460314 0.593604 4.58093 
v -0.223807 -0.845273 3.03377 
v 0.218242 1.01479 4.55216 
v -0.309014 0.906436 4.58796 
v 0.376101 0.961399 4.71126 
v -0.289609 -0.82377 3.14979 
v -0.0378042 1.06627 4.52748 
v -0.281446 0.965132 4.61364 
v -0.384675 0.941242 4.7675 
v -0.143193 -0.824438 3.00564 
v -0.239168 0.924532 4.5277 
v -0.458922 0.547282 4.56482 
v -0.0555932 1.0414 4.50204 
v 0.0242546 -0.990648 3.19078 
v -0.228211 -1.00153 3.21347 
v -0.308487 0.853843 4.54 
v 0.256089 -0.928307 3.24111 
v 0.258784 -0.921186 3.25008 
v 0.0752994 -0.923813 3.12129 
v 0.0671811 1.07492 4.55076 
v 0.0902326 1.03959 4.49912 
v 0.230178 1.06794 4.63587 
v -0.257058 -0.861887 3.05295 
v 0.111342 1.03667 4.50543 
v 0.0982034 1.03417 4.49564 
v 0.199121 -0.862876 3.10262 
v -0.306581 0.83961 4.52226 
v -0.253692 -0.91764 3.12268 
v -0.136228 -0.990413 3.1939 
v -0.0525709 -0.738707 3.0398 
v 0.133573 -0.705507 3.065 
v 0.168172 1.07514 4.60343 
v -0.453491 0.0164398 3.98399 
v 0.0581214 1.10751 4.6047 
v 0.200063 0.905243 4.43403 
v 0.253464 -0.887594 3.21997 
v 0.0553115 -0.918107 3.11513 
v -0.249191 -0.921195 3.12835 
v -0.247357 -0.870151 3.04425 
v 0.263732 0.896942 4.50055 
v 0.0859176 -0.715613 3.06301 
v -0.0891511 -0.741264 3.03585 
v -0.196854 -0.697682 3.07622 
v 0.155307 -0.940984 3.13452 
v -0.4572 0.544884 4.58429 
v 0.36988 0.94866 4.68083 
v 0.115217 -0.837654 3.01936 
v 0.236436 -0.849907 3.16225 
v -0.0105965 -0.913944 3.10772 
v -0.0931194 1.07478 4.56889 
v -0.215137 1.08343 4.66966 
v -0.372528 0.953973 4.72603 
v -0.0613441 1.0719 4.54713 
v -0.177139 0.958841 4.49651 
v 0.249181 -0.887662 3.21655 
v -0.124678 -0.96416 3.16514 
v 0.0873274 1.07678 4.55514 
v -0.262432 -0.854655 3.05495 
v 0.239554 -0.972749 3.16799 
v 0.090831 1.02851 4.48653 
v -0.11807 -0.963195 3.16347 
v -0.30176 0.937901 4.61443 
v 0.160349 0.925853 4.42231 
v 0.159123 0.953793 4.44239 
v -0.310626 0.988967 4.68889 
v -0.284398 -0.82774 3.14442 
v 0.10372 1.03756 4.501 
v 0.0856649 1.01669 4.51138 
v 0.188629 1.0059 4.51891 
v 0.242256 0.975622 4.53183 
v 0.0175081 -0.966599 3.16407 
v -0.287436 0.926781 4.58677 
v -0.133044 -0.873617 3.06396 
v -0.257951 0.964485 4.5864 
v 0.0478349 -0.918723 3.11548 
v -0.0543594 -0.859554 3.04569 
v -0.115514 -0.973251 3.17411 
v -0.104088 -0.714153 3.046 
v 0.086803 -0.919052 3.11692 
v -0.0534871 -0.70171 3.04876 
v -0.028048 1.06106 4.51862 
v -0.126452 1.06753 4.57316 
v -0.0318236 1.04394 4.49897 
v 0.108502 -0.898402 3.09152 
v 0.105208 -1.13441 3.35731 
v 0.125752 1.11146 4.6368 
v 0.123071 0.949193 4.44404 
v -0.0284044 0.993432 4.50605 
v -0.313849 -0.861864 3.17335 
v -0.110875 -0.799067 3.00316 
v 0.284162 1.03584 4.65236 
v -0.222349 -0.905971 3.10169 
v -0.0379502 1.09326 4.56682 
v -0.453289 0.595667 4.60157 
v -1.10736 1.68683 4.22016 
v 0.152826 -0.884851 3.06699 
v -0.0647922 -0.771795 3.00543 
v -0.0396858 0.94325 4.47396 
v 0.347383 0.956069 4.66247 
v 0.448609 0.115249 4.17903 
v -0.161052 -0.709215 3.06726 
v 0.13037 -0.774238 3.07314 
v 0.0858057 0.870389 4.41576 
v -0.0045178 1.07124 4.52933 
v -0.055885 1.06716 4.53762 
v 0.0703858 -0.718785 3.05537 
v -0.46228 0.647875 4.60953 
v -0.353863 0.925487 4.693 
v -0.0740709 1.07216 4.55342 
v 0.110581 0.966042 4.46875 
v -0.117585 1.01743 4.5069 
v -0.215338 1.04384 4.62328 
v -0.319376 1.00731 4.7172 
v 0.385641 0.938928 4.70256 
v 0.0909983 -0.999915 3.20358 
v 0.208471 1.05907 4.60244 
v 0.133128 1.08798 4.59728 
v 0.0950215 0.896991 4.4074 
v -0.232977 0.831351 4.46207 
v -0.3194 0.901378 4.59778 
v -0.321251 1.02034 4.73032 
v 0.121641 1.09588 4.60595 
v -0.262919 -1.08659 3.30882 
v 0.11098 -0.740054 3.0661 
v 0.235187 -1.03839 3.23431 
v -0.0718724 -1.13605 3.36365 
v -0.254245 -0.946367 3.1485 
v 0.113153 -0.898619 3.09127 
v -0.327517 -0.858204 3.19601 
v 0.454003 0.0360918 4.14228 
v -0.163628 1.08666 4.6271 
v -0.0884023 1.06431 4.54935 
v 0.375557 0.956179 4.70008 
v 0.0820983 -0.792211 3.02022 
v -0.223251 -0.920757 3.11921 
v 0.175513 -1.04213 3.2531 
v 0.258985 0.964013 4.53859 
v 0.125509 1.09001 4.59577 
v 0.289786 0.973956 4.59725 
v 0.00163774 0.985422 4.48684 
v -0.0109375 1.05931 4.5145 
v -0.293706 -0.917615 3.11009 
v 0.00907155 0.944555 4.45238 
v 0.10961 -0.680989 3.08691 
v -0.0543583 -1.05009 3.26182 
v 0.26342 0.904238 4.50668 
usemtl Material_0
f 453 518 368 
f 213 38 296 
f 194 50 495 
f 72 545 55 
f 55 545 462 
f 540 44 432 
f 424 222 27 
f 424 266 222 
f 355 308 256 
f 676 253 425 
f 457 619 559 
f 643 457 559 
f 606 583 635 
f 639 174 508 
f 639 508 329 
f 342 23 420 
f 143 412 401 
f 133 551 321 
f 133 321 261 
f 103 496 579 
f 113 391 237 
f 224 620 299 
f 607 91 73 
f 508 91 607 
f 562 546 463 
f 562 463 204 
f 689 660 9 
f 148 706 221 
f 715 706 148 
f 759 749 277 
f 776 667 535 
f 797 807 699 
f 168 210 66 
f 168 812 210 
f 256 308 605 
f 819 844 609 
f 819 609 765 
f 255 871 22 
f 478 871 758 
f 478 758 27 
f 411 335 142 
f 881 142 335 
f 666 86 788 
f 59 843 530 
f 824 711 628 
f 705 189 456 
f 379 456 189 
f 837 22 423 
f 592 749 422 
f 592 422 130 
f 203 348 907 
f 77 265 168 
f 34 363 642 
f 102 396 754 
f 853 484 748 
f 2 861 65 
f 524 512 747 
f 922 284 320 
f 419 934 965 
f 179 860 623 
f 775 188 981 
f 264 775 981 
f 985 347 576 
f 985 576 167 
f 5 121 1007 
f 467 984 570 
f 76 984 467 
f 27 222 977 
f 529 1017 108 
f 957 431 390 
f 698 517 354 
f 721 354 517 
f 40 983 1040 
f 108 1017 503 
f 1064 511 166 
f 850 1064 166 
f 849 956 249 
f 423 22 848 
f 781 566 8 
f 4 955 565 
f 544 714 183 
f 1083 389 193 
f 159 38 58 
f 328 64 523 
f 791 4 39 
f 791 569 4 
f 1097 395 99 
f 1051 33 173 
f 358 33 1051 
f 391 796 120 
f 224 299 411 
f 1056 248 720 
f 720 32 1056 
f 439 1111 355 
f 466 439 355 
f 1086 773 930 
f 453 1034 182 
f 453 859 1034 
f 477 362 455 
f 455 627 477 
f 921 561 283 
f 921 283 719 
f 669 788 1067 
f 327 272 686 
f 1074 550 217 
f 530 378 112 
f 111 847 852 
f 1013 939 568 
f 346 188 725 
f 346 725 252 
f 212 119 984 
f 132 212 984 
f 881 747 558 
f 665 101 75 
f 968 101 665 
f 265 618 98 
f 98 1079 265 
f 773 1091 54 
f 967 298 248 
f 967 248 165 
f 1034 859 192 
f 668 345 554 
f 367 345 668 
f 604 21 1007 
f 553 131 614 
f 57 314 903 
f 534 313 925 
f 534 230 313 
f 4 565 263 
f 622 73 954 
f 622 954 508 
f 613 920 953 
f 524 747 881 
f 19 688 772 
f 997 1111 959 
f 394 611 1062 
f 721 517 632 
f 1002 632 517 
f 1002 721 632 
f 705 948 852 
f 705 852 189 
f 50 1006 8 
f 796 651 120 
f 944 980 710 
f 203 907 964 
f 355 675 466 
f 1002 699 465 
f 559 154 620 
f 620 643 559 
f 1045 251 709 
f 1045 137 251 
f 463 728 204 
f 667 516 913 
f 674 968 780 
f 1012 746 1002 
f 438 370 202 
f 319 771 85 
f 589 518 182 
f 589 182 441 
f 754 396 221 
f 312 172 565 
f 172 263 565 
f 1101 1078 217 
f 591 835 72 
f 600 611 919 
f 1101 217 550 
f 471 687 191 
f 471 191 749 
f 938 659 697 
f 745 658 329 
f 583 880 706 
f 834 13 896 
f 320 260 1026 
f 149 638 234 
f 149 234 1062 
f 43 650 276 
f 323 582 97 
f 991 323 97 
f 1090 56 452 
f 765 452 56 
f 502 1050 1110 
f 870 1110 1050 
f 130 64 494 
f 130 494 933 
f 763 207 5 
f 353 516 574 
f 491 377 63 
f 384 491 63 
f 436 451 859 
f 757 1106 1039 
f 744 450 158 
f 390 1106 58 
f 994 543 990 
f 216 811 842 
f 307 990 37 
f 435 710 476 
f 341 340 553 
f 539 113 361 
f 753 828 178 
f 503 271 164 
f 215 964 907 
f 215 907 912 
f 895 119 212 
f 834 896 272 
f 929 193 389 
f 311 929 389 
f 311 193 929 
f 713 685 823 
f 913 516 568 
f 467 865 76 
f 567 524 875 
f 801 656 96 
f 522 894 647 
f 937 1064 850 
f 334 858 538 
f 605 751 911 
f 773 54 1055 
f 1055 54 171 
f 508 1105 170 
f 290 1105 508 
f 975 952 198 
f 886 952 975 
f 649 27 758 
f 649 758 255 
f 424 649 266 
f 27 649 424 
f 71 827 461 
f 528 634 678 
f 749 191 133 
f 749 133 277 
f 1030 1025 924 
f 159 233 784 
f 738 233 159 
f 333 1103 1016 
f 1015 1083 533 
f 1015 617 1083 
f 1 153 915 
f 1 915 430 
f 918 367 16 
f 132 947 261 
f 1082 182 893 
f 147 1066 187 
f 377 370 63 
f 377 1061 370 
f 910 1110 1073 
f 1100 818 209 
f 1100 247 818 
f 121 1096 604 
f 892 752 4 
f 637 858 261 
f 891 894 646 
f 902 1011 440 
f 600 1062 611 
f 76 157 75 
f 339 81 919 
f 674 95 968 
f 401 412 53 
f 1101 418 358 
f 201 146 734 
f 631 901 932 
f 141 287 163 
f 332 84 70 
f 959 207 763 
f 52 207 959 
f 1085 1001 874 
f 1001 1085 521 
f 400 411 31 
f 299 129 411 
f 389 811 581 
f 305 811 389 
f 288 212 132 
f 834 272 327 
f 96 656 949 
f 113 535 395 
f 485 679 462 
f 485 462 545 
f 596 665 157 
f 596 157 865 
f 716 764 580 
f 716 580 24 
f 1101 358 1078 
f 719 283 965 
f 729 1031 446 
f 446 1031 977 
f 28 707 458 
f 746 597 1002 
f 529 108 164 
f 28 45 964 
f 513 977 436 
f 570 984 119 
f 255 266 649 
f 598 444 150 
f 76 865 157 
f 854 420 23 
f 343 798 238 
f 46 949 969 
f 193 1015 533 
f 235 969 569 
f 544 397 700 
f 914 397 544 
f 60 272 300 
f 60 300 1068 
f 796 391 468 
f 391 315 468 
f 1090 444 368 
f 261 861 133 
f 315 1097 468 
f 760 253 676 
f 970 643 1014 
f 547 359 1003 
f 165 618 1032 
f 165 1032 782 
f 291 678 301 
f 634 301 678 
f 1080 35 312 
f 755 312 35 
f 513 436 828 
f 198 701 426 
f 701 198 829 
f 1030 486 1046 
f 267 138 702 
f 401 955 487 
f 870 336 707 
f 627 693 813 
f 34 380 1045 
f 241 1112 199 
f 45 860 179 
f 624 1052 887 
f 883 887 1052 
f 440 1066 447 
f 109 1069 517 
f 530 695 218 
f 530 218 1017 
f 823 817 608 
f 261 802 92 
f 908 228 1020 
f 934 180 719 
f 797 966 1113 
f 754 371 29 
f 687 349 273 
f 792 229 121 
f 1004 904 325 
f 332 1004 325 
f 942 44 513 
f 25 970 262 
f 1030 924 519 
f 665 504 1092 
f 968 665 1092 
f 137 633 925 
f 633 249 956 
f 959 1111 439 
f 205 1057 225 
f 897 960 717 
f 710 980 476 
f 569 496 114 
f 874 1055 323 
f 584 1075 825 
f 584 17 1075 
f 115 439 466 
f 201 734 459 
f 563 337 278 
f 957 278 337 
f 534 1018 830 
f 604 1096 1111 
f 1050 336 870 
f 357 316 413 
f 748 488 138 
f 425 276 1084 
f 734 855 306 
f 358 418 33 
f 847 930 1001 
f 540 432 949 
f 624 887 514 
f 93 347 985 
f 932 901 939 
f 802 519 1025 
f 640 838 888 
f 170 329 508 
f 230 814 313 
f 324 447 1066 
f 1007 21 763 
f 1007 763 5 
f 111 536 1107 
f 524 567 512 
f 385 726 317 
f 889 650 253 
f 87 455 362 
f 201 341 435 
f 1068 311 680 
f 894 891 998 
f 722 693 455 
f 933 592 130 
f 384 592 933 
f 103 509 961 
f 729 681 1041 
f 554 729 1041 
f 889 253 760 
f 637 783 231 
f 1025 783 637 
f 1012 465 82 
f 305 386 842 
f 1055 171 548 
f 78 925 633 
f 839 479 723 
f 1011 1047 577 
f 730 153 1 
f 1 430 730 
f 130 523 64 
f 134 808 390 
f 933 494 384 
f 931 837 944 
f 944 837 423 
f 883 398 887 
f 505 724 509 
f 1003 203 547 
f 747 279 1089 
f 945 372 1087 
f 659 834 327 
f 703 239 575 
f 1021 239 703 
f 615 712 248 
f 638 1022 408 
f 234 638 408 
f 583 661 880 
f 442 661 583 
f 538 858 637 
f 791 39 235 
f 569 791 235 
f 897 364 420 
f 119 890 905 
f 6 687 471 
f 437 144 679 
f 1012 694 826 
f 146 476 848 
f 146 435 476 
f 228 908 656 
f 886 1035 952 
f 384 302 592 
f 926 1008 63 
f 926 63 370 
f 183 914 544 
f 942 753 292 
f 942 292 432 
f 1027 992 151 
f 123 414 469 
f 414 1032 469 
f 124 10 636 
f 554 1041 831 
f 682 350 241 
f 515 855 851 
f 515 851 1023 
f 75 157 665 
f 160 525 644 
f 525 160 492 
f 510 364 539 
f 361 510 539 
f 480 297 210 
f 883 1052 226 
f 809 200 820 
f 612 1033 662 
f 612 123 1033 
f 329 658 676 
f 593 1050 652 
f 593 652 71 
f 600 373 690 
f 640 537 1027 
f 311 389 563 
f 585 158 610 
f 585 610 181 
f 695 843 717 
f 731 836 436 
f 731 436 859 
f 766 161 999 
f 653 61 281 
f 653 821 61 
f 555 851 22 
f 799 90 1061 
f 1032 803 782 
f 676 658 67 
f 760 676 67 
f 870 707 464 
f 785 464 707 
f 927 268 400 
f 99 468 1053 
f 99 376 468 
f 309 7 735 
f 774 104 398 
f 1002 465 1012 
f 739 647 200 
f 688 598 772 
f 1054 754 685 
f 30 345 590 
f 895 891 890 
f 237 510 361 
f 237 361 113 
f 832 287 3 
f 409 497 242 
f 898 57 47 
f 332 840 84 
f 789 709 34 
f 293 34 709 
f 1015 1068 300 
f 481 592 317 
f 293 709 866 
f 506 884 399 
f 243 969 818 
f 461 827 205 
f 1052 205 827 
f 1091 601 54 
f 448 56 1090 
f 1040 983 294 
f 402 294 983 
f 48 299 154 
f 154 299 620 
f 433 728 411 
f 142 433 411 
f 680 272 60 
f 14 740 892 
f 720 362 32 
f 477 32 362 
f 226 1110 910 
f 883 226 910 
f 680 563 278 
f 463 7 309 
f 72 55 591 
f 1028 867 73 
f 508 867 1028 
f 638 862 1022 
f 914 767 397 
f 1113 403 797 
f 543 528 678 
f 8 249 781 
f 230 184 814 
f 184 445 814 
f 249 314 849 
f 1036 993 210 
f 732 458 289 
f 425 174 639 
f 1108 680 213 
f 325 564 332 
f 599 753 178 
f 365 753 599 
f 451 281 859 
f 842 386 116 
f 336 1050 976 
f 727 343 77 
f 155 553 868 
f 1100 509 103 
f 103 579 1100 
f 251 137 925 
f 251 925 814 
f 539 876 113 
f 741 799 1061 
f 550 1074 593 
f 899 294 402 
f 987 227 986 
f 68 939 742 
f 976 593 1074 
f 1011 766 117 
f 766 999 117 
f 1112 241 350 
f 921 180 257 
f 719 180 921 
f 353 568 516 
f 848 980 423 
f 757 839 20 
f 276 650 387 
f 717 843 574 
f 962 833 1020 
f 793 642 1042 
f 1057 624 274 
f 111 930 847 
f 310 526 392 
f 392 239 492 
f 754 221 845 
f 1097 315 395 
f 34 293 232 
f 411 400 335 
f 895 212 891 
f 381 143 982 
f 195 143 381 
f 195 381 982 
f 788 786 1067 
f 521 1085 852 
f 521 852 847 
f 923 182 1034 
f 221 706 845 
f 195 788 86 
f 143 195 86 
f 411 129 31 
f 625 1000 15 
f 291 37 678 
f 291 104 37 
f 1076 262 500 
f 183 767 914 
f 1090 518 589 
f 441 1090 589 
f 982 143 71 
f 982 71 461 
f 553 155 341 
f 800 44 206 
f 320 869 777 
f 959 763 997 
f 638 458 862 
f 247 1100 579 
f 741 277 1104 
f 757 1039 839 
f 531 567 875 
f 875 281 531 
f 613 683 920 
f 552 978 392 
f 684 496 103 
f 877 896 13 
f 256 605 1058 
f 404 776 736 
f 404 364 1065 
f 404 1065 776 
f 178 828 836 
f 798 343 856 
f 564 798 856 
f 322 1009 811 
f 576 629 868 
f 814 925 313 
f 537 888 597 
f 526 338 268 
f 526 268 472 
f 988 99 1048 
f 495 99 988 
f 821 977 1031 
f 473 822 698 
f 751 308 602 
f 1098 751 602 
f 453 731 859 
f 979 380 474 
f 285 1051 173 
f 354 500 473 
f 115 370 439 
f 115 926 370 
f 899 269 1040 
f 997 604 1111 
f 61 821 30 
f 586 705 297 
f 210 297 66 
f 492 1077 374 
f 374 1077 310 
f 307 869 139 
f 244 809 273 
f 556 511 1064 
f 556 1064 937 
f 305 842 811 
f 702 646 894 
f 1068 193 311 
f 254 579 214 
f 496 214 579 
f 848 22 851 
f 234 660 250 
f 9 660 234 
f 1113 1000 625 
f 6 471 696 
f 328 523 759 
f 759 523 422 
f 454 455 87 
f 78 956 1018 
f 1009 581 811 
f 247 579 254 
f 243 247 254 
f 1062 250 394 
f 520 749 481 
f 815 24 109 
f 756 109 24 
f 842 116 616 
f 41 858 334 
f 606 635 11 
f 797 62 807 
f 921 218 695 
f 250 541 394 
f 529 530 1017 
f 426 943 69 
f 426 838 943 
f 189 852 1085 
f 609 844 472 
f 1000 1093 258 
f 460 1051 961 
f 333 767 670 
f 591 378 835 
f 420 965 283 
f 133 191 551 
f 225 557 205 
f 614 131 562 
f 971 409 430 
f 971 497 409 
f 201 435 146 
f 334 196 778 
f 1084 174 425 
f 180 489 257 
f 235 152 949 
f 245 59 841 
f 112 378 1028 
f 821 1031 30 
f 402 739 899 
f 160 1034 192 
f 923 1034 160 
f 717 960 695 
f 648 958 1111 
f 648 51 958 
f 175 351 104 
f 398 883 910 
f 670 1075 258 
f 670 825 1075 
f 768 5 207 
f 371 754 1054 
f 935 227 987 
f 351 1109 514 
f 104 351 514 
f 708 769 119 
f 1073 1110 870 
f 804 536 601 
f 804 601 1091 
f 935 679 571 
f 586 948 705 
f 421 948 586 
f 950 603 199 
f 691 603 950 
f 1037 301 634 
f 645 710 155 
f 578 484 711 
f 199 682 241 
f 885 350 682 
f 1054 685 713 
f 643 382 457 
f 170 745 329 
f 1022 217 1078 
f 843 245 574 
f 245 843 59 
f 689 541 250 
f 393 630 111 
f 525 448 644 
f 717 516 897 
f 79 499 24 
f 988 742 903 
f 139 869 480 
f 100 499 305 
f 100 305 1069 
f 211 831 737 
f 1025 1030 783 
f 578 748 484 
f 833 366 1020 
f 1020 366 908 
f 906 670 714 
f 502 1110 652 
f 502 652 1050 
f 537 750 1027 
f 1030 519 191 
f 916 390 58 
f 4 752 39 
f 218 489 271 
f 800 977 44 
f 681 729 446 
f 847 1001 521 
f 57 939 47 
f 928 47 939 
f 824 572 674 
f 435 155 710 
f 435 341 155 
f 906 825 670 
f 280 150 240 
f 944 423 980 
f 69 1035 886 
f 69 943 1035 
f 917 427 507 
f 1027 151 943 
f 1075 1010 258 
f 96 949 1081 
f 432 1081 949 
f 696 471 749 
f 520 696 749 
f 64 384 494 
f 1109 786 514 
f 796 50 8 
f 389 337 563 
f 912 777 307 
f 998 636 10 
f 849 1018 956 
f 454 298 501 
f 538 124 334 
f 538 878 124 
f 934 719 965 
f 768 1104 5 
f 1074 732 976 
f 170 1105 608 
f 290 608 1105 
f 1048 68 742 
f 629 155 868 
f 329 425 639 
f 1080 565 53 
f 1080 53 86 
f 1059 902 805 
f 694 718 826 
f 88 826 718 
f 821 451 436 
f 231 951 761 
f 200 761 951 
f 915 153 219 
f 1028 378 591 
f 1076 457 382 
f 261 321 802 
f 344 972 189 
f 762 817 940 
f 762 940 685 
f 383 657 1093 
f 37 774 912 
f 37 912 307 
f 881 335 524 
f 771 319 928 
f 679 135 1005 
f 135 679 485 
f 934 419 110 
f 819 448 525 
f 654 556 937 
f 900 654 937 
f 326 35 14 
f 677 14 35 
f 893 644 448 
f 540 206 44 
f 229 261 947 
f 695 530 843 
f 161 1049 427 
f 708 119 702 
f 81 860 373 
f 623 860 81 
f 986 227 591 
f 27 152 478 
f 401 1101 143 
f 670 258 42 
f 964 215 1073 
f 794 964 1073 
f 488 824 482 
f 63 1008 94 
f 302 63 94 
f 1026 536 922 
f 1026 105 536 
f 788 195 557 
f 1057 788 557 
f 825 906 584 
f 594 288 223 
f 221 396 148 
f 737 681 944 
f 695 960 995 
f 280 1020 772 
f 1068 680 60 
f 459 734 306 
f 45 28 1062 
f 28 149 1062 
f 954 73 867 
f 954 867 508 
f 57 40 849 
f 404 539 364 
f 404 876 539 
f 113 736 535 
f 325 414 123 
f 432 44 942 
f 73 1013 353 
f 645 629 846 
f 42 1093 1071 
f 541 331 394 
f 38 549 296 
f 259 443 714 
f 626 844 493 
f 690 373 860 
f 690 860 45 
f 474 642 979 
f 65 449 792 
f 27 977 540 
f 481 749 592 
f 979 793 125 
f 977 1043 446 
f 727 1038 303 
f 818 949 656 
f 699 507 162 
f 6 349 687 
f 473 500 822 
f 599 19 365 
f 821 436 977 
f 1102 617 1015 
f 269 405 1040 
f 897 516 1065 
f 776 1065 516 
f 874 773 1055 
f 878 663 124 
f 603 1088 459 
f 989 203 260 
f 989 348 203 
f 613 17 584 
f 938 834 659 
f 13 834 938 
f 264 252 725 
f 640 888 537 
f 746 790 537 
f 610 805 979 
f 375 573 542 
f 375 542 378 
f 347 211 629 
f 428 211 347 
f 936 967 165 
f 936 165 782 
f 267 853 748 
f 500 262 346 
f 730 787 181 
f 787 585 181 
f 460 541 1051 
f 552 526 575 
f 492 844 819 
f 173 401 487 
f 913 395 18 
f 231 538 637 
f 702 905 646 
f 571 227 935 
f 134 581 322 
f 909 134 322 
f 368 444 688 
f 368 688 599 
f 234 1019 9 
f 41 223 261 
f 594 223 41 
f 756 24 499 
f 540 949 152 
f 1052 1110 226 
f 652 1110 1052 
f 769 185 570 
f 413 148 671 
f 212 998 891 
f 824 628 572 
f 415 506 505 
f 415 505 209 
f 759 741 1061 
f 706 661 83 
f 564 723 332 
f 401 418 1101 
f 384 64 491 
f 655 466 675 
f 58 38 916 
f 139 993 1036 
f 440 447 902 
f 961 1051 684 
f 1016 1103 1071 
f 672 1027 409 
f 167 142 985 
f 996 142 167 
f 213 916 38 
f 278 916 213 
f 355 256 675 
f 1052 624 205 
f 220 415 209 
f 787 730 790 
f 427 1049 465 
f 224 728 643 
f 1041 681 831 
f 50 376 99 
f 384 63 302 
f 284 948 421 
f 393 948 284 
f 575 392 978 
f 1030 1046 783 
f 829 198 952 
f 349 80 244 
f 232 244 80 
f 890 646 905 
f 803 1087 372 
f 803 716 1087 
f 151 1035 943 
f 684 285 114 
f 569 487 955 
f 662 618 265 
f 1033 618 662 
f 975 198 69 
f 570 504 665 
f 454 615 298 
f 689 1019 358 
f 9 1019 689 
f 303 456 126 
f 529 679 375 
f 488 578 824 
f 470 1016 3 
f 342 3 1016 
f 337 581 431 
f 134 431 581 
f 766 1049 161 
f 710 846 944 
f 710 645 846 
f 848 476 980 
f 534 184 230 
f 830 184 534 
f 399 394 331 
f 815 691 26 
f 876 404 736 
f 876 736 113 
f 1074 862 732 
f 463 546 340 
f 139 480 993 
f 58 1106 757 
f 267 11 156 
f 267 156 853 
f 725 188 775 
f 420 854 704 
f 235 39 152 
f 541 460 331 
f 1076 500 48 
f 54 601 171 
f 46 235 949 
f 1057 205 624 
f 282 357 413 
f 1047 82 465 
f 809 820 273 
f 643 1063 382 
f 407 1099 1069 
f 529 375 378 
f 727 77 1038 
f 351 291 177 
f 756 499 100 
f 310 1077 875 
f 123 469 1033 
f 688 444 598 
f 979 642 793 
f 505 506 724 
f 180 934 489 
f 1107 536 804 
f 534 925 1018 
f 677 1080 86 
f 326 263 755 
f 172 755 263 
f 298 615 248 
f 200 899 739 
f 1047 356 82 
f 356 1047 1011 
f 953 443 864 
f 889 760 67 
f 874 1001 773 
f 379 189 972 
f 379 972 126 
f 707 289 458 
f 547 179 359 
f 723 727 303 
f 856 727 723 
f 508 174 91 
f 261 858 41 
f 316 186 413 
f 200 527 761 
f 970 1014 981 
f 36 771 387 
f 325 612 564 
f 656 908 366 
f 366 818 656 
f 17 15 1010 
f 1075 17 1010 
f 999 187 117 
f 161 187 999 
f 319 898 928 
f 547 45 179 
f 732 862 458 
f 454 304 455 
f 801 96 641 
f 96 1081 641 
f 850 166 128 
f 95 674 572 
f 625 403 1113 
f 771 901 73 
f 928 901 771 
f 767 1066 147 
f 391 395 315 
f 113 395 391 
f 83 661 442 
f 732 289 976 
f 243 254 214 
f 355 1111 308 
f 215 910 1073 
f 774 910 215 
f 202 90 768 
f 645 155 629 
f 53 955 401 
f 711 475 628 
f 337 431 957 
f 510 342 364 
f 342 420 364 
f 122 509 724 
f 1095 357 946 
f 232 80 34 
f 756 100 109 
f 202 52 438 
f 334 636 196 
f 334 124 636 
f 244 273 349 
f 503 1017 218 
f 30 281 61 
f 1077 281 875 
f 898 983 40 
f 319 983 898 
f 667 913 18 
f 50 194 1006 
f 740 816 1023 
f 816 515 1023 
f 1082 893 448 
f 1108 272 680 
f 259 714 700 
f 89 1049 577 
f 932 939 1013 
f 977 513 44 
f 1058 829 952 
f 944 1043 266 
f 12 603 459 
f 105 1003 601 
f 495 988 903 
f 365 292 753 
f 202 1061 90 
f 48 457 1076 
f 428 347 93 
f 130 422 523 
f 1067 682 199 
f 816 306 515 
f 855 515 306 
f 107 344 738 
f 366 209 818 
f 877 974 1102 
f 377 270 1061 
f 1083 193 533 
f 1072 26 691 
f 1051 541 689 
f 378 542 835 
f 132 261 223 
f 869 320 480 
f 107 738 159 
f 1084 387 771 
f 273 1030 687 
f 486 1030 273 
f 931 944 266 
f 439 370 438 
f 290 823 608 
f 36 650 889 
f 85 36 889 
f 522 702 894 
f 20 159 58 
f 436 836 828 
f 3 120 651 
f 465 89 1047 
f 143 593 71 
f 143 550 593 
f 300 1102 1015 
f 300 877 1102 
f 87 615 454 
f 658 745 127 
f 224 643 620 
f 988 1048 742 
f 621 210 532 
f 899 200 809 
f 432 292 857 
f 5 1104 121 
f 243 818 247 
f 900 937 128 
f 1090 368 518 
f 225 1057 557 
f 327 784 106 
f 704 419 965 
f 590 918 531 
f 392 575 239 
f 1030 191 687 
f 642 363 1042 
f 383 1000 1113 
f 211 973 831 
f 537 409 750 
f 795 333 1016 
f 121 1104 65 
f 175 104 291 
f 175 291 351 
f 492 192 1077 
f 385 317 592 
f 79 369 941 
f 997 21 604 
f 266 1043 222 
f 65 1104 277 
f 685 127 745 
f 121 65 792 
f 777 869 307 
f 229 449 261 
f 1081 432 641 
f 1046 486 417 
f 408 1078 234 
f 1022 1078 408 
f 84 410 941 
f 70 84 941 
f 495 50 99 
f 265 1079 812 
f 774 37 104 
f 536 105 601 
f 720 248 712 
f 142 996 145 
f 1065 364 897 
f 924 1025 519 
f 747 16 279 
f 16 668 279 
f 547 203 45 
f 964 794 28 
f 1072 24 815 
f 702 488 482 
f 1012 826 746 
f 1051 689 358 
f 503 164 108 
f 371 1054 282 
f 957 390 278 
f 840 616 116 
f 475 711 484 
f 768 207 202 
f 220 209 339 
f 339 209 240 
f 715 635 706 
f 706 635 583 
f 584 683 613 
f 261 92 637 
f 209 366 240 
f 737 944 846 
f 95 572 968 
f 145 614 433 
f 562 433 614 
f 1003 105 203 
f 792 449 229 
f 702 119 905 
f 73 353 692 
f 88 718 246 
f 540 977 800 
f 540 800 206 
f 545 135 485 
f 753 942 828 
f 299 500 129 
f 861 449 65 
f 535 18 395 
f 455 693 627 
f 33 418 401 
f 889 319 85 
f 653 451 821 
f 145 553 614 
f 1089 558 747 
f 136 558 1089 
f 801 641 857 
f 276 387 1084 
f 903 314 194 
f 772 598 150 
f 627 98 477 
f 759 277 741 
f 814 709 251 
f 36 387 650 
f 43 253 650 
f 797 699 966 
f 898 47 928 
f 767 810 397 
f 912 348 490 
f 912 490 777 
f 59 530 863 
f 296 549 1108 
f 213 296 1108 
f 716 24 1072 
f 45 203 964 
f 861 261 449 
f 596 570 665 
f 865 570 596 
f 984 76 132 
f 286 109 517 
f 805 450 1059 
f 781 287 832 
f 552 392 526 
f 529 164 679 
f 630 922 111 
f 576 347 629 
f 310 338 526 
f 875 338 310 
f 593 976 1050 
f 849 314 57 
f 520 125 793 
f 77 343 265 
f 671 148 396 
f 1026 922 320 
f 1071 588 23 
f 554 345 729 
f 1020 228 292 
f 794 464 785 
f 577 1049 766 
f 833 240 366 
f 1002 966 699 
f 220 884 415 
f 415 884 506 
f 951 820 200 
f 1012 82 1070 
f 501 298 967 
f 1054 208 282 
f 902 163 805 
f 426 701 1098 
f 105 260 203 
f 1026 260 105 
f 369 904 1004 
f 561 995 283 
f 765 56 819 
f 440 187 1066 
f 970 1063 643 
f 128 190 900 
f 663 878 527 
f 240 150 444 
f 838 640 943 
f 546 131 340 
f 553 340 131 
f 824 873 482 
f 277 133 861 
f 917 507 259 
f 38 159 784 
f 569 955 4 
f 1012 1070 694 
f 604 1007 121 
f 686 272 1108 
f 1059 450 744 
f 771 595 1084 
f 844 626 472 
f 372 945 501 
f 492 374 392 
f 374 310 392 
f 570 119 769 
f 816 666 669 
f 816 740 666 
f 28 458 149 
f 109 603 815 
f 1107 804 1091 
f 467 570 865 
f 406 395 568 
f 161 917 275 
f 161 427 917 
f 871 255 758 
f 684 103 961 
f 348 989 490 
f 949 818 969 
f 912 774 215 
f 20 58 757 
f 42 1103 333 
f 42 333 670 
f 1039 770 479 
f 1039 479 839 
f 145 433 142 
f 273 820 486 
f 513 828 942 
f 996 868 145 
f 417 820 951 
f 921 257 218 
f 122 724 331 
f 339 919 611 
f 722 455 304 
f 909 770 808 
f 684 1051 285 
f 43 276 425 
f 391 510 237 
f 391 120 510 
f 75 958 51 
f 140 233 738 
f 991 233 140 
f 214 969 243 
f 1013 631 932 
f 400 338 875 
f 267 442 606 
f 1060 233 991 
f 152 27 540 
f 559 619 48 
f 457 48 619 
f 143 86 412 
f 866 244 232 
f 231 783 951 
f 1046 951 783 
f 20 303 126 
f 321 519 802 
f 605 308 751 
f 292 772 1020 
f 16 367 668 
f 666 677 86 
f 1071 23 342 
f 40 57 898 
f 286 698 822 
f 286 517 698 
f 286 822 252 
f 652 827 71 
f 346 262 188 
f 771 73 595 
f 250 1062 234 
f 877 13 974 
f 1086 930 111 
f 1086 111 1107 
f 115 466 655 
f 115 655 926 
f 917 700 275 
f 275 700 810 
f 535 667 18 
f 453 182 518 
f 20 126 972 
f 198 426 69 
f 21 997 763 
f 320 421 480 
f 1088 483 459 
f 317 726 153 
f 307 139 990 
f 479 770 909 
f 590 531 30 
f 480 421 297 
f 676 425 329 
f 621 1036 210 
f 531 512 567 
f 531 918 512 
f 777 260 320 
f 702 138 488 
f 550 143 1101 
f 433 204 728 
f 995 561 695 
f 1044 882 249 
f 802 1025 92 
f 1069 305 389 
f 83 402 889 
f 353 245 673 
f 1021 49 239 
f 962 240 833 
f 48 154 559 
f 599 688 19 
f 612 325 123 
f 49 492 239 
f 77 168 66 
f 733 704 854 
f 985 142 428 
f 985 428 93 
f 1073 464 794 
f 819 56 448 
f 28 794 785 
f 803 372 782 
f 782 372 936 
f 863 841 59 
f 866 232 293 
f 163 380 805 
f 51 132 76 
f 51 76 75 
f 737 629 211 
f 132 51 360 
f 398 910 774 
f 262 970 981 
f 110 966 934 
f 881 428 142 
f 601 359 171 
f 1003 359 601 
f 173 487 285 
f 197 359 179 
f 899 809 269 
f 909 808 134 
f 1040 294 899 
f 357 186 316 
f 231 761 538 
f 780 1092 504 
f 780 968 1092 
f 827 652 1052 
f 252 500 346 
f 25 1063 970 
f 934 966 407 
f 517 966 1002 
f 538 761 878 
f 81 197 623 
f 179 623 197 
f 97 697 429 
f 1060 429 697 
f 1060 97 429 
f 564 612 798 
f 119 895 890 
f 668 554 279 
f 501 967 372 
f 281 192 859 
f 382 1063 25 
f 25 1076 382 
f 1085 874 323 
f 824 578 711 
f 674 780 824 
f 796 376 50 
f 1108 549 686 
f 989 260 777 
f 490 989 777 
f 618 165 1056 
f 612 238 798 
f 422 749 759 
f 194 314 1044 
f 403 625 15 
f 420 283 995 
f 850 128 937 
f 32 98 1056 
f 716 803 764 
f 815 603 691 
f 678 37 990 
f 779 511 556 
f 878 761 527 
f 787 158 585 
f 702 442 267 
f 441 182 1082 
f 78 1018 925 
f 673 692 353 
f 701 388 1098 
f 292 228 857 
f 222 1043 977 
f 353 574 245 
f 678 990 543 
f 1028 591 227 
f 531 281 30 
f 897 995 960 
f 897 420 995 
f 368 169 453 
f 400 524 335 
f 400 875 524 
f 394 339 611 
f 197 81 339 
f 823 940 817 
f 328 759 270 
f 971 219 497 
f 85 771 36 
f 961 122 460 
f 8 1006 249 
f 607 73 622 
f 607 622 508 
f 253 43 425 
f 517 1069 1099 
f 751 1098 911 
f 350 1109 304 
f 992 318 1008 
f 992 672 318 
f 369 580 904 
f 79 580 369 
f 323 140 1085 
f 416 163 872 
f 324 872 163 
f 742 939 57 
f 199 1112 950 
f 400 31 129 
f 441 1082 448 
f 448 1090 441 
f 786 1109 885 
f 936 372 967 
f 1046 417 951 
f 244 269 809 
f 583 606 442 
f 1091 1086 1107 
f 264 725 775 
f 129 500 927 
f 183 714 767 
f 409 242 672 
f 672 242 560 
f 1113 110 963 
f 1113 963 383 
f 399 331 724 
f 126 456 379 
f 703 74 1021 
f 700 714 544 
f 135 72 1005 
f 303 20 839 
f 723 303 839 
f 72 135 545 
f 51 648 360 
f 132 360 648 
f 506 399 724 
f 832 651 566 
f 823 685 940 
f 252 822 500 
f 1013 568 353 
f 581 337 389 
f 250 660 689 
f 267 606 11 
f 631 1013 73 
f 826 790 746 
f 568 395 913 
f 189 1085 344 
f 187 440 1011 
f 1080 677 35 
f 962 1020 280 
f 410 84 386 
f 67 658 127 
f 1023 892 740 
f 89 465 1049 
f 896 300 272 
f 896 877 300 
f 388 911 1098 
f 979 805 380 
f 795 767 333 
f 1112 454 950 
f 137 287 781 
f 1073 870 464 
f 1112 304 454 
f 64 377 491 
f 370 1061 202 
f 610 979 125 
f 151 992 1008 
f 927 400 129 
f 83 442 702 
f 653 281 451 
f 935 462 679 
f 204 433 562 
f 388 605 911 
f 950 454 945 
f 950 945 691 
f 14 263 326 
f 4 263 14 
f 240 962 280 
f 373 919 81 
f 946 11 1095 
f 196 636 778 
f 339 240 444 
f 566 651 796 
f 102 754 29 
f 551 191 321 
f 1005 375 679 
f 672 560 318 
f 522 402 702 
f 571 1028 227 
f 218 257 489 
f 680 278 213 
f 1000 383 1093 
f 519 321 191 
f 633 956 78 
f 3 287 470 
f 114 285 487 
f 411 728 224 
f 752 152 39 
f 1115 1009 322 
f 479 332 723 
f 993 480 210 
f 1109 350 885 
f 882 314 249 
f 481 317 520 
f 1062 690 45 
f 600 690 1062 
f 1113 966 110 
f 916 278 390 
f 354 721 602 
f 148 635 715 
f 256 1058 952 
f 1031 345 30 
f 695 561 921 
f 817 762 608 
f 1070 246 694 
f 722 587 693 
f 722 301 587 
f 902 324 163 
f 934 271 489 
f 907 348 912 
f 1045 709 789 
f 284 630 393 
f 3 651 832 
f 149 458 638 
f 662 238 612 
f 256 1035 655 
f 952 1035 256 
f 520 1042 6 
f 344 1085 140 
f 140 738 344 
f 972 344 107 
f 159 972 107 
f 1015 193 1068 
f 1044 314 882 
f 826 88 790 
f 332 616 840 
f 953 864 62 
f 52 439 438 
f 842 616 216 
f 923 160 644 
f 812 587 532 
f 114 487 569 
f 205 557 461 
f 402 983 319 
f 655 151 926 
f 1011 577 766 
f 377 64 270 
f 170 762 745 
f 608 762 170 
f 1072 1087 716 
f 496 569 969 
f 555 22 871 
f 350 304 1112 
f 1061 270 759 
f 1044 249 1006 
f 1044 1006 194 
f 290 879 713 
f 915 971 430 
f 402 236 889 
f 522 739 402 
f 99 1053 1097 
f 111 852 393 
f 385 592 302 
f 46 969 235 
f 445 709 814 
f 184 709 445 
f 893 182 923 
f 745 762 685 
f 266 255 931 
f 837 931 255 
f 840 386 84 
f 116 386 840 
f 684 114 496 
f 452 444 1090 
f 1032 618 469 
f 1115 322 581 
f 889 67 127 
f 566 781 832 
f 468 376 796 
f 575 978 552 
f 151 1008 926 
f 413 664 282 
f 555 1023 851 
f 892 1023 555 
f 566 796 8 
f 428 136 211 
f 34 80 363 
f 663 10 124 
f 465 162 427 
f 654 779 556 
f 380 34 642 
f 184 830 866 
f 536 111 922 
f 322 811 216 
f 853 156 475 
f 927 500 472 
f 797 15 17 
f 797 17 62 
f 1004 332 70 
f 330 986 591 
f 696 520 6 
f 831 681 737 
f 673 245 841 
f 363 6 1042 
f 1042 520 793 
f 1096 648 1111 
f 1096 947 648 
f 928 939 901 
f 1058 701 829 
f 281 1077 192 
f 629 737 846 
f 354 473 698 
f 121 947 1096 
f 568 939 68 
f 610 125 181 
f 462 935 55 
f 736 776 535 
f 767 872 324 
f 602 500 354 
f 557 195 461 
f 195 982 461 
f 767 714 670 
f 104 887 398 
f 1071 1093 657 
f 1071 657 588 
f 217 1022 1074 
f 172 312 755 
f 367 590 345 
f 918 590 367 
f 92 1025 637 
f 699 162 465 
f 14 892 4 
f 634 528 1029 
f 634 1029 352 
f 1074 1022 862 
f 507 427 162 
f 1104 90 741 
f 655 675 256 
f 33 401 173 
f 405 849 1040 
f 40 1040 849 
f 602 721 1002 
f 904 580 764 
f 362 712 87 
f 140 323 991 
f 362 720 712 
f 528 543 1029 
f 1045 789 34 
f 406 99 395 
f 730 317 153 
f 704 965 420 
f 311 563 680 
f 178 169 368 
f 599 178 368 
f 961 509 122 
f 641 432 857 
f 801 857 656 
f 265 343 238 
f 1102 974 617 
f 216 616 322 
f 312 565 1080 
f 483 735 341 
f 309 735 483 
f 268 338 400 
f 339 452 472 
f 505 1100 209 
f 920 443 953 
f 991 97 1060 
f 1057 274 786 
f 917 259 700 
f 136 428 881 
f 564 856 723 
f 1115 581 1009 
f 767 416 872 
f 702 1114 83 
f 648 947 132 
f 52 202 207 
f 1069 1083 617 
f 482 708 702 
f 159 20 972 
f 546 562 131 
f 621 994 1036 
f 976 289 336 
f 1048 406 68 
f 25 262 1076 
f 856 343 727 
f 568 68 406 
f 803 1032 764 
f 388 1058 605 
f 813 98 627 
f 228 656 857 
f 781 633 137 
f 351 177 304 
f 722 304 177 
f 570 185 434 
f 697 327 106 
f 697 659 327 
f 697 106 1060 
f 655 1035 151 
f 137 1045 380 
f 733 963 110 
f 704 733 110 
f 122 331 460 
f 527 10 663 
f 290 713 823 
f 42 258 1093 
f 776 516 667 
f 275 743 161 
f 810 743 275 
f 52 959 439 
f 894 998 10 
f 631 73 901 
f 488 748 578 
f 1057 786 788 
f 600 919 373 
f 706 880 661 
f 902 447 324 
f 83 1114 402 
f 702 402 1114 
f 1109 351 304 
f 1028 1094 508 
f 854 23 588 
f 479 909 322 
f 808 770 390 
f 918 16 512 
f 747 512 16 
f 53 565 955 
f 613 953 62 
f 830 244 866 
f 849 830 1018 
f 262 981 188 
f 790 430 409 
f 537 790 409 
f 79 24 580 
f 160 192 492 
f 517 407 966 
f 707 336 289 
f 309 483 1088 
f 112 863 530 
f 748 138 267 
f 456 66 705 
f 613 62 17 
f 197 339 548 
f 813 693 1079 
f 406 1048 99 
f 148 1095 635 
f 733 657 963 
f 383 963 657 
f 136 881 558 
f 94 1008 318 
f 671 664 413 
f 469 618 1033 
f 14 677 666 
f 740 14 666 
f 475 484 853 
f 700 397 810 
f 503 218 271 
f 1043 681 446 
f 1027 943 640 
f 941 369 70 
f 369 1004 70 
f 79 941 410 
f 788 669 666 
f 32 477 98 
f 701 1058 388 
f 1069 389 1083 
f 1028 692 673 
f 1028 73 692 
f 885 1067 786 
f 885 682 1067 
f 987 55 935 
f 987 986 55 
f 831 973 554 
f 486 820 417 
f 328 270 64 
f 132 223 288 
f 1072 815 26 
f 286 252 264 
f 365 772 292 
f 365 19 772 
f 628 475 572 
f 15 1000 258 
f 403 15 797 
f 110 419 704 
f 324 1066 767 
f 479 616 332 
f 479 322 616 
f 390 431 134 
f 109 100 1069 
f 194 495 903 
f 750 409 1027 
f 474 380 642 
f 537 597 746 
f 12 199 603 
f 705 66 297 
f 342 1016 1071 
f 15 258 1010 
f 542 573 835 
f 922 630 284 
f 836 169 178 
f 812 1079 587 
f 1002 1098 602 
f 229 947 121 
f 501 945 454 
f 712 615 87 
f 73 91 595 
f 996 167 868 
f 848 855 734 
f 848 734 146 
f 1079 98 813 
f 577 1047 89 
f 1005 1024 375 
f 1024 1005 72 
f 147 187 161 
f 1011 117 187 
f 1071 1103 42 
f 672 992 1027 
f 848 851 855 
f 282 946 357 
f 28 785 707 
f 1002 426 1098 
f 838 426 1002 
f 208 879 282 
f 713 879 208 
f 1091 773 1086 
f 505 509 1100 
f 728 463 643 
f 463 309 643 
f 1043 944 681 
f 1097 1053 468 
f 854 657 733 
f 1106 770 1039 
f 854 588 657 
f 340 7 463 
f 82 246 1070 
f 1056 98 618 
f 530 529 378 
f 816 669 12 
f 1067 12 669 
f 199 12 1067 
f 525 492 819 
f 255 22 837 
f 319 236 402 
f 768 90 1104 
f 2 65 277 
f 755 35 326 
f 2 277 861 
f 41 334 778 
f 900 602 654 
f 779 654 602 
f 779 602 118 
f 69 886 975 
f 693 587 1079 
f 603 309 1088 
f 109 286 264 
f 109 309 603 
f 309 109 643 
f 482 769 708 
f 482 185 769 
f 200 647 527 
f 493 844 492 
f 1095 11 635 
f 729 345 1031 
f 812 532 210 
f 264 981 1014 
f 621 1029 994 
f 994 1029 543 
f 767 795 416 
f 214 496 969 
f 249 633 781 
f 83 845 706 
f 891 646 890 
f 1019 1078 358 
f 410 386 305 
f 349 6 80 
f 269 244 830 
f 691 1087 1072 
f 945 1087 691 
f 722 177 301 
f 291 301 177 
f 412 86 53 
f 265 238 662 
f 973 279 554 
f 514 887 104 
f 405 830 849 
f 269 830 405 
f 1106 390 770 
f 3 342 120 
f 510 120 342 
f 694 246 718 
f 136 973 211 
f 973 1089 279 
f 274 624 786 
f 514 786 624 
f 575 74 703 
f 74 626 1021 
f 49 626 493 
f 492 49 493 
f 1021 626 49 
f 923 644 893 
f 517 1099 407 
f 399 806 394 
f 1054 713 208 
f 393 852 948 
f 586 297 421 
f 421 320 284 
f 41 778 594 
f 594 778 288 
f 595 91 174 
f 595 174 1084 
f 576 868 167 
f 394 806 339 
f 220 339 806 
f 145 868 553 
f 548 171 359 
f 220 806 884 
f 478 752 871 
f 152 752 478 
f 871 752 555 
f 555 752 892 
f 787 790 88 
f 787 88 158 
f 744 158 88 
f 161 743 147 
f 767 147 743 
f 767 743 810 
f 459 306 12 
f 12 306 816 
f 889 236 319 
f 10 647 894 
f 744 88 1059 
f 664 396 102 
f 671 396 664 
f 1011 902 1059 
f 1011 1059 356 
f 106 233 1060 
f 363 80 6 
f 903 742 57 
f 165 248 1056 
f 356 246 82 
f 1059 246 356 
f 88 246 1059 
f 920 683 906 
f 920 906 443 
f 584 906 683 
f 352 621 532 
f 443 906 714 
f 259 864 443 
f 94 385 302 
f 1002 597 838 
f 371 295 29 
f 357 1095 186 
f 413 186 148 
f 148 186 1095 
f 10 527 647 
f 739 522 647 
f 94 726 385 
f 888 838 597 
f 318 560 726 
f 726 94 318 
f 242 726 560 
f 242 497 726 
f 184 866 709 
f 772 150 280 
f 125 520 317 
f 472 602 900 
f 190 472 900 
f 472 500 602 
f 299 48 500 
f 884 806 399 
f 927 472 268 
f 575 526 472 
f 575 472 74 
f 74 472 626 
f 190 339 472 
f 765 472 452 
f 765 609 472 
f 352 532 587 
f 327 686 784 
f 686 549 784 
f 621 352 1029 
f 574 516 717 
f 812 168 265 
f 731 169 836 
f 453 169 731 
f 352 587 634 
f 634 587 1037 
f 1037 587 301 
f 507 807 259 
f 864 259 807 
f 1001 930 773 
f 483 341 459 
f 201 459 341 
f 730 430 790 
f 915 219 971 
f 55 986 330 
f 136 1089 973 
f 305 499 410 
f 410 499 79 
f 359 197 548 
f 90 799 741 
f 282 664 295 
f 282 295 371 
f 664 102 295 
f 102 29 295 
f 730 181 125 
f 730 125 317 
f 109 1014 643 
f 264 1014 109 
f 330 591 55 
f 11 946 475 
f 11 475 156 
f 780 504 824 
f 824 504 873 
f 873 504 482 
f 482 504 185 
f 185 504 434 
f 570 434 504 
f 380 287 137 
f 339 444 452 
f 341 7 340 
f 735 7 341 
f 1036 990 139 
f 994 990 1036 
f 288 778 636 
f 288 636 212 
f 212 636 998 
f 938 582 13 
f 697 582 938 
f 697 97 582 
f 974 13 582 
f 339 190 582 
f 339 582 548 
f 726 497 153 
f 219 153 497 
f 1055 548 582 
f 323 1055 582 
f 974 582 617 
f 106 784 233 
f 573 375 1024 
f 699 807 507 
f 864 807 62 
f 77 66 1038 
f 1038 66 303 
f 456 303 66 
f 176 764 414 
f 414 764 1032 
f 904 764 176 
f 1019 234 1078 
f 1024 72 835 
f 1024 835 573 
f 889 845 83 
f 685 845 127 
f 889 127 845 
f 685 754 845 
f 38 784 549 
